<?xml version="1.0" encoding="utf-8"?>
<!-- Generator: Adobe Illustrator 27.5.0, SVG Export Plug-In . SVG Version: 6.00 Build 0)  -->
<svg version="1.1" id="Woman_shopping_character_pose"
	 xmlns="http://www.w3.org/2000/svg" xmlns:xlink="http://www.w3.org/1999/xlink" x="0px" y="0px" viewBox="0 0 3000 3000"
	 style="enable-background:new 0 0 3000 3000;" xml:space="preserve">
<g id="Woman_shopping_character_pose_1_">
	<ellipse style="fill:#CCCCCC;" cx="1589.441" cy="2717.081" rx="1261.375" ry="80.246"/>
	<g id="woman">
		<g>
			<g>
				<path style="fill:#202020;" d="M1050.336,2502.62c0,0,12.648,1.161,17.814,33.225c5.384,33.413-1.371,117.061-7.262,151.205
					c-4.846,28.085-65.242,92.546-78.525,81.607c-13.283-10.939-52.973-82.502-45.016-124.296
					c7.957-41.794,41.461-126.36,61.178-152.703C1018.242,2465.315,1038.557,2496.679,1050.336,2502.62z"/>
				<path style="fill:#F9CAB1;" d="M969.381,2573.646c-5.409,22.559-11.429,48.236-15.52,67.357
					c-9.158,42.799,60.366,33.907,82.866,25.063c22.501-8.844,20.34-159.675,20.057-166.421
					c1.863-24.974-53.609-19.134-53.609-19.134S976.079,2545.711,969.381,2573.646z"/>
			</g>
			<path style="fill:#F9CAB1;" d="M1098.139,2106.559c8.945-101.107,11.643-206.677,11.698-219.323
				c0.383-87.483-4.965-134.082-25.971-141.224c-21.006-7.143-97.291-19.162-105.287,17.368
				c-10.267,46.906,1.188,106.919-14.022,153.262c-34.792,106.012-6.797,188.602-4.976,245.713
				c21.34,164.251,34.137,371.984,34.137,371.984l60.853,8.32C1054.341,2442.89,1087.512,2226.684,1098.139,2106.559z"/>
		</g>
		<g>
			<g>
				<path style="fill:#202020;" d="M1443.389,2514.707c0,0-11.803,4.692-7.687,36.907c4.29,33.571,34.434,111.89,49.745,142.973
					c12.593,25.566,88.76,70.306,98.405,56.056s27.467-94.119,8.011-131.954c-19.456-37.835-75.517-109.467-101.881-129.155
					C1463.618,2469.846,1453.006,2505.676,1443.389,2514.707z"/>
				<path style="fill:#F9CAB1;" d="M1541.131,2559.927c11.57,20.107,24.609,43.031,33.943,60.214
					c20.892,38.459-48.306,49.6-72.39,47.483c-24.084-2.117-64.685-147.396-66.322-153.946
					c-8.853-23.427,46.005-33.519,46.005-33.519S1526.803,2535.028,1541.131,2559.927z"/>
			</g>
			<path style="fill:#F9CAB1;" d="M1285.484,2148.352c-37.185-94.446-69.641-194.939-73.272-207.052
				c-25.118-83.8-33.172-130.008-15.045-142.802c18.127-12.794,87.895-45.905,105.899-13.13
				c23.118,42.084,29.111,102.886,56.811,143.033c63.364,91.837,59.879,178.973,74.29,234.266
				c26.002,163.578,72.5,366.444,72.5,366.444l-56.013,25.197C1422.649,2458.55,1329.664,2260.562,1285.484,2148.352z"/>
		</g>
		<path style="fill:#692F0E;" d="M1248.828,324.112c35.688,78.298,43.294,167.128,45.443,253.149s5.698,175.074,43.807,252.222
			l-342.151,3.406c4.034-79.031-4.872-158.069-8.67-237.112s-2.267-159.719,21.832-235.094L1248.828,324.112z"/>
		<g>
			<path style="fill:#25232F;" d="M1269.729,695.824c0,0,47.191-7.989,76.235,4.94c20.696,9.213,161.455,185.364,240.667,285.872
				c29.322,37.205,21.179,91.43-17.768,118.394l-1.416,0.98c-35.691,24.71-84.44,17.391-111.303-16.709
				c-46.54-59.077-111.09-142.788-118.302-161.573C1326.43,898.002,1230.283,708.987,1269.729,695.824z"/>
		</g>
		<g>
			<g>
				<g>
					<path style="fill:#F9CAB1;" d="M1645.093,586.932c4.028-3.575,5.944-9.645,6.626-15.228c0.564-4.611,0.403-9.907-3.009-13.059
						c-1.92-1.773-4.515-2.512-7.104-3.05c2.237-4,1.889-9.638-0.521-13.771c-3.237-5.552-9.035-9.021-14.59-12.253
						c-7.298-4.245-14.595-8.49-21.893-12.736c-5.039-2.931-10.501-5.963-16.308-5.455c-6.642,0.581-11.919,5.6-16.614,10.335
						c-4.931,4.973-9.932,10.039-13.244,16.21c-0.828,1.543-3.06,4.68-3.564,4.657c-4.649-0.209-29.794,88.073-25.914,97.442
						c3.422,8.264,19.87,39.147,30.477,89.598l58.67-6.577c0-14.439,0.646-26.684,3.375-43.873
						c9.508-9.509,21.529-64.404,23.963-90.788L1645.093,586.932z"/>
					<g>
						<path style="fill:#E69A6E;" d="M1578.401,616.749c-1.366-0.87-2.704-1.682-3.733-2.667c-1.042-0.981-1.674-2.094-1.924-3.396
							c-0.468-2.653,0.641-5.651,1.787-8.59l0.809-2.074l-2.21,0.144c-2.065,0.135-4.27-0.768-6.006-2.237
							c-1.77-1.491-2.994-3.448-3.621-5.781c-0.65-2.303-0.8-4.794-0.7-7.302c0.095-2.512,0.43-5.049,0.685-7.601
							c-0.789,2.439-1.509,4.903-1.95,7.468c-0.431,2.555-0.595,5.243-0.065,7.916c0.268,1.322,0.675,2.657,1.344,3.918
							c0.668,1.243,1.563,2.347,2.592,3.31c1.557,1.469,3.565,2.604,5.799,2.986c-0.961,2.521-1.755,5.298-1.201,8.38
							c0.189,0.937,0.545,1.859,1.045,2.693c0.514,0.828,1.165,1.529,1.85,2.12c1.382,1.183,2.871,1.99,4.277,2.773
							c5.706,3.12,11.587,5.927,17.704,8.132C1589.348,623.534,1583.819,620.226,1578.401,616.749z"/>
						<path style="fill:#E69A6E;" d="M1581.813,544.32c9.761,1.906,19.516,3.85,29.295,5.661l29.417,5.542l0.055-0.282
							c-2.374-0.869-4.78-1.564-7.177-2.308c-2.393-0.768-4.809-1.412-7.222-2.074c-2.414-0.655-4.844-1.231-7.265-1.851
							l-7.299-1.674c-4.883-1.026-9.764-2.067-14.682-2.911c-4.905-0.914-9.838-1.679-14.786-2.368l-1.032-0.144l-0.632,0.544
							c-2.585,2.224-5.113,4.521-7.625,6.839l-3.686,3.582c-1.242,1.177-2.449,2.398-3.626,3.658l0.177,0.227L1581.813,544.32z"/>
						<path style="fill:#E69A6E;" d="M1599.719,572.466c3.386,0.66,6.795,1.16,10.198,1.709c3.595,0.458,7.179,0.996,10.794,1.315
							c3.591,0.434,7.306,0.531,10.653,0.996c1.678,0.275,3.313,0.653,4.857,1.348c1.541,0.714,2.942,1.787,4.244,3.07l0.238-0.161
							c-1.013-1.521-2.319-2.86-3.854-3.869c-1.534-1.016-3.27-1.68-5.033-2.141c-3.55-0.88-7.162-1.219-10.737-1.804
							c-7.165-1.087-14.339-2.115-21.519-3.097l-0.063-0.009l-0.057,0.022c-6.665,2.615-13.081,5.856-19.134,9.67l0.152,0.244
							c1.702-0.641,3.345-1.35,5.006-2.009l4.978-1.92l4.956-1.851"/>
					</g>
				</g>
				<g>
					<path style="fill:#F9CAB1;" d="M1571.187,670.98c0,0-73.573,254.764-78.705,303.058c-5.132,48.294,9.318,117.176,54.051,121.93
						s58.547-64.883,63.067-107.422c4.52-42.539,15.992-304.15,15.992-315.752C1625.592,661.192,1578.263,646.263,1571.187,670.98z"
						/>
					<path style="fill:#25232F;" d="M1497.651,831.938l142.929,20.74c0,0-16.823,127.261-30.075,197.026
						c-13.251,69.766-141.269,105.131-141.269,14.873C1469.236,990.081,1497.651,831.938,1497.651,831.938z"/>
				</g>
			</g>
			<g>
				<g>
					<g>
						<path style="fill:#B3B3B3;" d="M1812.959,718.898l-8.062,1.852c-0.344-1.512-35.464-151.309-113.36-198.356
							c-22.126-13.36-45.884-17.19-70.605-11.378c-127.641,30.011-80.395,268.231-79.897,270.632l-8.104,1.668
							c-2.07-10.123-49.23-248.299,86.16-280.131c26.943-6.335,52.813-2.183,76.863,12.349
							C1776.766,564.349,1811.514,712.609,1812.959,718.898z"/>
					</g>
					<g>
						<g>
							
								<rect x="1515.197" y="737.692" transform="matrix(0.9735 -0.2289 0.2289 0.9735 -179.1007 422.0418)" style="fill:#F14855;" width="429.518" height="490.936"/>
							
								<rect x="1519.48" y="774.619" transform="matrix(0.9735 -0.2289 0.2289 0.9735 -191.7215 387.075)" style="fill:#B53640;" width="106.834" height="490.936"/>
						</g>
					</g>
				</g>
				<g>
					<polygon style="fill:#FCEE21;" points="1743.496,1189.286 2119.505,945.678 1870.045,560.971 1827.154,580.843 
						2030.224,931.699 1668.01,1174.827 					"/>
					<path style="fill:#CCCCCC;" d="M1784.381,647.598c1.152-1.107,1.419-2.904,0.544-4.32
						c-3.662-5.927-90.46-145.333-156.263-158.742c-12.42-2.532-23.469-0.457-32.84,6.164
						c-64.143,45.39-5.869,279.357-3.354,289.295c0.469,1.856,2.354,2.98,4.211,2.511c1.855-0.477,2.979-2.359,2.51-4.212
						c-0.604-2.387-59.695-239.262,0.636-281.931c7.854-5.552,16.833-7.199,27.452-5.034
						c62.895,12.818,150.868,154.167,151.751,155.595c1.006,1.628,3.142,2.133,4.771,1.127
						C1784.013,647.918,1784.207,647.766,1784.381,647.598z"/>
					<polygon style="fill:#CCC116;" points="1668.099,1174.85 2035.083,935.264 1827.243,580.866 1527.162,800.621 					"/>
					<path style="fill:#E6E6E6;" d="M1770.912,660.544c1.152-1.107,1.419-2.904,0.544-4.32
						c-3.663-5.927-90.46-145.333-156.263-158.743c-12.42-2.532-23.469-0.457-32.84,6.164
						c-64.15,45.397-5.869,279.357-3.354,289.295c0.469,1.856,2.354,2.98,4.211,2.511c1.854-0.476,2.978-2.359,2.51-4.212
						c-0.603-2.388-59.685-239.272,0.636-281.931c7.854-5.552,16.833-7.199,27.453-5.034
						c62.895,12.818,150.868,154.167,151.751,155.595c1.006,1.628,3.142,2.133,4.771,1.127
						C1770.544,660.864,1770.738,660.712,1770.912,660.544z"/>
				</g>
				<g>
					<polygon style="fill:#137E6B;" points="1626.099,1095.97 1973.866,937.177 1811.217,581.338 1772.534,592.769 1900.24,914.251 
						1564.178,1074.359 					"/>
					<path style="fill:#CCCCCC;" d="M1732.755,636.529c0.992-0.707,1.394-2.033,0.891-3.198
						c-2.103-4.879-52.057-119.706-100.204-137.149c-9.087-3.293-17.653-2.958-25.459,0.993
						c-53.441,27.099-35.533,210.084-34.742,217.861c0.147,1.452,1.444,2.51,2.897,2.363c1.452-0.154,2.51-1.448,2.362-2.898
						c-0.19-1.868-18.391-187.138,31.872-212.608c6.543-3.314,13.5-3.556,21.27-0.741c46.019,16.673,96.644,133.097,97.15,134.273
						c0.578,1.34,2.133,1.959,3.474,1.382C1732.441,636.729,1732.605,636.635,1732.755,636.529z"/>
					<polygon style="fill:#19A88E;" points="1564.25,1074.389 1903.898,917.866 1772.606,592.799 1491.906,740.917 					"/>
					<path style="fill:#E6E6E6;" d="M1721.152,644.795c0.992-0.707,1.394-2.033,0.891-3.198
						c-2.103-4.879-52.057-119.707-100.204-137.15c-9.087-3.293-17.653-2.958-25.459,0.993
						c-53.448,27.103-35.533,210.084-34.742,217.861c0.147,1.452,1.444,2.51,2.897,2.363c1.452-0.153,2.509-1.448,2.362-2.898
						c-0.189-1.869-18.382-187.145,31.872-212.608c6.543-3.314,13.5-3.556,21.27-0.741c46.019,16.673,96.644,133.097,97.151,134.273
						c0.578,1.34,2.133,1.958,3.474,1.381C1720.839,644.995,1721.002,644.902,1721.152,644.795z"/>
				</g>
			</g>
			<path style="fill:#F9CAB1;" d="M1525.024,640.931c-3.843-8.458-4.404-38.497,0.459-52.369s16.437-29.602,21.884-39.411
				c5.447-9.809,33.268-19.81,42.416-18.816c9.148,0.995,6.706,15.307-8.998,22.429s-26.292,65.689-26.463,80.921
				C1554.054,657.599,1533.746,660.128,1525.024,640.931z"/>
			<path style="fill:#F9CAB1;" d="M1642.17,592.401c0,0-51.077-11.222-67.936-3.453c-16.859,7.769-15.691,14.735-12.048,37.583
				c3.293,20.657,20.978,25.008,27.806,21.766c6.827-3.242,0-29.377,0-29.377L1642.17,592.401z"/>
		</g>
		<g>
			<path style="fill:#25232F;" d="M987.718,687.36c0,0-46.608,10.886-68.391,34.043c-15.521,16.5-77.191,233.386-111.362,356.71
				c-12.649,45.651,15.834,92.505,62.18,102.306l1.684,0.356c42.471,8.981,84.595-16.623,96.177-58.459
				c20.067-72.481,47.214-174.643,46.599-194.755C1013.632,895.733,1029.185,684.241,987.718,687.36z"/>
		</g>
		<path style="fill:#B53640;" d="M1278.729,1932.03c4.328-52.15-2.22-131.415,9.914-133.624
			c12.165-2.232,24.311,86.282,22.598,139.573c-1.088,34.274,1.252,70.718,12.034,101.28
			c59.175-9.586,129.799-34.884,129.793-34.838c-28.801-138.162-81.005-281.296-83.917-425.359
			c-1.634-82.014,0.592-165.094-14.012-244.684c-14.583-79.659-38.932-153.712-95.822-194.152
			c-64.984-2.685-129.921-6.531-194.78-11.536c-43.656,24.656-85.558,78.051-107.822,133.414
			c-46.277,114.249-17.251,636.972-94.292,729.973c167.283,58.597,279.196,52.001,393.342,51.427
			C1270.328,2009.648,1275.605,1969.886,1278.729,1932.03z"/>
		<g>
			<path style="fill:#F9CAB1;" d="M1303.597,790.308c0,48.629-76.347,152.364-155.408,152.364S988.696,838.937,988.696,790.308
				c0-20.646-46.656-74.155-19.568-86.628c0,0,133.567-28.155,179.061-28.155c47.076,0,179.601,29.948,179.601,29.948
				C1351.755,717.743,1303.597,770.635,1303.597,790.308z"/>
			<g>
				<g>
					<path style="fill:#F9CAB1;" d="M1193.99,554.555l-47.843,0.806l-45.189-0.806c0,0-2.324,120.401-43.815,157.194
						c0,0,24.336,25.595,89.004,27.195c64.668-1.599,89.004-27.195,89.004-27.195C1193.66,674.956,1193.99,554.555,1193.99,554.555z
						"/>
				</g>
			</g>
			<g>
				<g>
					<path style="fill:#E69A6E;" d="M1114.983,641.05c12.493-2.173,27.652,11.439,56.845,0.943
						c12.37-4.447,20.031-8.345,28.332-15.311c-6.262-37.676-6.171-72.127-6.171-72.127l-47.843,0.806l-45.189-0.806
						c0,0-1.445,74.596-22.295,124.298c2.915-0.824,5.778-1.932,8.563-3.391C1099.311,669.885,1102.49,643.223,1114.983,641.05z"/>
				</g>
			</g>
		</g>
		<path style="fill:#B53640;" d="M1352.961,717.561c-41.987-41.987-95.75-31.093-140.382-53.511c0,0,8.444,73.364,3.747,88.626
			c-5.775,18.761-38.01,49.797-54.447,60.821c-29.98-10.346-78.078-52.879-86.02-60.821c-11.291-11.291,3.747-88.626,3.747-88.626
			c-44.632,22.419-98.395,11.524-140.382,53.511c-8.807,8.807,40.49,116.624,40.49,116.624s-12.146,15.013-18.968,39.446
			c-8.685,31.103-1.867,64.497,17.759,90.142l33.671,43.997l1.639,162.034h264.555l1.639-162.034l34.234-47.131
			c19.239-26.486,25.035-60.561,15.132-91.763c-6.395-20.148-15.789-33.417-16.904-34.69
			C1312.471,834.185,1361.768,726.368,1352.961,717.561z"/>
		<g>
			<g>
				<path style="fill:#25232F;" d="M1300.878,1172.929l9.58-145.194c0,0,7.262-31.551,24.62-88.191
					c10.166-33.173,4.497-60.831-2.049-78.192c-5.27-13.977-11.852-23.614-15.07-27.853c3.38-7.496,13.324-29.789,22.438-52.571
					c6.569-16.421,11.438-29.906,14.472-40.081c5.346-17.93,4.437-23.609,1.427-26.62c-26.679-26.679-57.772-32.789-87.84-38.697
					c-19.019-3.737-36.984-7.267-53.76-15.694l-7.482-4.309l1.832,9.423c0.037,0.191,2.655,19.385,4.955,39.709
					c4.227,37.341-31.026,232.784-44.979,252.395c-23.082-20.004-95.06-215.048-90.843-252.343
					c2.298-20.326,6.019-39.569,6.057-39.761l1.831-9.422l-8.577,4.309c-16.776,8.427-34.741,11.956-53.76,15.694
					c-30.068,5.908-61.16,12.018-87.84,38.697c-3.01,3.01-3.92,8.689,1.427,26.62c3.034,10.175,7.903,23.66,14.472,40.081
					c9.114,22.782,19.058,45.076,22.438,52.571c-3.218,4.24-9.801,13.877-15.07,27.853c-6.546,17.361-12.214,45.019-2.048,78.191
					c17.357,56.641,31.221,84.587,31.221,84.587l3.002,150.793L1300.878,1172.929z"/>
				<path style="fill:#1C1A23;" d="M1316.222,839.747c29.907,42.745,18.254,83.254,4.661,121.422
					c-5.774,16.213-6.942,45.147-29.821,62.961c-15.09,11.317-37.151,10.822-54.41,14.962c18.862,4.715,47.155-1.886,52.814,14.147
					c11.317,33.952-2.943,115.932-2.703,119.781l14.116-0.091l9.58-145.194c0,0,7.262-31.551,24.62-88.191
					c10.166-33.173,4.497-60.831-2.049-78.192c-5.27-13.977-11.852-23.614-15.07-27.853
					C1317.959,833.499,1307.599,827.422,1316.222,839.747z"/>
				<path style="fill:#1C1A23;" d="M999.932,1065.499c0-7.545-0.943-19.805,5.659-22.635c19.805-8.488,36.752-5.688,58.443-5.688
					c15.09,0.943,28.249,4.519,43.339,0.747c-37.724-8.488-73.729,0.466-104.851-25.941c-22.635-19.805-36.191-54.975-41.849-84.211
					c-5.659-29.236,5.858-73.268,11.418-81.787c5.56-8.518,1.626-13.617,2.136-12.486c-3.218,4.24-9.801,13.877-15.07,27.853
					c-6.546,17.361-12.214,45.019-2.048,78.191c17.357,56.641,31.221,84.587,31.221,84.587l3.002,150.793l10.597-0.068
					C1002.509,1138.403,1000.572,1101.951,999.932,1065.499z"/>
			</g>
			<g>
				<path style="fill:#CCCCCC;" d="M1171.747,964.14c-23.141-4.258-46.785-6.689-70.317-7.231l7.132-21.555l-53.754,15.029
					c-9.06-84.465-18.989-179.904,7.628-266.776c0.305-0.996-0.255-2.051-1.251-2.356c-0.997-0.306-2.051,0.255-2.356,1.251
					c-27.076,88.371-16.694,185.131-7.534,270.499l0.238,2.215l51.223-14.321l-6.515,19.691l2.564,0.044
					c24.172,0.416,48.483,2.846,72.261,7.22c0.204,0.038,0.406,0.041,0.601,0.014c0.783-0.109,1.444-0.707,1.595-1.527
					C1173.449,965.311,1172.771,964.328,1171.747,964.14z"/>
				<path style="fill:#CCCCCC;" d="M1190.34,965.576c16.926-8.561,34.555-15.426,52.428-20.416l-9.199-19.794l43.659,4.558
					c-7.793-84.575-7.95-159.653-43.401-239.83c-0.407-0.92-0.163-2.061,0.545-2.548c0.708-0.489,1.61-0.138,2.017,0.781
					c36.063,81.561,36.104,158.02,43.978,243.5l0.204,2.218l-41.603-4.344l8.403,18.082l-1.95,0.529
					c-18.382,4.988-36.521,11.978-53.913,20.774c-0.149,0.076-0.303,0.117-0.457,0.127c-0.617,0.042-1.226-0.42-1.484-1.196
					C1189.245,967.048,1189.591,965.955,1190.34,965.576z"/>
			</g>
		</g>
		<g>
			<g>
				<g>
					<g>
						<path style="fill:#692F0E;" d="M1108.734,237.762c-10.121-11.791-24.3-20.49-39.545-23.634
							c-30.667-6.323-63.04,6.569-86.079,27.774c-23.039,21.205-37.947,49.799-49.372,78.953
							c-29.485,75.244-38.421,156.855-44.755,237.343c22.597-18.232,38.266-44.642,49.094-71.879
							c12.779-32.142,19.869-66.251,31.253-98.913c11.384-32.662,27.898-64.862,55.048-86.294
							c27.149-21.433,66.803-29.704,97.007-12.847l11.856-10.416C1133.242,277.849,1118.973,249.69,1108.734,237.762z"/>
						<path style="fill:#692F0E;" d="M904.768,513.446c0,0,1.377-0.038,3.872-0.108c2.49-0.186,6.127-0.494,10.562-1.495
							c4.429-0.993,9.634-2.707,15.119-5.382c2.763-1.302,5.537-2.925,8.367-4.703c2.797-1.824,5.613-3.86,8.369-6.118
							c11.056-9.029,20.971-21.581,28.146-34.809c3.631-6.6,6.573-13.38,8.891-19.927c1.174-3.294,2.058-6.457,2.977-9.507
							c0.842-3.053,1.576-5.986,2.223-8.754c1.235-5.541,2.654-13.147,3.94-22.162c1.305-9.014,2.477-19.423,3.858-30.549
							c1.411-11.118,2.989-22.993,5.586-34.836c0.673-2.951,1.313-5.935,2.132-8.864c0.763-2.962,1.563-5.875,2.528-8.738
							c1.874-5.75,4.157-11.373,6.786-16.744c5.211-10.769,11.848-20.496,19.143-28.398c7.293-7.913,15.335-13.852,22.792-17.682
							c7.464-3.862,14.261-5.584,19.002-6.41c2.384-0.364,4.261-0.609,5.544-0.674c1.283-0.1,1.961-0.152,1.961-0.152
							s-0.681,0-1.968-0.001c-1.29-0.034-3.183,0.064-5.614,0.246c-4.83,0.464-11.86,1.671-19.83,5.06
							c-7.955,3.354-16.755,8.882-24.945,16.563c-8.19,7.667-15.854,17.324-22.11,28.244c-3.153,5.447-5.966,11.202-8.364,17.161
							c-1.229,2.972-2.29,6.016-3.281,9.027c-1.058,3.01-1.925,6.055-2.824,9.083c-3.494,12.134-5.856,24.209-7.921,35.365
							c-2.034,11.166-3.725,21.434-5.366,30.184c-1.622,8.755-3.189,15.992-4.363,21.267c-0.617,2.621-1.272,5.402-1.958,8.315
							c-0.766,2.869-1.474,5.939-2.365,8.958c-1.776,6.081-3.994,12.491-6.789,18.841c-5.509,12.726-13.284,25.272-22.451,34.888
							c-9.083,9.711-19.605,16.09-27.835,19.169c-4.11,1.573-7.602,2.403-10.021,2.955
							C906.118,513.201,904.768,513.446,904.768,513.446z"/>
						<path style="fill:#692F0E;" d="M981.205,221.212c0,0,0.726-0.161,2.039-0.453c1.318-0.274,3.19-0.766,5.553-1.201
							c4.684-0.999,11.219-2.088,18.43-2.91c7.217-0.818,15.127-1.251,22.584-1.183c7.465,0.04,14.454,0.599,20.038,1.041
							c1.391,0.152,3.038,0.303,4.909,0.451c1.86,0.208,3.933,0.475,6.192,0.758c1.12,0.189,2.285,0.385,3.49,0.588
							c0.602,0.105,1.221,0.189,1.84,0.312c0.616,0.135,1.241,0.273,1.875,0.412c1.263,0.292,2.594,0.524,3.906,0.878
							c1.311,0.361,2.653,0.731,4.02,1.107c5.432,1.66,11.175,3.922,16.787,6.839c5.616,2.911,11.01,6.567,15.9,10.599
							c9.865,8.017,17.124,18.062,20.978,26.184c0.492,1.016,0.963,1.987,1.409,2.907c0.37,0.953,0.72,1.854,1.048,2.699
							c0.329,0.849,0.637,1.642,0.92,2.373c0.279,0.734,0.439,1.434,0.635,2.051c0.734,2.496,1.146,3.897,1.146,3.897
							s-0.207-1.449-0.576-4.031c-0.106-0.645-0.167-1.376-0.341-2.15c-0.179-0.774-0.373-1.612-0.581-2.511
							c-0.211-0.903-0.436-1.868-0.674-2.887c-0.32-0.997-0.657-2.049-1.01-3.15c-0.635-2.243-1.661-4.553-2.691-7.069
							c-0.489-1.273-1.203-2.474-1.826-3.774c-0.645-1.289-1.299-2.623-2.113-3.896c-2.976-5.285-6.981-10.59-11.628-15.596
							c-4.661-4.991-9.996-9.69-15.745-13.617c-5.742-3.934-11.814-7.188-17.727-9.701c-1.499-0.585-2.969-1.16-4.407-1.721
							c-1.444-0.547-2.88-0.952-4.269-1.412c-0.697-0.221-1.384-0.439-2.061-0.654c-0.681-0.201-1.359-0.359-2.023-0.535
							c-1.334-0.338-2.623-0.665-3.862-0.98c-2.498-0.519-4.811-0.97-6.889-1.307c-2.084-0.277-3.93-0.501-5.492-0.668
							c-6.258-0.502-14.093-0.209-22.08,1.079c-7.996,1.258-16.119,3.472-23.232,6.018c-7.118,2.554-13.268,5.319-17.58,7.542
							c-2.18,1.048-3.874,2.043-5.063,2.667C981.857,220.856,981.205,221.212,981.205,221.212z"/>
					</g>
					<g>
						<path style="fill:#F56B6C;" d="M1129.52,256.111c-19.854-0.705-40.017,7.012-56.179,21.132
							c-4.517,3.946-8.675,8.398-12.431,13.265c-1.174,1.522-3.137-0.461-1.96-1.986c13.765-17.835,32.964-29.911,53.146-34.011
							c5.744-1.167,11.551-1.653,17.319-1.449C1131.129,253.124,1131.249,256.172,1129.52,256.111L1129.52,256.111z"/>
						<path style="fill:#F56B6C;" d="M1128.061,250.643c-20.147-0.809-40.773,5.903-57.913,19.137
							c-4.594,3.547-9.382,8.014-10.846,14.314c-0.447,1.924-3.079,1.394-2.63-0.538c1.364-5.87,5.129-10.397,9.32-14.055
							c4.269-3.726,8.987-6.849,13.763-9.598c9.58-5.514,19.851-9.264,30.323-11.104c5.942-1.044,11.93-1.443,17.878-1.204
							c0.732,0.029,1.363,0.487,1.402,1.383C1129.391,249.719,1128.786,250.672,1128.061,250.643L1128.061,250.643z"/>
					</g>
				</g>
				<g>
					<g>
						<g>
							<path style="fill:#F9CAB1;" d="M1237.775,476.61c-0.17,10.506-0.319,19.833,0.666,26.937
								c1.012,7.065,3.296,12.142,8.385,13.018c4.991,0.842,11.081-3.336,15.749-11.773c2.353-4.184,4.3-9.376,5.664-15.207
								c1.304-5.836,1.977-12.309,1.814-18.955c-0.347-13.335-3.999-24.562-8.565-31.29c-4.586-6.799-9.89-9.178-14.384-6.796
								c-4.558,2.398-6.696,8.336-7.853,16.086C1238.085,456.401,1237.981,466.102,1237.775,476.61z"/>
						</g>
						<g>
							<path style="fill:#E69A6E;" d="M1251.689,500.443c9.471-1.673,14.923-42.419,9.006-53.333
								c-3.686-6.799-12.453-6.992-15.013-2.49c2.846,32.664,9.462,42.703,1.139,42.609
								C1235.511,487.102,1245.505,501.535,1251.689,500.443z"/>
						</g>
					</g>
					<g>
						<g>
							<g>
								<path style="fill:#F9CAB1;" d="M1121.866,294.055c-59.975,5.076-111.536,32.11-101.663,126.166
									c0,0,14.175,105.206,32.185,130.965c12.122,17.337,81.15,78.798,124.35,74.128l8.297-0.897
									c27.333-7.425,66.315-67.301,71.164-96.745c3.438-20.873-8.058-132.09-8.058-132.09
									C1237.688,301.59,1181.541,286.198,1121.866,294.055z"/>
							</g>
						</g>
						<path style="fill:#692F0E;" d="M1266.889,376.45l-0.018-0.2l-0.036-0.198c-18.692-103.692-105.777-126.814-153.723-118.344
							c-1.783,0.315-9.035,1.596-10.818,1.911c-47.946,8.47-121.837,60.033-103.868,163.852l0.034,0.198l0.052,0.194
							c0.691,2.594,11.213,42.07,20.655,75.957c4.636-32.9,18.217-88.268,24.822-120.583c7.641,6.905,4.481,57.046,4.481,57.046
							s139.621-40.616,173.994-98.09c12.77,15.172,30.674,47.342,36.799,66.439c10.05,32.217,5.919,70.665,12.373,100.132
							C1271.635,504.676,1267.268,380.688,1266.889,376.45z"/>
						<path style="fill:#692F0E;" d="M1207.987,338.211c0,0,6.757,2.328,2.167,12.455c-4.591,10.127-52.178,58.183-102.711,69.596
							C1107.443,420.262,1187.353,386.217,1207.987,338.211z"/>
						<g>
							<path style="fill:#59280C;" d="M1060.458,282.825c-1.422,1.14-2.922,2.815-3.072,4.464c-0.051,0.561,0.054,1.119,0.372,1.652
								c0.765,1.283,2.524,1.674,3.97,1.299c1.446-0.374,2.655-1.341,3.814-2.283c10.231-8.31,20.462-16.619,30.688-24.934
								C1083.301,267.535,1071.144,274.259,1060.458,282.825z"/>
							<path style="fill:#59280C;" d="M1104.634,305.472c0.102,2.044,0.544,4.58,1.858,5.536c0.152,0.11,0.315,0.199,0.49,0.265
								c1.165,0.432,2.259-0.528,2.987-1.654c2.186-3.382,2.542-8.401,1.991-13.088s-1.899-9.245-2.812-13.881
								c-0.898-4.561-1.815-12.003-0.687-16.26C1105.274,278.672,1103.962,292.02,1104.634,305.472z"/>
							<path style="fill:#59280C;" d="M1107.558,262.853c-3.933,1.715-7.734,3.699-11.46,5.826l-2.759,1.648l-2.727,1.704
								l-2.659,1.796l-2.623,1.849c-0.865,0.629-1.735,1.254-2.63,1.859l-2.639,1.869c-0.846,0.658-1.691,1.32-2.47,2.043
								c-0.769,0.731-1.494,1.502-2.183,2.301c-0.665,0.819-1.316,1.647-1.931,2.501c-0.597,0.868-1.173,1.749-1.705,2.658
								c-0.515,0.922-1.002,1.86-1.434,2.83c-0.398,0.996-0.801,1.979-1.058,3.056l0.56,0.401c1.099-0.467,2.053-1.026,3.011-1.574
								c0.959-0.547,1.863-1.127,2.739-1.723c0.893-0.582,1.742-1.192,2.57-1.815c0.843-0.61,1.651-1.246,2.443-1.89
								c1.6-1.278,3.05-2.672,4.387-4.187l2.021-2.266c0.689-0.745,1.402-1.468,2.122-2.188l2.217-2.107l2.268-2.068l2.284-2.066
								l2.335-2.026c3.12-2.708,6.379-5.297,9.697-7.876L1107.558,262.853z"/>
							<path style="fill:#59280C;" d="M1178.665,280.07c-0.808-1.165-1.672-2.29-2.566-3.397c-0.933-1.059-1.908-2.083-2.906-3.091
								c-1.035-0.957-2.103-1.882-3.186-2.793c-1.122-0.853-2.275-1.669-3.463-2.43c-1.213-0.719-2.476-1.354-3.737-1.982
								l-3.897-1.644c-1.322-0.489-2.625-1.006-3.922-1.526l-3.948-1.41l-3.996-1.233l-4.052-1.002l-4.08-0.819
								c-5.464-0.926-10.984-1.371-16.455-1.165l-0.048,0.721c5.346,0.931,10.573,2.214,15.617,3.947l3.755,1.348l3.68,1.508
								l3.619,1.613l3.536,1.765c1.149,0.645,2.292,1.294,3.416,1.971l3.282,2.17c1.075,0.747,2.147,1.486,3.269,2.142
								c1.085,0.715,2.204,1.376,3.355,1.999c1.122,0.664,2.259,1.315,3.429,1.933c1.135,0.665,2.292,1.313,3.491,1.926
								c1.161,0.66,2.351,1.301,3.598,1.904c1.22,0.632,2.443,1.282,3.808,1.819l0.508-0.514
								C1180.166,282.506,1179.417,281.297,1178.665,280.07z"/>
							<path style="fill:#59280C;" d="M1142.984,272.053c-0.363-0.584-0.762-1.139-1.175-1.683c-0.433-0.521-0.901-1.01-1.41-1.45
								c-0.521-0.427-1.084-0.803-1.669-1.146c-1.195-0.658-2.442-1.221-3.604-1.877l-1.774-0.931l-1.795-0.874l-1.842-0.769
								l-1.857-0.71c-2.505-0.866-5.04-1.581-7.628-1.998l-0.267,0.671c1.888,1.296,3.712,2.597,5.464,3.967
								c-0.734-0.239-1.473-0.46-2.225-0.639l-0.352,0.631c1.459,1.469,2.884,2.884,4.209,4.369
								c0.673,0.727,1.324,1.466,1.954,2.215c0.647,0.728,1.273,1.466,1.88,2.215c0.612,0.745,1.093,1.615,1.6,2.436
								c0.501,0.828,1.128,1.509,1.922,2.054c0.784,0.554,1.659,1.039,2.656,1.46c1.003,0.417,2.096,0.788,3.522,0.98l0.584-0.426
								c0.165-0.983,0.147-1.864,0.039-2.693c0.318,0.12,0.645,0.234,0.987,0.339c0.689,0.209,1.377,0.431,2.209,0.549l0.548-0.471
								c-0.054-1.642-0.47-3.045-1.015-4.358C1143.659,273.267,1143.332,272.652,1142.984,272.053z"/>
						</g>
					</g>
					<path style="fill:#692F0E;" d="M1271.205,540.196c0.871-69.071-18.788-145.364-50.523-208.429l30.541,2.122
						c0,0,7.979,17.885,11.931,32.442c3.951,14.557,40.475,195.425,36.42,288.9c-1.699-72.405-12.088-146.889-30.252-218.185
						c4.49,34.095,5.362,68.365,2.321,100.573"/>
					<path style="fill:#692F0E;" d="M1001.46,393.183c-20.838,103.586,18.952,214.16,120.849,276.901
						c-93.831-73.926-105.031-192.389-64.241-298.517L1001.46,393.183z"/>
					<path style="fill:#E69A6E;" d="M1178.657,512.4c-0.733-0.935-3.715,0.18-6.661,2.49c-1.718,1.347-3.039,2.801-3.7,3.966
						c-0.188,0.217-0.374,0.434-0.554,0.651c-1.685,2.008-3.393,3.94-5.644,4.203c-2.235,0.393-4.716-0.598-7.247-1.375
						c-0.939-0.297-1.908-0.573-2.905-0.761c-0.951-0.359-2.072-0.67-3.293-0.891c-3.684-0.665-6.841-0.255-7.052,0.914
						c-0.211,1.169,2.604,2.656,6.288,3.32c3.577,0.645,6.649,0.276,7.018-0.816c1.012,0.448,2.05,0.876,3.162,1.233
						c1.339,0.398,2.831,0.636,4.356,0.408c1.517-0.251,2.953-1.015,4.001-2.02c0.858-0.83,1.563-1.729,2.191-2.643
						c1.213,0.165,3.635-0.923,6.034-2.804C1177.596,515.965,1179.39,513.335,1178.657,512.4z"/>
					<path style="fill:#E69A6E;" d="M1140.881,505.921c0,0,7.191-5.923,5.691-16.849c-1.501-10.926-9.568-36.463-12.695-41.363
						c-3.127-4.9-25.864-5.995-20.138-2.225C1123.256,451.75,1137.958,459.994,1140.881,505.921z"/>
					<g>
						<path style="fill:#6E360E;" d="M1111.369,429.17c-1.611-3.341-22.609-3.405-32.446-0.488
							c-18.664,5.528-20.831,8.721-28.827,30.07c-2.364,8.206-1.456,13.966-1.456,13.966s3.475-28.218,32.778-32.533
							C1113.146,435.5,1112.98,432.511,1111.369,429.17z"/>
						<path style="fill:#6E360E;" d="M1170.133,414.766c0.781-2.272,21.173-9.518,31.426-10.026
							c19.424-0.971,22.493,1.324,37.01,18.835c4.902,6.965,5.927,12.707,5.927,12.707s-12.475-25.498-41.551-19.852
							C1171.449,422.531,1169.352,417.038,1170.133,414.766z"/>
						<path style="fill:#E39371;" d="M1162.849,579.791c0,0,14.632-0.64,20.613-4.613
							C1183.462,575.178,1175.941,587.785,1162.849,579.791z"/>
						<g>
							<g>
								<g>
									<g>
										<path style="fill:#DB414D;" d="M1214.455,513.075c0,0-5.318,8.673-5.812,9.063c-2.188,3.689-8.996,17.094-12.041,27.785
											c-2.618,9.192-7.674,16.567-22.114,19.831c-13.432,2.989-23.91-0.48-30.533-7.998
											c-7.878-8.944-19.837-17.853-24.247-20.961c-0.716-0.162-7.688-4.443-8.456-4.625c0,0,18.498,2.978,26.272-0.376
											c7.774-3.355,21.542-3.597,26.741-4.689c4.536-0.954,14.595-7.469,35.129-8.185
											C1203.632,521.972,1214.455,513.075,1214.455,513.075z"/>
									</g>
								</g>
								<path style="fill:#A33939;" d="M1129.798,541.414c0,0,5.543,2.894,16.344,2.557c6.863-0.215,14.487-1.339,20.274-2.634
									c6.742-1.509,14.837-4.218,21.993-7.36c8.834-3.881,12.763-8.831,12.763-8.831l-6.628,13.872
									c-4.537,11.706-13.376,13.788-25.597,16.523c-12.22,2.735-21.379,0.82-25.824-4.04L1129.798,541.414z"/>
								<path style="fill:#FFFFFF;" d="M1194.544,539.018l6.628-13.872c0,0-3.929,4.95-12.763,8.831
									c-7.156,3.143-15.251,5.852-21.993,7.36c-5.787,1.295-13.411,2.419-20.275,2.634c-10.8,0.337-16.343-2.557-16.343-2.557
									l12.396,9.383C1155.163,558.625,1180.288,556.759,1194.544,539.018z"/>
							</g>
						</g>
						<g>
							<path style="fill:#E39371;" d="M1067.96,468.363c1.375-1.49,2.801-2.884,4.315-4.118c1.519-1.224,3.095-2.338,4.751-3.271
								c1.647-0.954,3.368-1.727,5.13-2.379l1.333-0.453l1.355-0.381l1.368-0.345c0.462-0.085,0.924-0.181,1.386-0.287
								c-0.475,0.001-0.95,0.01-1.426,0.031l-1.419,0.131l-1.402,0.25l-1.389,0.33c-1.843,0.492-3.822,1.116-5.516,2.072
								c-1.685,0.977-3.292,2.144-4.75,3.54C1070.234,464.871,1069.093,466.584,1067.96,468.363z"/>
							<g>
								<path d="M1059.029,467.589c-0.297-0.306-0.574-0.645-0.827-1.017c2.745,5.602,6.497,10.562,10.901,14.467
									c7.386-0.483,14.155-4.22,21.389-5.698c11.35-2.319,22.05-1.021,31.676,7.355c-1.781-8.95-8.32-14.854-16.675-18.704
									c-8.586-3.957-20.609-3.092-28.732,1.032c-3.048,1.548-5.889,3.69-9.151,4.575
									C1064.727,470.382,1061.292,469.921,1059.029,467.589z"/>
							</g>
						</g>
						<g>
							<path style="fill:#E39371;" d="M1223.87,438.086c-1.821-0.869-3.653-1.63-5.51-2.21c-1.857-0.568-3.728-1.012-5.607-1.259
								c-1.878-0.27-3.759-0.343-5.634-0.289l-1.404,0.078l-1.398,0.154l-1.397,0.192c-0.46,0.094-0.924,0.177-1.392,0.253
								c0.441-0.177,0.887-0.347,1.336-0.505l1.366-0.41l1.394-0.293l1.411-0.214c1.891-0.233,3.958-0.395,5.881-0.141
								c1.922,0.277,3.841,0.759,5.704,1.51C1220.485,435.692,1222.169,436.857,1223.87,438.086z"/>
							<g>
								<path d="M1231.887,434.02c0.165-0.396,0.298-0.815,0.398-1.255c-0.51,6.234-2.188,12.248-4.858,17.527
									c-7.039,2.318-14.691,1.382-21.952,2.719c-11.392,2.097-20.861,7.313-26.754,18.702c-1.607-8.984,2.318-16.919,8.678-23.627
									c6.536-6.893,18.023-10.595,27.075-9.806c3.397,0.296,6.817,1.223,10.171,0.823
									C1227.61,438.75,1230.635,437.035,1231.887,434.02z"/>
							</g>
						</g>
					</g>
				</g>
				<g>
					<g>
						<path style="fill:#F9CAB1;" d="M1056.614,510.855c3.987,9.772,7.525,18.448,9.063,25.453c1.496,6.979,0.934,12.56-4.1,15.224
							c-4.944,2.597-12.865,0.894-20.832-5.31c-3.991-3.063-7.922-7.217-11.469-12.18c-3.487-4.989-6.541-10.804-8.779-17.084
							c-4.469-12.607-4.697-24.438-2.333-32.391c2.359-8.026,7.076-12.175,12.665-11.574c5.664,0.592,10.065,5.375,14.09,12.209
							C1048.963,492.052,1052.589,501.094,1056.614,510.855z"/>
					</g>
					<g>
						<path style="fill:#E69A6E;" d="M1050.619,538.205c-10.568,1.867-31.072-34.293-28.804-46.654
							c1.412-7.699,10.564-11.059,14.888-7.772c1.657,31.996,5.526,43.398,14.247,40.293
							C1062.798,519.855,1057.519,536.986,1050.619,538.205z"/>
					</g>
				</g>
			</g>
		</g>
		<g>
			<g>
				<g>
					<path style="fill:#F9CAB1;" d="M757.988,651.419c-4.024-3.579-5.933-9.652-6.61-15.236c-0.559-4.612-0.392-9.908,3.024-13.056
						c1.922-1.771,4.518-2.507,7.107-3.042c-2.232-4.002-1.878-9.64,0.536-13.771c3.243-5.548,9.045-9.011,14.604-12.236
						c7.302-4.237,14.605-8.474,21.907-12.711c5.042-2.925,10.508-5.952,16.315-5.438c6.641,0.588,11.913,5.614,16.602,10.353
						c4.926,4.979,9.922,10.05,13.227,16.225c0.826,1.544,3.055,4.683,3.559,4.661c4.649-0.204,29.696,88.106,25.806,97.471
						c-3.432,8.26-19.914,39.125-30.576,89.564l-58.663-6.642c0.016-14.439-0.616-26.685-3.326-43.877
						c-9.498-9.519-21.458-64.428-23.862-90.814L757.988,651.419z"/>
					<g>
						<path style="fill:#E69A6E;" d="M824.648,681.311c1.367-0.868,2.706-1.679,3.736-2.663c1.043-0.98,1.677-2.092,1.928-3.394
							c0.471-2.653-0.634-5.651-1.778-8.592l-0.807-2.075l2.209,0.146c2.065,0.137,4.271-0.764,6.008-2.23
							c1.771-1.489,2.998-3.445,3.628-5.778c0.652-2.302,0.806-4.793,0.708-7.301c-0.093-2.512-0.424-5.049-0.677-7.602
							c0.786,2.44,1.503,4.905,1.942,7.47c0.428,2.555,0.589,5.243,0.056,7.916c-0.27,1.322-0.678,2.656-1.349,3.917
							c-0.669,1.242-1.566,2.345-2.596,3.307c-1.558,1.467-3.568,2.6-5.802,2.98c0.958,2.522,1.749,5.3,1.192,8.381
							c-0.19,0.937-0.547,1.859-1.048,2.692c-0.515,0.827-1.167,1.528-1.852,2.118c-1.383,1.182-2.873,1.987-4.28,2.768
							c-5.709,3.113-11.593,5.914-17.713,8.112C813.693,688.083,819.226,684.782,824.648,681.311z"/>
						<path style="fill:#E69A6E;" d="M821.316,608.877c-9.764,1.895-19.52,3.828-29.301,5.628l-29.423,5.509l-0.054-0.282
							c2.375-0.866,4.782-1.559,7.18-2.3c2.393-0.766,4.811-1.406,7.224-2.066c2.415-0.652,4.845-1.226,7.267-1.843l7.301-1.666
							c4.884-1.021,9.766-2.056,14.685-2.895c4.906-0.909,9.84-1.668,14.789-2.352l1.032-0.143l0.631,0.545
							c2.582,2.227,5.108,4.527,7.617,6.848l3.682,3.586c1.241,1.178,2.447,2.401,3.622,3.662l-0.177,0.227L821.316,608.877z"/>
						<path style="fill:#E69A6E;" d="M803.378,637.004c-3.387,0.656-6.797,1.153-10.199,1.698c-3.596,0.454-7.18,0.988-10.796,1.303
							c-3.592,0.43-7.306,0.523-10.654,0.984c-1.679,0.273-3.313,0.649-4.859,1.342c-1.542,0.712-2.944,1.784-4.247,3.066
							l-0.238-0.161c1.015-1.52,2.323-2.857,3.858-3.864c1.535-1.014,3.272-1.676,5.035-2.136c3.551-0.877,7.164-1.211,10.739-1.792
							c7.166-1.079,14.341-2.099,21.523-3.073l0.063-0.009l0.057,0.022c6.662,2.622,13.074,5.871,19.123,9.691l-0.153,0.244
							c-1.701-0.643-3.344-1.354-5.004-2.015l-4.976-1.925l-4.954-1.857"/>
					</g>
				</g>
				<g>
					<path style="fill:#F9CAB1;" d="M831.802,735.549c0,0,73.291,254.846,78.37,303.145c5.078,48.299-9.448,117.166-54.186,121.87
						c-44.738,4.704-58.475-64.948-62.948-107.492c-4.473-42.544-15.656-304.167-15.643-315.769
						C777.408,725.701,824.753,710.825,831.802,735.549z"/>
					<path style="fill:#25232F;" d="M905.16,896.589l-142.952,20.582c0,0,16.682,127.279,29.857,197.06
						c13.174,69.78,141.153,105.287,141.252,15.029C933.4,1054.763,905.16,896.589,905.16,896.589z"/>
				</g>
			</g>
			<g>
				<g>
					<polygon style="fill:#CCC116;" points="637.284,1448.203 149.184,1131.207 473.795,631.816 529.483,657.693 265.184,1113.175 
						735.364,1429.53 					"/>
					<path style="fill:#CCCCCC;" d="M579.582,732.495c-1.336-1.287-1.644-3.373-0.625-5.015
						c4.259-6.876,105.197-168.594,181.602-184.076c14.421-2.923,27.245-0.501,38.114,7.198
						c74.402,52.774,6.454,324.299,3.521,335.833c-0.547,2.154-2.737,3.457-4.891,2.91c-2.152-0.556-3.455-2.743-2.908-4.893
						c0.704-2.77,69.605-277.671-0.376-327.281c-9.11-6.455-19.532-8.378-31.862-5.879
						c-73.028,14.799-175.334,178.771-176.36,180.427c-1.17,1.889-3.65,2.471-5.54,1.302
						C580.009,732.867,579.784,732.69,579.582,732.495z"/>
					<polygon style="fill:#FCEE21;" points="735.248,1429.559 258.867,1117.8 529.367,657.722 918.869,943.624 					"/>
					<path style="fill:#E6E6E6;" d="M595.201,747.541c-1.336-1.287-1.644-3.373-0.625-5.015
						c4.259-6.876,105.197-168.594,181.602-184.076c14.42-2.923,27.244-0.501,38.114,7.198
						c74.411,52.782,6.454,324.299,3.521,335.833c-0.547,2.154-2.737,3.457-4.891,2.91c-2.151-0.555-3.454-2.742-2.908-4.893
						c0.703-2.771,69.593-277.683-0.376-327.281c-9.11-6.455-19.532-8.378-31.862-5.879
						c-73.028,14.799-175.334,178.771-176.36,180.427c-1.17,1.889-3.65,2.471-5.54,1.302
						C595.628,747.913,595.402,747.736,595.201,747.541z"/>
				</g>
				<g>
					<polygon style="fill:#B53640;" points="762.748,1253.192 359.245,1068.41 548.515,655.542 593.405,668.862 444.744,1041.891 
						834.657,1228.184 					"/>
					<path style="fill:#CCCCCC;" d="M639.527,719.711c-1.151-0.822-1.615-2.362-1.03-3.714
						c2.447-5.661,60.584-138.895,116.498-159.081c10.553-3.811,20.497-3.411,29.553,1.186
						c62.003,31.526,40.979,243.921,40.051,252.949c-0.173,1.686-1.68,2.913-3.366,2.74c-1.686-0.18-2.912-1.684-2.738-3.367
						c0.223-2.168,21.589-217.216-36.726-246.848c-7.591-3.855-15.667-4.145-24.69-0.887
						c-53.442,19.296-112.36,154.382-112.95,155.746c-0.672,1.555-2.479,2.271-4.034,1.599
						C639.891,719.944,639.701,719.836,639.527,719.711z"/>
					<polygon style="fill:#F14855;" points="834.573,1228.219 440.493,1046.083 593.321,668.897 918.982,841.201 					"/>
					<path style="fill:#E6E6E6;" d="M652.984,729.322c-1.151-0.822-1.615-2.362-1.03-3.714
						c2.447-5.661,60.584-138.895,116.498-159.081c10.553-3.811,20.497-3.411,29.553,1.186
						c62.01,31.531,40.979,243.921,40.051,252.949c-0.173,1.686-1.68,2.913-3.366,2.74c-1.685-0.18-2.911-1.684-2.738-3.367
						c0.222-2.169,21.579-217.223-36.726-246.848c-7.591-3.855-15.667-4.145-24.69-0.887
						c-53.442,19.296-112.36,154.382-112.95,155.746c-0.672,1.555-2.479,2.271-4.034,1.599
						C653.349,729.555,653.159,729.447,652.984,729.322z"/>
				</g>
			</g>
			<path style="fill:#F9CAB1;" d="M877.998,705.551c3.852-8.454,4.446-38.492-0.401-52.37s-16.404-29.62-21.84-39.435
				c-5.436-9.815-33.246-19.847-42.395-18.863c-9.149,0.985-6.723,15.3,8.973,22.438c15.695,7.139,26.219,65.718,26.373,80.95
				C848.95,722.187,869.255,724.738,877.998,705.551z"/>
			<path style="fill:#F9CAB1;" d="M760.906,656.892c0,0,51.089-11.166,67.94-3.378c16.851,7.788,15.674,14.752,12.007,37.597
				c-3.316,20.654-21.006,24.984-27.83,21.735c-6.824-3.249,0.033-29.377,0.033-29.377L760.906,656.892z"/>
		</g>
	</g>
	<g id="barrow_and_bags">
		<g>
			<path style="fill:#222124;" d="M2511.158,2586.61h-813.35c-4.073,0-7.376-3.302-7.376-7.375v-158.783
				c0-2.677,1.45-5.142,3.788-6.444l69.067-38.454v-188.262c0-4.073,3.302-7.375,7.376-7.375s7.376,3.302,7.376,7.375v192.597
				c0,2.676-1.45,5.142-3.788,6.444l-69.067,38.454v147.073h805.974c4.073,0,7.375,3.302,7.375,7.375
				C2518.533,2583.308,2515.231,2586.61,2511.158,2586.61z"/>
			<path style="fill:#222124;" d="M2318.464,2392.165h-514.943c-4.074,0-7.376-3.302-7.376-7.375c0-4.073,3.302-7.375,7.376-7.375
				h512.02l10.069-9.469h-553.077c-4.074,0-7.376-3.302-7.376-7.375c0-4.073,3.302-7.375,7.376-7.375h571.687
				c3.024,0,5.742,1.846,6.857,4.658c1.114,2.811,0.399,6.018-1.804,8.091l-25.756,24.219
				C2322.149,2391.45,2320.342,2392.165,2318.464,2392.165z"/>
			<circle style="fill:#1A1A1A;" cx="1830.227" cy="2649.833" r="54.503"/>
			<circle style="fill:#1A1A1A;" cx="2016.876" cy="2649.833" r="54.503"/>
			<circle style="fill:#1A1A1A;" cx="2351.703" cy="2649.833" r="54.503"/>
			<circle style="fill:#1A1A1A;" cx="2531.361" cy="2649.833" r="54.503"/>
			<rect x="1814.422" y="2562.321" style="fill:#4E4D50;" width="35.516" height="74.514"/>
			<rect x="1999.118" y="2562.321" style="fill:#4E4D50;" width="35.516" height="74.514"/>
			<rect x="2333.945" y="2563.275" style="fill:#4E4D50;" width="35.516" height="73.56"/>
			<rect x="2513.604" y="2563.275" style="fill:#4E4D50;" width="35.516" height="73.56"/>
		</g>
		<g>
			<g>
				<path style="fill:#222124;" d="M2651.393,2007.781H1915.44c-1.653,0-2.993-1.34-2.993-2.993s1.34-2.993,2.993-2.993h735.953
					c1.653,0,2.993,1.34,2.993,2.993S2653.046,2007.781,2651.393,2007.781z"/>
				<path style="fill:#222124;" d="M2651.393,1956.985H1915.44c-1.653,0-2.993-1.34-2.993-2.993s1.34-2.993,2.993-2.993h735.953
					c1.653,0,2.993,1.34,2.993,2.993S2653.046,1956.985,2651.393,1956.985z"/>
				<path style="fill:#222124;" d="M2651.393,1906.19H1915.44c-1.653,0-2.993-1.34-2.993-2.993c0-1.654,1.34-2.993,2.993-2.993
					h735.953c1.653,0,2.993,1.34,2.993,2.993C2654.385,1904.85,2653.046,1906.19,2651.393,1906.19z"/>
				<path style="fill:#222124;" d="M2651.393,1855.393H1915.44c-1.653,0-2.993-1.34-2.993-2.993c0-1.654,1.34-2.993,2.993-2.993
					h735.953c1.653,0,2.993,1.34,2.993,2.993C2654.385,1854.054,2653.046,1855.393,2651.393,1855.393z"/>
				<path style="fill:#222124;" d="M2651.393,1805.851H1915.44c-1.653,0-2.993-1.34-2.993-2.993s1.34-2.993,2.993-2.993h735.953
					c1.653,0,2.993,1.34,2.993,2.993S2653.046,1805.851,2651.393,1805.851z"/>
				<path style="fill:#222124;" d="M2651.393,1753.802H1915.44c-1.653,0-2.993-1.34-2.993-2.993s1.34-2.993,2.993-2.993h735.953
					c1.653,0,2.993,1.34,2.993,2.993S2653.046,1753.802,2651.393,1753.802z"/>
				<path style="fill:#222124;" d="M2526.317,1703.006H1915.44c-1.653,0-2.993-1.34-2.993-2.993c0-1.654,1.34-2.993,2.993-2.993
					h610.877c1.653,0,2.993,1.34,2.993,2.993C2529.31,1701.666,2527.97,1703.006,2526.317,1703.006z"/>
				<path style="fill:#222124;" d="M2325.82,1652.209h-410.38c-1.653,0-2.993-1.34-2.993-2.993c0-1.653,1.34-2.993,2.993-2.993
					h410.38c1.653,0,2.993,1.34,2.993,2.993C2328.813,1650.87,2327.473,1652.209,2325.82,1652.209z"/>
				<path style="fill:#222124;" d="M2113.83,1601.413h-198.39c-1.653,0-2.993-1.34-2.993-2.993c0-1.653,1.34-2.993,2.993-2.993
					h198.39c1.653,0,2.993,1.34,2.993,2.993C2116.823,1600.073,2115.483,1601.413,2113.83,1601.413z"/>
			</g>
			<path style="fill:#222124;" d="M1577.472,1623.01c-3.847,0-7.285-2.71-8.064-6.627c-0.887-4.458,2.009-8.792,6.467-9.678
				l337.959-67.215c4.458-0.887,8.792,2.008,9.678,6.467c0.887,4.458-2.009,8.792-6.467,9.678l-337.959,67.215
				C1578.545,1622.958,1578.004,1623.01,1577.472,1623.01z"/>
			<path style="fill:#222124;" d="M2651.399,1744.373c-0.667,0-1.345-0.082-2.022-0.253
				c-106.08-26.797-733.697-186.5-740.024-188.109c-4.406-1.121-7.068-5.601-5.947-10.006c1.121-4.406,5.599-7.067,10.007-5.948
				c6.327,1.61,633.93,161.309,739.996,188.103c4.408,1.113,7.078,5.589,5.965,9.996
				C2658.43,1741.887,2655.079,1744.373,2651.399,1744.373z"/>
			<path style="fill:#222124;" d="M2529.437,1858.001c-2.227,0-4.446-0.897-6.069-2.669c-3.072-3.351-2.846-8.557,0.505-11.629
				l81.943-75.118c36.546-33.501,40-36.668,40.04-36.704c3.362-3.058,8.569-2.811,11.627,0.553c3.052,3.357,2.811,8.55-0.534,11.61
				l0,0c-0.219,0.2-17.888,16.398-40.009,36.676l-81.943,75.118C2533.417,1857.287,2531.424,1858.001,2529.437,1858.001z"/>
			<path style="fill:#222124;" d="M2523.802,2194.711c-2.095,0-4.189-0.794-5.794-2.385c-3.229-3.2-3.251-8.411-0.051-11.64
				l125.205-126.305v-315.247c0-4.546,3.685-8.231,8.231-8.231c4.546,0,8.231,3.685,8.231,8.231v318.636
				c0,2.171-0.857,4.254-2.385,5.795l-127.59,128.711C2528.039,2193.898,2525.92,2194.711,2523.802,2194.711z"/>
			<path style="fill:#222124;" d="M2651.393,2066H1915.44c-4.546,0-8.231-3.685-8.231-8.23v-563.255
				c0-4.546,3.686-8.231,8.231-8.231s8.231,3.685,8.231,8.231v555.025h727.721c4.546,0,8.231,3.685,8.231,8.231
				C2659.624,2062.315,2655.939,2066,2651.393,2066z"/>
			<path style="fill:#222124;" d="M1576.644,2190.124c-3.356,0-6.507-2.066-7.729-5.402c-1.564-4.268,0.629-8.996,4.897-10.56
				l338.797-124.122c2.525-0.925,5.341-0.558,7.545,0.981c2.204,1.539,3.517,4.059,3.517,6.747v123.953
				c0,4.546-3.686,8.231-8.231,8.231c-4.546,0-8.231-3.685-8.231-8.231v-112.172l-327.734,120.069
				C1578.541,2189.962,1577.584,2190.124,1576.644,2190.124z"/>
			<path style="fill:#222124;" d="M1492.355,1603.269c-9.933,0-18.894-6.865-21.155-16.962
				c-2.619-11.694,4.738-23.298,16.432-25.918l486.28-108.908c11.692-2.622,23.299,4.738,25.917,16.432
				c2.619,11.695-4.738,23.299-16.432,25.918l-486.279,108.909C1495.521,1603.097,1493.926,1603.269,1492.355,1603.269z"/>
			<path style="fill:#222124;" d="M1766.557,2114.987c-4.649,0-8.418-3.769-8.418-8.418v-527.208c0-4.649,3.769-8.418,8.418-8.418
				c4.649,0,8.418,3.769,8.418,8.418v527.208C1774.975,2111.218,1771.206,2114.987,1766.557,2114.987z"/>
			<path style="fill:#222124;" d="M1663.219,2151.317c-4.649,0-8.418-3.769-8.418-8.418v-537.684c0-4.649,3.769-8.418,8.418-8.418
				s8.418,3.769,8.418,8.418v537.684C1671.637,2147.549,1667.869,2151.317,1663.219,2151.317z"/>
			<path style="fill:#222124;" d="M1848.818,2088.635c-4.649,0-8.418-3.769-8.418-8.418v-518.229c0-4.649,3.769-8.418,8.418-8.418
				s8.418,3.769,8.418,8.418v518.229C1857.236,2084.866,1853.467,2088.635,1848.818,2088.635z"/>
			<path style="fill:#222124;" d="M2076.417,2193.036c-1.951,0-3.901-0.747-5.385-2.24c-2.956-2.974-2.942-7.78,0.031-10.737
				c0.276-0.274,109.021-108.475,126.077-125.446v-431.55c0-4.194,3.399-7.593,7.593-7.593c4.194,0,7.593,3.4,7.593,7.593v434.707
				c0,2.021-0.805,3.957-2.238,5.382c0,0-128.234,127.593-128.319,127.677C2080.287,2192.301,2078.351,2193.036,2076.417,2193.036z"
				/>
			<path style="fill:#222124;" d="M2357.294,2189.255c-1.549,0-3.107-0.503-4.414-1.54c-3.073-2.44-3.588-6.91-1.147-9.984
				l98.726-124.379c2.439-3.073,6.909-3.587,9.983-1.148c3.074,2.44,3.588,6.91,1.148,9.984l-98.726,124.379
				C2361.461,2188.333,2359.387,2189.255,2357.294,2189.255z"/>
			<path style="fill:#222124;" d="M2456.024,2055.543c-3.925,0-7.106-3.182-7.106-7.106v-359.234c0-3.925,3.181-7.106,7.106-7.106
				s7.106,3.182,7.106,7.106v359.234C2463.13,2052.361,2459.949,2055.543,2456.024,2055.543z"/>
			<path style="fill:#222124;" d="M1576.64,1912.486c-3.542,0-6.815-2.305-7.882-5.872c-1.303-4.356,1.171-8.943,5.525-10.246
				l338.797-101.396c4.353-1.302,8.941,1.17,10.245,5.526c1.303,4.355-1.171,8.942-5.525,10.245l-338.797,101.395
				C1578.216,1912.374,1577.421,1912.486,1576.64,1912.486z"/>
			<path style="fill:#222124;" d="M1579.682,2045.748c-3.543,0-6.814-2.305-7.882-5.873c-1.303-4.355,1.171-8.942,5.525-10.245
				l329.769-98.693c4.354-1.304,8.941,1.17,10.245,5.526c1.303,4.355-1.17,8.942-5.525,10.245l-329.769,98.693
				C1581.258,2045.636,1580.463,2045.748,1579.682,2045.748z"/>
			<path style="fill:#222124;" d="M1576.64,1762.423c-3.543,0-6.814-2.305-7.882-5.873c-1.303-4.355,1.171-8.942,5.525-10.245
				l338.797-101.394c4.353-1.303,8.941,1.17,10.245,5.526c1.303,4.355-1.171,8.942-5.525,10.245l-338.797,101.394
				C1578.216,1762.311,1577.421,1762.423,1576.64,1762.423z"/>
			<path style="fill:#222124;" d="M2228.46,2184.282c-1.579,0-3.167-0.524-4.486-1.599c-3.041-2.48-3.497-6.956-1.017-9.997
				l97.356-119.406c2.48-3.041,6.957-3.497,9.998-1.018c3.041,2.48,3.497,6.956,1.017,9.998l-97.356,119.407
				C2232.567,2183.389,2230.522,2184.282,2228.46,2184.282z"/>
			<path style="fill:#222124;" d="M1806.24,2188.83c-2.664,0-5.218-1.504-6.431-4.074c-1.676-3.549-0.157-7.784,3.392-9.459
				l262.547-123.953c3.548-1.676,7.784-0.158,9.459,3.392c1.676,3.549,0.157,7.784-3.392,9.459l-262.547,123.953
				C1808.288,2188.611,1807.256,2188.83,1806.24,2188.83z"/>
		</g>
		<g id="bags">
			<g>
				<g>
					<g>
						<path style="fill:#322E2F;" d="M2530.772,1559.584l-8.002-0.045c0.011-1.656,0.105-166.024-62.838-233.996
							c-17.88-19.303-39.406-29.096-63.974-29.096c-126.854,0-135.106,259.288-135.169,261.906l-8.001-0.247
							c0.292-11.033,8.616-270.253,143.17-270.253c26.777,0,50.221,10.643,69.652,31.636
							C2530.908,1390.012,2530.804,1552.69,2530.772,1559.584z"/>
					</g>
					<g>
						<g>
							<rect x="2186.321" y="1551.872" style="fill:#19A88E;" width="415.537" height="524.467"/>
							<rect x="2186.321" y="1551.872" style="fill:#377E71;" width="103.357" height="524.467"/>
						</g>
					</g>
				</g>
				<g id="bag_1_">
					<g>
						<polygon style="fill:#BDB319;" points="1858.27,2132.17 1681.182,2132.17 1744.861,1510.035 1858.27,1510.035 						"/>
						<polygon style="fill:#FCEE21;" points="1744.861,1510.035 2153.5,1510.035 2241.269,2132.17 1832.632,2132.17 						"/>
					</g>
					<g>
						<path style="fill:#322E2F;" d="M1995.074,1787.318c34.276,0,64.411-13.395,84.855-37.716
							c20.866-24.826,28.995-57.748,22.888-92.704l-22.786-130.451c-0.535-3.063-3.477-5.102-6.512-4.576
							c-3.064,0.534-5.113,3.451-4.578,6.515l22.786,130.451c5.524,31.623-1.729,61.285-20.418,83.521
							c-18.267,21.733-45.342,33.701-76.235,33.701c-65.665,0-128.422-53.457-139.902-119.161l-22.559-129.181
							c-0.531-3.062-3.475-5.107-6.512-4.576c-3.065,0.536-5.114,3.451-4.578,6.515l22.559,129.179
							C1856.458,1729.682,1924.194,1787.318,1995.074,1787.318z"/>
					</g>
				</g>
				<g id="bag_3_">
					<g>
						<polygon style="fill:#B53640;" points="2268.494,2140.733 2160.479,2140.733 2199.32,1761.263 2268.494,1761.263 						"/>
						<polygon style="fill:#F14855;" points="2199.32,1761.263 2448.569,1761.263 2502.104,2140.733 2252.856,2140.733 						"/>
					</g>
					<g>
						<path style="fill:#322E2F;" d="M2351.937,1930.391c20.907,0,39.287-8.17,51.757-23.005
							c12.727-15.143,17.686-35.224,13.961-56.545l-13.898-79.568c-0.326-1.868-2.121-3.112-3.972-2.791
							c-1.869,0.326-3.118,2.105-2.792,3.974l13.898,79.568c3.369,19.288-1.055,37.381-12.454,50.943
							c-11.142,13.256-27.656,20.556-46.499,20.556c-40.052,0-78.331-32.606-85.333-72.682l-13.76-78.794
							c-0.324-1.867-2.12-3.115-3.972-2.791c-1.87,0.327-3.119,2.105-2.793,3.974l13.76,78.793
							C2267.389,1895.236,2308.704,1930.391,2351.937,1930.391z"/>
					</g>
				</g>
			</g>
			<g id="bag_2_">
				<g>
					<rect x="2001.058" y="1864" style="fill:#999999;" width="283.155" height="298.949"/>
					<polygon style="fill:#4D4D4D;" points="2284.212,1864 2001.058,1864 2055.041,1828.248 2230.229,1828.248 					"/>
				</g>
				<path style="fill:#999999;" d="M2059.761,1891.721l-3.321-0.054c0.735-45.331,10.216-87.745,26.696-119.43
					c16.7-32.107,38.842-49.789,62.346-49.789c45.669,0,83.75,67.101,88.579,156.083l-3.317,0.18
					c-2.278-41.975-12.261-80.726-28.111-109.112c-15.782-28.264-36.077-43.829-57.151-43.829c-22.205,0-43.299,17.047-59.399,48
					C2069.835,1805.006,2060.488,1846.895,2059.761,1891.721z"/>
				<path style="fill:#999999;" d="M2063.857,1859.151l-3.132-0.054c0.693-45.331,9.632-87.745,25.17-119.43
					c15.745-32.107,36.621-49.789,58.782-49.789c43.058,0,78.962,67.101,83.515,156.083l-3.127,0.18
					c-2.148-41.975-11.561-80.726-26.504-109.112c-14.879-28.264-34.015-43.829-53.884-43.829c-20.936,0-40.824,17.047-56.003,48
					C2073.355,1772.436,2064.542,1814.325,2063.857,1859.151z"/>
			</g>
			<g id="bag">
				<g>
					<rect x="1716.505" y="1862.191" style="fill:#F14855;" width="283.155" height="298.949"/>
					<polygon style="fill:#B53640;" points="1999.66,1862.191 1716.505,1862.191 1770.488,1826.439 1945.677,1826.439 					"/>
				</g>
				<path style="fill:#F14855;" d="M1775.208,1889.912l-3.321-0.054c0.735-45.331,10.216-87.746,26.696-119.43
					c16.7-32.107,38.842-49.789,62.346-49.789c45.669,0,83.75,67.101,88.579,156.083l-3.317,0.18
					c-2.278-41.975-12.261-80.726-28.111-109.112c-15.782-28.264-36.077-43.829-57.151-43.829c-22.205,0-43.299,17.047-59.399,48
					C1785.283,1803.197,1775.935,1845.086,1775.208,1889.912z"/>
				<path style="fill:#F14855;" d="M1779.304,1857.342l-3.131-0.054c0.693-45.331,9.632-87.745,25.17-119.43
					c15.745-32.107,36.621-49.789,58.782-49.789c43.058,0,78.962,67.101,83.515,156.083l-3.127,0.18
					c-2.148-41.975-11.56-80.726-26.504-109.112c-14.88-28.264-34.015-43.829-53.884-43.829c-20.935,0-40.824,17.047-56.003,48
					C1788.802,1770.627,1779.989,1812.516,1779.304,1857.342z"/>
			</g>
		</g>
		<g>
			<path style="fill:#222124;" d="M2515.972,1861.262c-0.644,0-1.297-0.076-1.951-0.235l-939.699-228.454
				c-3.728-0.906-6.336-4.268-6.286-8.104c0.05-3.836,2.743-7.129,6.494-7.939l1.23-0.264c2.307-0.492,4.588,0.032,6.386,1.268
				l935.764,227.498c4.417,1.073,7.128,5.525,6.053,9.942C2523.049,1858.738,2519.681,1861.262,2515.972,1861.262z"/>
			<path style="fill:#222124;" d="M2523.803,2194.711c-0.013,0-0.027,0-0.04,0l-947.159-4.589c-4.528-0.022-8.189-3.697-8.191-8.225
				l-0.376-616.544c-0.003-4.547,3.68-8.234,8.226-8.236c0.002,0,0.003,0,0.005,0c4.543,0,8.228,3.682,8.231,8.225l0.371,608.358
				l930.702,4.51v-322.671c0-4.546,3.686-8.231,8.231-8.231c4.546,0,8.231,3.685,8.231,8.231v330.942
				c0,2.189-0.873,4.29-2.425,5.834C2528.066,2193.849,2525.978,2194.711,2523.803,2194.711z"/>
			<g>
				<path style="fill:#222124;" d="M2526.317,2134.316h-949.674c-1.653,0-2.993-1.341-2.993-2.993c0-1.654,1.34-2.993,2.993-2.993
					h948.424l124.197-125.646c1.162-1.175,3.057-1.188,4.232-0.024c1.176,1.162,1.187,3.057,0.024,4.233l-125.076,126.535
					C2527.883,2133.996,2527.116,2134.316,2526.317,2134.316z"/>
				<path style="fill:#222124;" d="M2526.317,2083.52h-949.674c-1.653,0-2.993-1.341-2.993-2.993c0-1.654,1.34-2.993,2.993-2.993
					h948.424l124.197-125.646c1.162-1.175,3.057-1.188,4.232-0.024c1.176,1.162,1.187,3.056,0.024,4.233l-125.076,126.535
					C2527.883,2083.199,2527.116,2083.52,2526.317,2083.52z"/>
				<path style="fill:#222124;" d="M2526.317,2032.724h-949.674c-1.653,0-2.993-1.341-2.993-2.993c0-1.653,1.34-2.993,2.993-2.993
					h948.424l124.197-125.645c1.162-1.175,3.057-1.188,4.232-0.024c1.176,1.162,1.187,3.057,0.024,4.233l-125.076,126.534
					C2527.883,2032.403,2527.116,2032.724,2526.317,2032.724z"/>
				<path style="fill:#222124;" d="M2526.317,1981.928h-949.674c-1.653,0-2.993-1.341-2.993-2.993c0-1.654,1.34-2.993,2.993-2.993
					h948.424l124.197-125.646c1.162-1.175,3.057-1.187,4.232-0.024c1.176,1.162,1.187,3.057,0.024,4.233l-125.076,126.535
					C2527.883,1981.608,2527.116,1981.928,2526.317,1981.928z"/>
				<path style="fill:#222124;" d="M2526.317,1880.336h-949.674c-1.653,0-2.993-1.34-2.993-2.993c0-1.653,1.34-2.993,2.993-2.993
					h949.674c1.653,0,2.993,1.34,2.993,2.993C2529.31,1878.996,2527.97,1880.336,2526.317,1880.336z"/>
				<path style="fill:#222124;" d="M2526.317,1931.88h-949.674c-2.066,0-3.741-1.675-3.741-3.742c0-2.066,1.675-3.742,3.741-3.742
					h948.122l123.98-124.183c1.458-1.463,3.828-1.464,5.291-0.004c1.462,1.461,1.464,3.829,0.004,5.292l-125.076,125.281
					C2528.263,1931.485,2527.31,1931.88,2526.317,1931.88z"/>
				<path style="fill:#222124;" d="M2354.646,1829.541h-778.003c-1.653,0-2.993-1.34-2.993-2.993s1.34-2.993,2.993-2.993h778.003
					c1.653,0,2.993,1.34,2.993,2.993S2356.299,1829.541,2354.646,1829.541z"/>
				<path style="fill:#222124;" d="M2179.697,1778.744h-603.054c-1.653,0-2.993-1.34-2.993-2.993s1.34-2.993,2.993-2.993h603.054
					c1.653,0,2.993,1.34,2.993,2.993S2181.35,1778.744,2179.697,1778.744z"/>
				<path style="fill:#222124;" d="M1966.778,1727.948h-390.135c-1.653,0-2.993-1.34-2.993-2.993s1.34-2.993,2.993-2.993h390.135
					c1.653,0,2.993,1.34,2.993,2.993S1968.431,1727.948,1966.778,1727.948z"/>
			</g>
			<path style="fill:#222124;" d="M1740.056,2190.951c-4.546,0-8.231-3.685-8.231-8.231v-517.495c0-4.546,3.685-8.231,8.231-8.231
				c4.546,0,8.231,3.685,8.231,8.231v517.495C1748.287,2187.266,1744.602,2190.951,1740.056,2190.951z"/>
			<path style="fill:#222124;" d="M2076.416,2189.316c-4.194,0-7.593-3.4-7.593-7.594v-424.6c0-4.194,3.399-7.593,7.593-7.593
				c4.194,0,7.593,3.4,7.593,7.593v424.6C2084.009,2185.916,2080.61,2189.316,2076.416,2189.316z"/>
			<path style="fill:#222124;" d="M2354.646,2192.596c-3.925,0-7.106-3.182-7.106-7.106v-359.233c0-3.925,3.181-7.106,7.106-7.106
				c3.925,0,7.106,3.182,7.106,7.106v359.233C2361.752,2189.414,2358.571,2192.596,2354.646,2192.596z"/>
		</g>
	</g>
</g>
</svg>
