<?xml version="1.0" encoding="utf-8"?>
<!-- Generator: Adobe Illustrator 27.5.0, SVG Export Plug-In . SVG Version: 6.00 Build 0)  -->
<svg version="1.1" xmlns="http://www.w3.org/2000/svg" xmlns:xlink="http://www.w3.org/1999/xlink" x="0px" y="0px"
	 viewBox="0 0 500 500" style="enable-background:new 0 0 500 500;" xml:space="preserve">
<g id="BACKGROUND">
	<rect style="fill:#FFFFFF;" width="500" height="500"/>
</g>
<g id="OBJECTS">
	<g>
		<path style="fill:#EEEEEE;" d="M402.361,447.32c0,2.032-23.109,3.68-51.615,3.68c-28.506,0-51.615-1.648-51.615-3.68
			c0-2.032,23.109-3.68,51.615-3.68C379.252,443.64,402.361,445.287,402.361,447.32z"/>
		
			<ellipse transform="matrix(0.7071 -0.7071 0.7071 0.7071 -136.2218 353.1243)" style="fill:#EEEEEE;" cx="358.148" cy="340.996" rx="58.413" ry="58.413"/>
		<g>
			<g>
				<path style="fill:#0062D7;" d="M364.28,297.418c0,0,4.176,15.643,8.634,23.718c0,0,5.749,9.818,16.36,15.626
					c0,0,2.803-1.436,3.456-4.515c0,0-9.428-8.064-12.55-14.23c0,0-7.642-20.358-8.637-25.206
					C366.453,293.923,365.141,295.93,364.28,297.418z"/>
				<g>
					<path style="fill:#FFA285;" d="M400.05,338.745c-1.826,2.906-3.115,3.431-6.247,1.81c-1.987-1.028-4.528-3.793-4.528-3.793
						l2.938-4.126c0,0,0.114-0.129,0.307-0.315c0.452-0.429,1.336-1.163,2.253-1.317c0.792-0.133,1.24,0.622,1.468,1.246
						c0.542,0.091,1.063,0.247,1.495,0.499C399.591,333.825,401.876,335.839,400.05,338.745z"/>
				</g>
				<path style="fill:#FF8470;" d="M393.283,333.98c-0.27,0.35,0.26,1.07,0.85,1.69c0.5,0.53,2.205,1.532,2.325,1.642
					c-0.14-0.07-1.965-0.932-2.655-1.192c-0.85-0.33-1.73-0.58-1.68-0.2c0.05,0.32,0.46,0.81,0.9,1.25
					c0.5,0.51,2.271,1.706,2.331,1.746c-0.12-0.04-2.111-1.116-2.711-1.236c-0.39-0.08-0.71-0.09-0.74,0.11
					c-0.02,0.16,0.09,0.35,0.27,0.53c0.33,0.36,1.718,1.206,1.828,1.276c-0.12-0.03-1.559-0.737-2.029-1.007c0,0-0.03-0.02-0.1-0.05
					c-0.25-0.17-0.44-0.34-0.45-0.53c-0.03-0.58,0.77-0.89,0.77-0.89s-0.75-0.63-0.5-1.36c0.25-0.73,1.5-0.33,1.5-0.33
					s-0.68-0.83-0.38-1.53c0.3-0.7,1.73-0.41,1.73-0.41s-0.14-1,0.79-1.17c0.41-0.08,0.889-0.131,1.219-0.011
					c0.01,0.01,0.233,0.057,0.233,0.057c0.4,0.14,0.952,0.382,0.952,0.382s-0.964-0.038-1.414-0.048c-0.51,0-1.07,0.09-1.13,0.51
					c-0.03,0.21,0.07,0.46,0.23,0.71c0.36,0.57,2.379,1.793,2.639,2.023c-0.26-0.17-2.269-1.233-2.959-1.583
					C394.323,333.95,393.533,333.66,393.283,333.98z"/>
			</g>
			<g>
				<g>
					<g>
						<g>
							<g>
								<g>
									<path style="fill:#CA013E;" d="M402.256,335.286c-0.803-0.68-1.795-1.083-2.754-1.215c0.315,0.332,0.589,0.675,0.879,1.156
										c0.443,0.166,0.863,0.416,1.265,0.756c3.775,3.197,4.279,12.716,4.284,12.812l0.99,0.049
										C406.9,348.434,406.39,338.787,402.256,335.286z"/>
								</g>
								<g>
									<path style="fill:#CA013E;" d="M394.002,339.597c-0.302-0.166-0.606-0.337-0.907-0.517
										c-1.464,4.443-0.867,10.254-0.825,10.637l0.986-0.008C393.245,349.619,392.654,343.884,394.002,339.597z"/>
								</g>
							</g>
						</g>
					</g>
				</g>
				<g>
					<g>
						<path style="fill:#F22D54;" d="M400.712,336.897c-0.028,0.358-0.129,0.751-0.291,1.145c2.717,3.928,3.057,11.327,3.061,11.412
							l0.99,0.049C404.454,349.126,404.028,340.919,400.712,336.897z"/>
						<path style="fill:#F22D54;" d="M392.255,338.548c-0.292-0.197-0.572-0.406-0.839-0.625c-2.419,4.47-1.643,12.016-1.595,12.455
							l0.986-0.008C390.796,350.268,390.032,342.813,392.255,338.548z"/>
					</g>
				</g>
				<g>
					<polygon style="fill:#CA013E;" points="380.372,377.221 382.576,379.31 421.069,377.349 417.725,348.023 415.029,347.474 
						414.478,347.9 381.565,349.128 380.538,373.306 					"/>
					<polygon style="fill:#F22D54;" points="415.029,347.474 381.565,349.128 380.372,377.221 418.229,375.531 					"/>
				</g>
			</g>
			<path style="fill:#22395F;" d="M338.638,285.125c7.672,3.121,17.131,2.424,27.2,0.438c1.305-7.559,0.951-14.697-1.378-22.132
				c-1.397-4.458-4.521-10.124-15.797-8.771c0,0-8.021,1.34-9.164,15.299C338.995,276.083,340.75,276.591,338.638,285.125z"/>
			<g>
				<path style="fill:#FFA285;" d="M371.483,365.163l-0.076,3.95l-0.012,0.683l-0.1,5.254l-0.339,17.597l-3.155,45.025
					c-1.782,0.886-3.401,1.07-4.851,0.573l-3.234-27.834c-1.283-5.596-1.393-18.015-0.554-24.337l-0.528-6.735l-0.311-3.953
					l-0.205-2.613l-0.291-3.723L371.483,365.163z"/>
				<path style="fill:#FF8470;" d="M371.407,369.114l-0.012,0.683l-0.1,5.254c-2.897,1.567-7.538,3.442-12.661,4.289l-0.311-3.953
					l-0.205-2.613L371.407,369.114z"/>
				<g>
					<path style="fill:#F22D54;" d="M362.954,446.358c0.061,0.429,0.116,0.854,0.162,1.275h19.925c0-0.436-0.059-0.865-0.169-1.275
						c-0.331-1.222-1.128-2.288-2.249-2.946c-3.045-1.788-7.54-2.62-7.54-2.62c-1.293-1.215-5.145-3.252-5.145-3.252
						c-3.193,1.293-4.99,0.706-4.99,0.706C362.116,441.074,362.599,443.776,362.954,446.358z"/>
					<g>
						<path style="fill:#CA013E;" d="M376.596,441.756c0,0-1.02-0.403-2.053-0.262c-0.61,0.083-1.115,0.326-1.461,0.531
							c-0.362,0.215-0.768,0.263-1.153,0.129l0,0c0,0,1.149-1.547,3.359-1.545c1.592,0.001,2.706,1.582,2.706,1.582L376.596,441.756
							z"/>
						<path style="fill:#CA013E;" d="M375.307,441.263c-0.444-0.51-1.374-1.382-2.592-1.383c-2.382-0.002-3.62,1.545-3.62,1.545
							c0.414,0.135,0.852,0.086,1.243-0.129c0.373-0.205,1.087-0.518,1.749-0.544c1.391-0.054,1.522,0.249,1.522,0.249l1.007,0.262
							H375.307z"/>
						<path style="fill:#CA013E;" d="M371.819,440.104c0,0-0.887-0.411-2.329-0.211c-0.656,0.09-1.202,0.326-1.575,0.531
							c-0.39,0.215-0.828,0.263-1.242,0.128l0,0c0,0,1.238-1.547,3.62-1.545c1.716,0.001,2.882,1.745,2.882,1.745L371.819,440.104z"
							/>
					</g>
					<path style="fill:#CA013E;" d="M362.954,446.358c0.061,0.429,0.116,0.854,0.162,1.275h19.925c0-0.436-0.059-0.865-0.169-1.275
						H362.954z"/>
				</g>
			</g>
			<g>
				<path style="fill:#FFA285;" d="M351.491,368.851l-0.631,3.979l-0.115,0.721l-0.764,4.829l-0.547,3.458l-15.4,57.925h-4.748
					c0,0,2.388-27.464,2.895-34.013c0.504-6.549,4.913-22.904,4.913-22.904l0.072-8.789l0.057-7.024L351.491,368.851z"/>
				<path style="fill:#FF8470;" d="M350.745,373.551l-0.764,4.829c-3.231,0.363-8.655,0.75-12.816,0.471l0.057-7.024
					L350.745,373.551z"/>
				<g>
					<path style="fill:#F22D54;" d="M319.682,447.634h14.595c0,0,0.164-0.462,0.333-1.275c0.34-1.619,0.703-4.627-0.165-8.111
						c0,0-3.959,0.487-5.091-0.356c0,0-0.956,0.404-3.98,3.013c0,0-5.118,1.142-5.664,5.454
						C319.659,446.755,319.647,447.18,319.682,447.634z"/>
					<g>
						<path style="fill:#CA013E;" d="M323.737,441.526c0,0,0.794-0.439,2.158-0.24c0.62,0.091,1.136,0.326,1.489,0.531
							c0.369,0.215,0.783,0.264,1.175,0.129l0,0c0,0-1.171-1.547-3.423-1.545c-1.622,0.001-2.523,1.746-2.523,1.746L323.737,441.526
							z"/>
						<path style="fill:#CA013E;" d="M325.739,440.624c0,0,0.839-0.411,2.203-0.211c0.621,0.091,1.136,0.326,1.489,0.531
							c0.369,0.215,0.783,0.264,1.175,0.129l0,0c0,0-1.171-1.547-3.423-1.545c-1.622,0.001-2.725,1.745-2.725,1.745L325.739,440.624
							z"/>
						<path style="fill:#CA013E;" d="M327.318,439.615c0,0,0.839-0.41,2.203-0.211c0.62,0.091,1.136,0.326,1.489,0.531
							c0.369,0.215,0.783,0.264,1.175,0.129l0,0c0,0-1.171-1.547-3.423-1.545c-1.622,0.001-2.725,1.745-2.725,1.745L327.318,439.615
							z"/>
					</g>
					<path style="fill:#CA013E;" d="M319.682,447.634h14.595c0,0,0.164-0.462,0.333-1.275h-14.9
						C319.659,446.755,319.647,447.18,319.682,447.634z"/>
				</g>
			</g>
			<g>
				<g>
					<path style="fill:#0080FF;" d="M371.19,352.96l0.08,0.33c-7.3,4.94-34.61,1.57-34.61,1.57c0.04-0.58,0.1-1.18,0.18-1.8
						c0.09-0.69,0.19-1.4,0.32-2.14c0.32-1.99,0.77-4.14,1.26-6.35c0.16-0.7,0.32-1.41,0.49-2.12c0.5-2.11,1.02-4.25,1.52-6.33
						c0.17-0.72,0.34-1.43,0.5-2.13c0.23-0.98,0.44-1.94,0.65-2.87c0.06-0.29,0.13-0.59,0.19-0.87c0.07-0.34,0.14-0.67,0.2-1
						c0.12-0.57,0.22-1.13,0.32-1.67c0.13-0.73,0.24-1.43,0.33-2.09c0-0.03,0.01-0.05,0.01-0.08c0.05-0.31,0.09-0.62,0.13-0.92
						c0.04-0.39,0.07-0.76,0.09-1.12c-0.24-0.89-0.47-1.77-0.69-2.63c-0.09-0.34-0.17-0.67-0.25-1c-0.1-0.36-0.18-0.72-0.27-1.07
						c-0.19-0.78-0.38-1.54-0.55-2.29c-0.03-0.13-0.06-0.27-0.09-0.4c-0.08-0.34-0.16-0.67-0.23-1c-0.3-1.29-0.58-2.55-0.83-3.76
						c-0.07-0.34-0.14-0.67-0.21-1c-0.04-0.22-0.09-0.44-0.13-0.66c-0.15-0.78-0.3-1.54-0.44-2.28c-0.05-0.27-0.1-0.55-0.16-0.81
						c-0.06-0.34-0.12-0.67-0.17-1c-0.25-1.33-0.46-2.59-0.64-3.76c-0.06-0.34-0.11-0.68-0.16-1c-0.02-0.08-0.03-0.15-0.04-0.23
						c-0.12-0.8-0.24-1.54-0.34-2.24c-0.06-0.45-0.12-0.88-0.18-1.29c-0.03-0.29-0.07-0.56-0.1-0.82c-0.01-0.06-0.02-0.12-0.02-0.18
						c-0.24-1.82-0.37-3.1-0.43-3.75c-0.03-0.33-0.04-0.5-0.04-0.5c0.06-0.06,0.13-0.1,0.2-0.15c0.17-0.12,0.36-0.24,0.56-0.35
						c0.8-0.46,1.85-0.89,3-1.29c1.52-0.52,3.2-0.97,4.68-1.33c2.27-0.55,4.06-0.87,4.06-0.87c6.62,1.39,9.16,0.53,9.16,0.53
						l2.72,0.95l2.85,1.01l0.1,0.03l2.75,0.97l1.65,0.58l1.19,0.42l1.74,0.61l-0.68,3.14l-0.22,1l-0.24,1.11l-0.49,2.3l-0.08,0.35
						l-0.21,1l-0.82,3.76l-0.22,1l-0.17,0.8l-0.5,2.29l-0.14,0.66l-0.22,1l-0.81,3.76l-0.22,1l-0.1,0.46l-0.49,2.27l-0.22,1.03
						l-0.22,1l-0.8,3.68l0.02,0.07l0.23,1v0.02l0.48,2.11l0.37,1.63l0.23,1l0.17,0.74l0.69,3.04l0.48,2.11l1.45,6.35l0.48,2.09
						l1.42,6.28L371.19,352.96z"/>
					<g>
						<g>
							<path style="fill:#0062D7;" d="M369.8,292.2h-32.88c-0.03-0.33-0.04-0.5-0.04-0.5c0.06-0.06,0.13-0.1,0.2-0.15
								c0.17-0.12,0.36-0.24,0.56-0.35h29.32l1.65,0.58L369.8,292.2z"/>
						</g>
						<g>
							<path style="fill:#0062D7;" d="M370.86,295.95l-0.22,1h-33.17c-0.03-0.29-0.07-0.56-0.1-0.82c-0.01-0.06-0.02-0.12-0.02-0.18
								H370.86z"/>
						</g>
						<g>
							<path style="fill:#0062D7;" d="M369.83,300.71l-0.21,1h-31.43c-0.06-0.34-0.11-0.68-0.16-1H369.83z"/>
						</g>
						<g>
							<path style="fill:#0062D7;" d="M368.8,305.47l-0.22,1H339c-0.06-0.34-0.12-0.67-0.17-1H368.8z"/>
						</g>
						<g>
							<path style="fill:#0062D7;" d="M367.77,310.22l-0.22,1h-27.61c-0.07-0.34-0.14-0.67-0.21-1H367.77z"/>
						</g>
						<g>
							<path style="fill:#0062D7;" d="M366.74,314.98l-0.22,1H341c-0.08-0.34-0.16-0.67-0.23-1H366.74z"/>
						</g>
						<g>
							<path style="fill:#0062D7;" d="M365.71,319.74l-0.22,1h-23.33c-0.09-0.34-0.17-0.67-0.25-1H365.71z"/>
						</g>
						<g>
							<path style="fill:#0062D7;" d="M364.94,325.49h-22.32c0-0.03,0.01-0.05,0.01-0.08c0.05-0.31,0.09-0.62,0.13-0.92h21.95
								L364.94,325.49z"/>
						</g>
						<g>
							<path style="fill:#0062D7;" d="M366.02,330.25h-24.25c0.07-0.34,0.14-0.67,0.2-1h23.82L366.02,330.25z"/>
						</g>
					</g>
					<path style="fill:#FFA285;" d="M361.26,289.195c-0.618,4.182-2.28,10.436-6.722,10.916c-5.258,0.569-8.19-7.848-9.217-11.529
						c2.268-0.55,4.061-0.875,4.061-0.875c6.622,1.388,9.154,0.533,9.154,0.533L361.26,289.195z"/>
				</g>
				<path style="fill:#F22D54;" d="M374.216,370.958c-11.729,7.341-29.473,6.621-39.761,1.791l0.312-2.543l0.267-2.16l0.787-6.4
					l0.267-2.158l0.57-4.633l8.863-0.4l23.942-1.086l1.806-0.082l0.993,5.957l0.357,2.135l1.04,6.232l0.357,2.146L374.216,370.958z"
					/>
				<g>
					<path style="fill:#22395F;" d="M374.216,370.958c-11.729,7.341-29.473,6.621-39.762,1.791l0.312-2.543l0.088-0.722l0.178-1.438
						l0.787-6.4l0.267-2.158l0.57-4.633c0.045-0.574,0.107-1.172,0.187-1.791c0.084-0.692,0.191-1.406,0.312-2.146
						c0.331-1.991,0.774-4.138,1.271-6.35c0.159-0.696,0.32-1.404,0.486-2.113c0.494-2.111,1.019-4.252,1.516-6.337
						c0.172-0.716,0.342-1.425,0.503-2.126c0.228-0.978,0.445-1.937,0.649-2.868c4.568,1.034,14.878,2.732,24.61-0.135l0.694,3.044
						l0.479,2.111l1.443,6.344l0.479,2.096l1.43,6.275l0.477,2.098l0.075,0.331l0.993,5.957l0.357,2.135l1.04,6.232l0.026,0.153
						l0.331,1.993L374.216,370.958z"/>
					<path style="fill:#121646;" d="M374.216,370.958c-11.729,7.341-29.473,6.621-39.762,1.791l0.312-2.543l0.088-0.722
						c2.793,1.208,9.216,3.36,19.481,3.283c9.71-0.073,16.196-3.087,19.348-5.002l0.331,1.993L374.216,370.958z"/>
				</g>
			</g>
			<g>
				<g>
					<path style="fill:#FFA285;" d="M348.802,288.98c3.201,1.444,6.344,1.327,9.432-0.347c-0.435-2.864-0.137-5.094,0.43-7.091
						c-0.75-0.805-2.286-2.301-4.12-3.251c-0.8-0.293-1.647-0.581-2.488-0.825c-1.413-0.181-2.872,0.178-4.201,1.515
						c0.365,1.234,0.662,2.41,0.85,3.721C348.952,284.422,349.015,286.37,348.802,288.98z"/>
					<path style="fill:#FF8470;" d="M347.855,278.981c0.365,1.234,0.662,2.41,0.85,3.721c1.572,2.374,4.52,5.393,9.528,5.931
						c-0.435-2.864-0.137-5.094,0.43-7.091c-0.75-0.805-2.286-2.301-4.12-3.251c-0.8-0.293-1.647-0.581-2.488-0.825
						C350.643,277.285,349.184,277.644,347.855,278.981z"/>
				</g>
				<g>
					<path style="fill:#FF8470;" d="M364.158,268.848c0,0,2.117-2.099,3.454-0.343c1.337,1.757,0.109,8.419-3.863,7.941
						C363.75,276.446,363.076,272.589,364.158,268.848z"/>
					<path style="fill:#FFA285;" d="M344.788,264.968l-0.001,0.027c0,0,0.003-0.01,0.012-0.03
						C344.791,264.966,344.788,264.968,344.788,264.968z"/>
					<path style="fill:#FFA285;" d="M345.889,274.582c0.091,0.303,0.186,0.604,0.288,0.898c0.028,0.08,0.055,0.159,0.083,0.239
						c0.105,0.294,0.214,0.585,0.329,0.872c2.311,5.773,6.699,9.641,12.588,7.872c7.695-2.312,7.302-17.107,7.262-18.21
						c0.014-0.003,0.01-0.112-0.002-0.262c-0.076-0.893-0.318-1.764-0.722-2.564c-1.099-2.175-3.796-5.781-9.642-5.908
						c-8.085-0.176-10.624,3.457-11.203,6.031c-0.005,0.022-0.081,1.444-0.081,1.444
						C344.606,268.257,344.996,271.594,345.889,274.582z"/>
					<path style="fill:#FFA285;" d="M346.767,268.086c0,0-3.036-1.668-4.103,0.264c-1.067,1.932,1.116,8.345,4.976,7.295
						C347.64,275.645,348.382,271.629,346.767,268.086z"/>
					<path style="fill:#FF8470;" d="M346.259,275.719c0.105,0.294,0.214,0.585,0.329,0.872c0.553-0.006,1.302-0.238,1.813-1.271
						C348.401,275.32,347.136,275.991,346.259,275.719z"/>
				</g>
				<path style="fill:#22395F;" d="M364.984,266.018c1.067,2.667,0.058,5.456,0.854,6.89c0.796,1.434,2.744-8.149,0.909-12.13
					c-3.204-6.951-13.483-10.009-19.417-5.213c-5.933,4.796-3.603,11.858-3.603,11.858s1.491,0.462,1.997,2.242
					c0.507,1.78,1.894,2.848,2.818,2.848c1.245,0,3.362-0.592,5.933-2.131c0,0,4.162-2.755,7.4-5.834
					c0.942-0.895,2.486-0.483,2.861,0.762C364.805,265.541,364.887,265.777,364.984,266.018z"/>
			</g>
			<g>
				<g>
					<g>
						<g>
							<path style="fill:#FFA285;" d="M321.665,337.793c0,0,3.264,0.983,3.03,2.757c-0.234,1.774-2.086,3.882-2.086,3.882
								s1.161,2.984-0.134,3.729c-1.318,0.757-1.12-0.153-2.192,0.654c-1.073,0.807-1.87,0.662-3.061-0.036
								c-1.191-0.697-1.845-0.06-2.035-0.925c-0.803-3.655,1.206-9.648,1.206-9.648S320.454,337.294,321.665,337.793z"/>
						</g>
					</g>
				</g>
				<path style="fill:#0062D7;" d="M336.877,291.698c0,0-12.635,15.202-16.983,23.337c0,0-4.404,11.108-3.501,23.171
					c0,0,2.026,0.628,4.964-0.5c0,0,1.634-12.298,5.108-18.273c0,0,8.032-11.6,12.28-14.41
					C340.156,300.169,338.422,293.923,336.877,291.698z"/>
				<g>
					<g>
						<g>
							<g>
								<path style="fill:#CA013E;" d="M317.907,349.48c-0.03-0.098-0.068-0.257-0.107-0.394c-0.375-0.191-0.655-0.368-0.944-0.489
									c0.113,0.53,0.162,0.757,0.254,1.054c0.073,0.241,0.128,0.387,0.139,0.418c0.077,0.209,0.307,0.314,0.517,0.239
									c0.002-0.001,0.004-0.001,0.004-0.001c0.211-0.078,0.318-0.31,0.24-0.521C318.008,349.78,317.968,349.67,317.907,349.48z"/>
							</g>
						</g>
						<g>
							<g>
								<path style="fill:#CA013E;" d="M329.345,347.655c0.073,0.21-0.038,0.438-0.247,0.513c0,0-0.002,0.001-0.004,0.001
									c-0.21,0.073-0.442-0.038-0.514-0.251c-0.004-0.012-0.059-0.165-0.162-0.421c-0.031-0.074-0.066-0.16-0.104-0.254
									c-0.596-1.408-2.953-5.065-5.333-6.369c0.087-0.246,0.191-0.543,0.266-0.824c1.073,0.548,2.86,1.938,3.807,3.246
									c1.043,1.44,1.737,2.963,2.067,3.775c0.029,0.068,0.054,0.134,0.077,0.191C329.288,347.492,329.337,347.634,329.345,347.655
									z"/>
							</g>
						</g>
					</g>
					<g>
						<g>
							<polygon style="fill:#F22D54;" points="319.273,381.585 337.161,380.481 344.1,374.329 331.545,346.55 330.475,346.874 
								327.825,347.676 312.151,352.423 							"/>
						</g>
					</g>
					<g>
						<g>
							<g>
								<g>
									<path style="fill:#CA013E;" d="M329.197,348.745l7.964,31.735l6.939-6.152l-12.554-27.779l-1.071,0.325
										C329.885,347.403,329.393,348.032,329.197,348.745z"/>
								</g>
							</g>
						</g>
					</g>
					<g>
						<g>
							<polygon style="fill:#CA013E;" points="331.545,346.549 331.084,349.745 329.196,348.746 312.15,352.423 312.926,351.431 
								313.802,350.361 							"/>
						</g>
					</g>
					<g>
						<g>
							<g>
								<path style="fill:#F22D54;" d="M315.236,351.757c-0.021-0.078-0.045-0.161-0.065-0.25c-0.098-0.389-0.202-0.862-0.284-1.379
									c-0.23-1.461-0.375-3.132,0.11-4.251c0.018-0.556,0.037-1.106,0.081-1.574c-0.105,0.089-0.279,0.341-0.402,0.548
									c-0.99,1.663-0.853,3.813-0.589,5.449c0.088,0.546,0.199,1.038,0.303,1.444c0.016,0.064,0.032,0.126,0.048,0.184
									c0.156,0.576,0.29,0.946,0.309,0.998c0.077,0.209,0.308,0.316,0.515,0.242l0.006-0.002c0.209-0.077,0.318-0.31,0.238-0.52
									C315.502,352.635,315.38,352.301,315.236,351.757z"/>
							</g>
						</g>
						<g>
							<g>
								<path style="fill:#F22D54;" d="M327.943,350.307c0.073,0.21-0.038,0.438-0.245,0.512l-0.006,0.002
									c-0.21,0.073-0.44-0.039-0.514-0.251c-0.008-0.022-0.187-0.528-0.527-1.277c-0.15-0.327-0.329-0.698-0.537-1.098
									c-0.074-0.14-0.142-0.288-0.232-0.429c-0.955-1.491-2.408-2.956-2.986-3.684c0.207-0.27,0.305-0.403,0.499-0.676
									c0.485,0.467,1.227,1.382,1.852,2.11c0.556,0.647,1.117,1.418,1.469,2.07c0.068,0.124,0.132,0.246,0.194,0.366
									c0.219,0.429,0.404,0.824,0.555,1.164C327.767,349.804,327.928,350.264,327.943,350.307z"/>
							</g>
						</g>
					</g>
				</g>
				<g>
					<g>
						<g>
							<g>
								<path style="fill:#ED6600;" d="M315.653,348.354c-0.033,0.577-0.027,1.053-0.018,1.348c0.009,0.2,0.019,0.317,0.019,0.323
									c0.02,0.224-0.145,0.42-0.368,0.44c0,0-0.002,0-0.004,0c-0.222,0.017-0.416-0.145-0.436-0.367
									c-0.003-0.033-0.017-0.189-0.024-0.44c-0.022-0.595-0.019-1.721,0.204-2.959c0.03,0.402,0.081,0.791,0.161,1.155
									C315.263,348.205,315.418,348.309,315.653,348.354z"/>
							</g>
						</g>
						<g>
							<g>
								<g>
									<path style="fill:#ED6600;" d="M327.15,350.944c0.015,0.222-0.152,0.413-0.373,0.43c0,0-0.002,0-0.004,0
										c-0.222,0.015-0.417-0.153-0.43-0.377c-0.001-0.012-0.014-0.174-0.046-0.449c-0.01-0.08-0.022-0.172-0.034-0.272
										c-0.205-1.514-1.52-5.662-3.475-7.546c0.148-0.214,0.327-0.474,0.473-0.725c0.892,0.81,2.251,2.62,2.822,4.131
										c0.628,1.663,0.898,3.315,1.004,4.185c0.01,0.074,0.017,0.143,0.024,0.205C327.139,350.771,327.148,350.921,327.15,350.944
										z"/>
								</g>
							</g>
						</g>
					</g>
					<g>
						<g>
							<g>
								<g>
									<polygon style="fill:#FF9106;" points="308.526,381.04 326.076,384.67 334.387,380.556 329.564,350.455 328.445,350.487 
										325.678,350.565 309.308,351.032 									"/>
								</g>
							</g>
						</g>
					</g>
					<g>
						<g>
							<path style="fill:#ED6600;" d="M326.721,351.957l-0.645,32.713l8.311-4.115l-4.823-30.1l-1.119,0.032
								C327.738,350.843,327.098,351.32,326.721,351.957z"/>
						</g>
					</g>
					<g>
						<g>
							<polygon style="fill:#ED6600;" points="329.564,350.454 328.28,353.417 326.721,351.957 309.307,351.031 310.316,350.278 
								311.442,349.475 							"/>
						</g>
					</g>
					<g>
						<g>
							<g>
								<path style="fill:#FF9106;" d="M315.219,343.16c-0.048,0.334-0.092,0.674-0.127,1.016c-0.288,0.196-0.555,0.43-0.796,0.701
									c-1.132,1.268-1.578,3.135-1.746,4.658c-0.056,0.521-0.08,1.004-0.088,1.405c-0.003,0.091-0.003,0.178-0.003,0.258
									c-0.003,0.562,0.026,0.917,0.027,0.929c0.022,0.224-0.145,0.42-0.366,0.44l-0.006,0.001
									c-0.22,0.017-0.414-0.147-0.434-0.369c-0.004-0.055-0.037-0.447-0.036-1.044c-0.001-0.06,0-0.124,0.001-0.19
									c0.007-0.42,0.029-0.924,0.087-1.473c0.174-1.647,0.668-3.708,1.955-5.154C314.134,343.838,314.645,343.447,315.219,343.16z
									"/>
							</g>
						</g>
						<g>
							<g>
								<g>
									<g>
										<path style="fill:#FF9106;" d="M325.102,353.135c0.015,0.222-0.152,0.413-0.371,0.43l-0.006,0
											c-0.222,0.015-0.415-0.153-0.43-0.377c-0.002-0.023-0.042-0.559-0.174-1.37c-0.059-0.355-0.134-0.76-0.23-1.201
											c-0.035-0.154-0.072-0.313-0.112-0.475c-0.199-0.804-0.469-1.688-0.835-2.541c0.194-0.472,0.165-1.106,0.066-1.68
											c0.345,0.578,0.652,1.23,0.926,1.952c0.302,0.798,0.528,1.594,0.696,2.317c0.033,0.138,0.063,0.272,0.092,0.404
											c0.099,0.471,0.174,0.901,0.23,1.269C325.064,352.603,325.098,353.09,325.102,353.135z"/>
									</g>
								</g>
							</g>
						</g>
					</g>
				</g>
			</g>
		</g>
	</g>
	<g>
		
			<ellipse transform="matrix(0.2356 -0.9718 0.9718 0.2356 -11.8127 233.4679)" style="fill:#EEEEEE;" cx="142.513" cy="124.243" rx="58.413" ry="58.413"/>
		<path style="fill:#EEEEEE;" d="M194.128,231.616c0,2.032-23.109,3.68-51.615,3.68c-28.506,0-51.615-1.648-51.615-3.68
			c0-2.033,23.109-3.68,51.615-3.68C171.019,227.936,194.128,229.584,194.128,231.616z"/>
		<g>
			<g>
				<polygon style="fill:#CA013E;" points="161.685,72.331 177.984,92.504 168.252,92.504 162.002,85.04 				"/>
				<g>
					<g>
						<polygon style="fill:#0062D7;" points="194.121,121.164 139.245,121.164 141.92,92.504 196.796,92.504 						"/>
						<polygon style="fill:#0080FF;" points="190.081,121.164 135.206,121.164 137.88,92.504 192.756,92.504 						"/>
						<polygon style="fill:#0062D7;" points="197.736,97.359 135.206,97.359 136.34,90.274 198.87,90.274 						"/>
					</g>
					<g>
						<g>
							<g>
								<path style="fill:#FFA285;" d="M175.506,121.275c-0.063,1.214,0.469,1.783,0.855,1.968c0.752,0.359,2.182,1.05,3.882,0.998
									c4.128-0.126,5.282-2.88,5.282-2.88s0.498-5.323-1.026-6.892c-1.146-1.18-1.226,5.729-1.226,5.729s-0.035-4.56-1.192-6.189
									c-1.156-1.629-1.946,5.688-1.946,5.688s0.084-5.511-1.038-5.456c-0.676,0.034-1.522,5.296-1.522,5.296
									s-0.7-3.614-1.072-3.325c-0.729,0.565-0.918,3.085-0.918,3.085S175.585,119.732,175.506,121.275z"/>
							</g>
							<g>
								<path style="fill:#FFA285;" d="M188.157,121.188c-1.637-0.102-3.078-0.282-4.406,0.66l0.282,1.011
									c0,0,2.488,0.281,3.718-0.759C187.946,121.936,188.376,121.271,188.157,121.188z"/>
							</g>
						</g>
					</g>
				</g>
			</g>
			<g>
				<path style="fill:#FFA285;" d="M123.503,217.998v5.262c1.234,0.512,2.597,0.621,4.08,0.355l1.242-5.085
					C128.825,218.53,125.513,216.815,123.503,217.998z"/>
				<path style="fill:#FFA285;" d="M159.068,218.707l-0.759,5.328l-3.947,0.343l-0.615-5.139
					C153.746,219.24,157.058,217.525,159.068,218.707z"/>
				<path style="fill:#22395F;" d="M128.362,131.759l-5.41,86.649l6.347,1.058l14.287-76.499c0,0,2.267-0.178,3.295,0l6.467,77.338
					l6.034-1.047c0,0,5.047-58.571,2.411-88.444L128.362,131.759z"/>
				
					<line style="fill:none;stroke:#476796;stroke-width:0.75;stroke-linecap:round;stroke-linejoin:round;stroke-miterlimit:10;" x1="140.893" y1="142.9" x2="127.982" y2="217.582"/>
				
					<line style="fill:none;stroke:#476796;stroke-width:0.75;stroke-linecap:round;stroke-linejoin:round;stroke-miterlimit:10;" x1="149.103" y1="142.471" x2="155.257" y2="218.011"/>
				<polygon style="fill:#476796;" points="122.75,215.167 122.375,218.542 129.625,219.917 130.333,216.333 				"/>
				<polygon style="fill:#476796;" points="159.964,215.859 159.964,219.291 152.714,220.666 152.373,217.027 				"/>
				<g>
					<path style="fill:#FF9106;" d="M127.922,230.296c-0.06,0.428-0.115,0.851-0.161,1.272h-19.868c0-0.435,0.059-0.862,0.169-1.272
						c0.33-1.219,1.124-2.281,2.242-2.937c3.037-1.783,7.519-2.613,7.519-2.613c1.29-1.212,5.13-3.242,5.13-3.242
						c3.184,1.289,4.976,0.704,4.976,0.704C128.757,225.026,128.276,227.72,127.922,230.296z"/>
					<g>
						<g>
							<path style="fill:#ED6600;" d="M114.325,225.712c0,0,1.02-0.403,2.053-0.262c0.61,0.083,1.115,0.326,1.461,0.531
								c0.362,0.215,0.768,0.264,1.153,0.129l0,0c0,0-1.149-1.547-3.359-1.545c-1.592,0.001-2.706,1.582-2.706,1.582
								L114.325,225.712z"/>
							<path style="fill:#ED6600;" d="M115.613,225.219c0.444-0.51,1.374-1.382,2.592-1.383c2.382-0.002,3.62,1.545,3.62,1.545
								c-0.414,0.135-0.852,0.086-1.243-0.128c-0.373-0.205-1.087-0.518-1.749-0.544c-1.391-0.055-1.522,0.248-1.522,0.248
								l-1.007,0.262H115.613z"/>
							<path style="fill:#ED6600;" d="M119.101,224.061c0,0,0.887-0.411,2.329-0.211c0.656,0.09,1.202,0.326,1.575,0.531
								c0.39,0.215,0.828,0.264,1.242,0.128l0,0c0,0-1.238-1.547-3.62-1.545c-1.716,0.001-2.882,1.745-2.882,1.745L119.101,224.061z
								"/>
						</g>
					</g>
					<path style="fill:#ED6600;" d="M127.922,230.296c-0.06,0.428-0.115,0.851-0.161,1.272h-19.868c0-0.435,0.059-0.862,0.169-1.272
						H127.922z"/>
				</g>
				<g>
					<path style="fill:#FF9106;" d="M168.677,231.568h-14.554c0,0-0.163-0.461-0.332-1.272c-0.339-1.614-0.701-4.614,0.165-8.089
						c0,0,3.535,0.486,4.663-0.355c0,0,1.366,0.403,4.381,3.005c0,0,5.103,1.139,5.648,5.439
						C168.7,230.691,168.712,231.115,168.677,231.568z"/>
					<g>
						<g>
							<path style="fill:#ED6600;" d="M165.278,225.775c0,0-0.892-0.443-2.256-0.243c-0.62,0.091-1.136,0.326-1.489,0.531
								c-0.369,0.215-0.783,0.264-1.175,0.129l0,0c0,0,1.171-1.547,3.423-1.545c1.622,0.001,2.523,1.745,2.523,1.745
								L165.278,225.775z"/>
							<path style="fill:#ED6600;" d="M163.178,224.87c0,0-0.839-0.41-2.203-0.211c-0.621,0.091-1.136,0.326-1.489,0.531
								c-0.369,0.215-0.783,0.264-1.175,0.128l0,0c0,0,1.171-1.547,3.423-1.545c1.622,0.001,2.725,1.745,2.725,1.745L163.178,224.87
								z"/>
							<path style="fill:#ED6600;" d="M161.599,223.861c0,0-0.839-0.41-2.203-0.211c-0.62,0.091-1.136,0.326-1.489,0.531
								c-0.369,0.215-0.783,0.264-1.175,0.129l0,0c0,0,1.171-1.547,3.423-1.545c1.622,0.001,2.725,1.745,2.725,1.745
								L161.599,223.861z"/>
						</g>
					</g>
					<path style="fill:#ED6600;" d="M168.677,231.568h-14.554c0,0-0.163-0.461-0.332-1.272h14.857
						C168.7,230.691,168.712,231.115,168.677,231.568z"/>
				</g>
			</g>
			<g>
				<g>
					<g>
						<path style="fill:#F22D54;" d="M162.22,133.36c0,0-4.23,0.52-9.77,0.84c-3.72,0.22-8.03,0.34-12.03,0.15
							c-4.9-0.23-9.56,0.01-11.89-1.56l-0.23-11.6l-0.02-1.31l-0.05-2.55l-0.24-12.16l-0.01-0.35l0.04-2.46l0.02-1.3l0.05-2.88
							l0.2-12.7l0.03-2.28l0.02-1.33l0.14-8.52l9.95-3.49l2.59-0.92c0,0,1.3,1.61,7.71,0.27c0,0,1.4,0.21,1.52,0.22
							c1.37,0.07,8.92,0.92,11.44,2.9c0,0,0.15,3.4,0.26,8.44c0,0.36,0.01,0.72,0.01,1.09c0.02,0.59,0.03,1.2,0.04,1.82
							c0.04,3.83,0.05,8.29-0.05,12.79c-0.03,0.99-0.05,1.98-0.09,2.97c-0.01,0.36-0.02,0.72-0.04,1.08
							c-0.03,0.84-0.07,1.68-0.12,2.52c-0.09,1.94-0.22,3.83-0.38,5.63c0.15,2.24,0.23,4.6,0.29,7.04c0.03,0.98,0.05,1.96,0.06,2.96
							c0.01,0.36,0.02,0.73,0.02,1.09C161.77,124.17,161.86,128.77,162.22,133.36z"/>
					</g>
				</g>
			</g>
			<g>
				<g>
					<g>
						<g>
							<path style="fill:#CA013E;" d="M161.86,99.44c-0.01,0.36-0.02,0.72-0.04,1.08c-3.55-0.85-6.05,0.63-8.49,2.06
								c-1.79,1.06-3.48,2.06-5.48,2.08h-0.09c-2.46,0-4.03-1.33-5.56-2.63c-1.66-1.41-3.38-2.86-6.4-2.86
								c-2.72,0-5.95,1.93-7.78,3.19l0.02-1.3c2-1.31,5.05-2.96,7.76-2.96c3.41,0,5.36,1.66,7.09,3.12c1.5,1.27,2.81,2.38,4.87,2.38
								h0.08c1.71-0.02,3.28-0.95,4.95-1.94C155.26,100.21,158.01,98.6,161.86,99.44z"/>
						</g>
					</g>
				</g>
				<g>
					<g>
						<g>
							<path style="fill:#CA013E;" d="M161.96,81.86c-3.62-0.92-6.17,0.58-8.63,2.04c-1.79,1.05-3.48,2.05-5.48,2.08h-0.1
								c-2.43,0-4.21-1.24-6.09-2.56c-2-1.38-4.07-2.82-7.12-2.82c-2.36,0-4.7,1.43-6.22,2.6l0.02-1.33
								c1.62-1.15,3.87-2.34,6.2-2.34c3.38,0,5.69,1.61,7.73,3.02c1.76,1.23,3.42,2.39,5.57,2.36c1.71-0.02,3.28-0.95,4.95-1.93
								c2.49-1.46,5.26-3.1,9.16-2.21C161.95,81.13,161.96,81.49,161.96,81.86z"/>
						</g>
					</g>
				</g>
				<g>
					<g>
						<g>
							<path style="fill:#CA013E;" d="M161.69,119.76c-3.48-0.78-5.95,0.69-8.36,2.1c-1.79,1.06-3.48,2.06-5.48,2.08h-0.1
								c-2.43,0-4.21-1.24-6.09-2.55c-2-1.39-4.07-2.83-7.12-2.83c-2.37,0-4.72,1.45-6.24,2.63l-0.02-1.31
								c1.63-1.16,3.9-2.38,6.26-2.38c3.38,0,5.69,1.61,7.73,3.02c1.76,1.23,3.42,2.4,5.57,2.36c1.71-0.02,3.28-0.95,4.95-1.94
								c2.42-1.42,5.13-3,8.88-2.27C161.68,119.03,161.69,119.4,161.69,119.76z"/>
						</g>
					</g>
				</g>
				<g>
					<g>
						<path style="fill:#CA013E;" d="M161.95,96.47c-1.68-0.72-3.94-1.32-7.5,0.45c-11.39,5.69-7.97-0.94-17.86-2.29
							c-3.57-0.48-6.66,1.72-8.5,3.55l0.2-12.7c1.43-1.49,3.7-2.29,7.16-1.66c7.57,1.39,9.49,8.44,15.27,4.54
							c3.48-2.35,7.03-6.22,11.28-4.68C162.04,87.51,162.05,91.97,161.95,96.47z"/>
						<path style="fill:#CA013E;" d="M161.32,108.67c0.15,2.24,0.23,4.6,0.29,7.04c-1.67-0.62-3.88-0.95-6.82,0.81
							c-9.29,5.55-9.38-0.92-19.58-1.99c-2.59-0.27-5.18,1.26-6.98,2.8l-0.24-12.16c1.33-1.1,3.33-1.76,5.75-1.76
							c0.82,0,1.69,0.08,2.6,0.24c7.77,1.39,9.07,7.68,14.62,4.3c3.41-2.08,6.74-5.71,10.74-4.91
							C161.61,104.98,161.48,106.87,161.32,108.67z"/>
					</g>
				</g>
			</g>
			<g>
				<g>
					<path style="fill:#FFA285;" d="M140.655,71.098c3.055,1.314,6.029,1.151,8.924-0.485c-0.46-2.704-0.214-4.82,0.289-6.721
						c-0.724-0.749-2.202-2.141-3.955-3.01c-0.762-0.264-1.569-0.522-2.369-0.739c-1.341-0.148-2.716,0.216-3.952,1.504
						c0.366,1.162,0.667,2.271,0.867,3.509C140.721,66.779,140.814,68.623,140.655,71.098z"/>
					<path style="fill:#FF8470;" d="M139.592,61.647c0.366,1.162,0.667,2.271,0.867,3.509c1.528,2.221,4.369,5.03,9.12,5.456
						c-0.46-2.704-0.214-4.82,0.289-6.721c-0.724-0.749-2.202-2.141-3.955-3.01c-0.762-0.264-1.569-0.522-2.369-0.739
						C142.203,59.995,140.827,60.359,139.592,61.647z"/>
				</g>
				<g>
					<path style="fill:#FF8470;" d="M154.859,51.781c0,0,1.969-2.023,3.264-0.382c1.295,1.641,0.243,7.969-3.525,7.583
						C154.598,58.981,153.896,55.34,154.859,51.781z"/>
					<path style="fill:#FFA285;" d="M136.454,48.43l-0.001,0.026c0,0,0.003-0.009,0.011-0.028
						C136.457,48.429,136.454,48.43,136.454,48.43z"/>
					<path style="fill:#FFA285;" d="M137.657,57.514c0.091,0.286,0.186,0.569,0.287,0.846c0.027,0.075,0.055,0.149,0.082,0.225
						c0.104,0.277,0.213,0.551,0.326,0.82c2.284,5.428,6.503,9.017,12.049,7.243c7.247-2.317,6.628-16.318,6.572-17.362
						c0.013-0.004,0.008-0.106-0.007-0.248c-0.087-0.844-0.33-1.665-0.727-2.416c-1.077-2.041-3.69-5.41-9.227-5.432
						c-7.658-0.032-10.001,3.45-10.506,5.897c-0.004,0.021-0.053,1.369-0.053,1.369C136.336,51.547,136.762,54.7,137.657,57.514z"/>
					<path style="fill:#FFA285;" d="M138.38,51.349c0,0-2.902-1.529-3.88,0.319c-0.978,1.847,1.196,7.882,4.833,6.824
						C139.333,58.491,139.968,54.677,138.38,51.349z"/>
					<path style="fill:#FF8470;" d="M138.026,58.584c0.104,0.277,0.213,0.551,0.326,0.82c0.523-0.015,1.229-0.246,1.695-1.233
						C140.047,58.171,138.861,58.828,138.026,58.584z"/>
				</g>
				<path style="fill:#22395F;" d="M140.724,48.546c-0.423,1.334,0.462,3.911-0.117,5.422l-1.255,0.29c0,0-0.005-2.839-2.889-3.524
					c0,0-0.625-4.752,0.705-6.883c4.234-6.786,17.437-7.619,19.615,4.178c0,0-1.49,0.707-2.92-0.549
					c-1.429-1.256-3.657-1.439-4.498-0.915c-0.841,0.524-3.669,2.095-5.225,1.471C142.584,47.414,141.051,47.515,140.724,48.546z"/>
				<path style="fill:#22395F;" d="M156.782,48.03l-0.602-0.145c0,0,0.431,3.016,0.61,5.227c0.099,1.186-0.38,3.599-1.006,5.77
					c-1.793-1.698-3.621,0.125-5.464,0.411c-1.825,0.286-3.674-1.246-5.343-0.515c-1.562,0.686-2.682,0.757-3.301,0.714
					c-0.318-1.144-0.496-2.182-0.484-2.787c0.038-1.956-0.402-4.722-0.402-4.722l-1.435,2.274c0,0,0.787,11.163,1.937,12.855
					c1.15,1.694,2.333,1.312,3.544,4.207c1.21,2.898,7.262,3.049,8.152,1.008c0.889-2.041,1.838-2.318,2.778-4.232
					c0.941-1.914,0.695-4.188,0.748-6.142c0.053-1.956,0.744-5.611,0.824-8.205C157.417,51.156,156.782,48.03,156.782,48.03z
					 M154.12,63.019c-1.034,1.233-1.866,2.214-3.737,1.197c-1.873-1.017-2.847,0.94-5.058,0.944
					c-0.793,0.001-1.554-0.834-2.201-1.999c0.522-0.373,1.023-1.455,3.195-2.157c0.418-0.136,2.398,0.613,3.546,0.535
					c1.604-0.107,1.661-1.023,3.403-0.745c0.872,0.139,1.345,0.493,1.598,0.809C154.598,62.253,154.341,62.756,154.12,63.019z"/>
			</g>
			<g>
				<path style="fill:#0080FF;" d="M154.11,42.62c-4.7,0.53-11.66,3.63-15.33,5.41c-0.33,0.16-0.63,0.3-0.9,0.44
					c-1,0.49-1.59,0.8-1.59,0.8s-1.43-3.48,0-7.19c0.26-0.66,0.6-1.32,1.04-1.94c0.42-0.61,0.92-1.19,1.49-1.71
					c2.14-2,5.31-3.26,9.1-2.57C153.76,36.93,154.11,42.62,154.11,42.62z"/>
				<path style="fill:#0062D7;" d="M140.71,37.03c-0.67,0.39-1.29,0.85-1.84,1.35c-0.04-0.12-0.06-0.25-0.06-0.38
					c0-0.66,0.54-1.19,1.2-1.19C140.27,36.81,140.51,36.89,140.71,37.03z"/>
				<path style="fill:#0062D7;" d="M144.902,39.665L144.902,39.665c-0.867,2.525,1.686,4.873,4.13,3.798l0,0
					c2.186-0.962,2.479-3.945,0.521-5.313l0,0C147.885,36.982,145.564,37.739,144.902,39.665z"/>
				<g>
					<path style="fill:#0062D7;" d="M138.78,48.03c-1.55-3.7-0.46-8.03,0.04-9.6c-0.57,0.52-1.07,1.1-1.49,1.71
						c-0.45,2.2-0.71,5.41,0.55,8.33L138.78,48.03z"/>
				</g>
				<path style="fill:#F22D54;" d="M140.297,47.304c0,0,12.952-9.621,22.714-7.905c7.528,1.324-6.603,6.803-6.603,6.803
					S148.598,45.061,140.297,47.304z"/>
			</g>
			<g>
				<path style="fill:#CA013E;" d="M98.945,124.243c0,0,5.299-15.499,10.554-24.256c5.254-8.757,18.985-26.633,18.985-26.633
					l-0.298,18.669c0,0-9.452,10.033-12,14.81c-2.548,4.777-11.204,19.978-11.204,19.978L98.945,124.243z"/>
				<g>
					<g>
						<g>
							<g>
								<path style="fill:#ED6600;" d="M92.552,130.221c0.907-0.862,2.001-1.374,3.079-1.533c-0.145,0.391-0.354,0.798-0.423,1.213
									c-0.719,0.172-1.382,0.552-2.006,1.147c-2.799,2.659-4.01,8.797-4.501,12.502c-0.232,1.753-0.304,2.963-0.307,2.997
									l-1.071,0.077c0.008-0.153,0.082-1.401,0.317-3.172C88.156,139.57,89.451,133.168,92.552,130.221z"/>
								<path style="fill:#ED6600;" d="M103.31,144.898c-0.003,0.032-0.003,0.061-0.003,0.093c-0.034,0.732-0.077,1.34-0.111,1.766
									c-0.032,0.357-0.056,0.589-0.063,0.661l-0.708,0.005l-0.354,0.003c0.003-0.024,0.037-0.349,0.077-0.896
									c0.024-0.367,0.053-0.833,0.074-1.377c0.005-0.114,0.01-0.232,0.016-0.354c0.013-0.415,0.024-0.867,0.027-1.348
									c0.021-2.574-0.156-5.945-1.002-8.696c0.346-0.225,0.653-0.51,0.92-0.827C103.378,137.516,103.426,142.099,103.31,144.898z"
									/>
							</g>
						</g>
					</g>
					<g>
						<g>
							<polygon style="fill:#ED6600;" points="87.365,143.427 85.384,144.391 83.327,142.918 74.594,180.018 85.848,182.007 							
								"/>
						</g>
					</g>
					<g>
						<g>
							<polygon style="fill:#FF9106;" points="114.076,145.892 114.023,184.932 85.848,182.007 87.365,143.427 							"/>
						</g>
					</g>
					<g>
						<g>
							<path style="fill:#FF9106;" d="M95.243,131.825c0.092,0.375,0.246,0.759,0.455,1.126c-1.805,3.116-2.678,7.924-3.069,10.961
								c-0.217,1.66-0.285,2.791-0.288,2.828l-1.01,0.085c0.008-0.148,0.082-1.322,0.299-3.005
								C92.063,140.487,93.059,135.158,95.243,131.825z"/>
							<path style="fill:#FF9106;" d="M106.426,144.523c-0.008,0.23-0.019,0.452-0.029,0.661c-0.066,1.29-0.159,2.162-0.174,2.315
								l-1.002,0.016c0.003-0.04,0.103-0.988,0.166-2.424v-0.003c0.005-0.135,0.011-0.272,0.016-0.412
								c0.127-3.542-0.013-9.513-2.085-12.656c0.227-0.534,0.375-1.004,0.449-1.279c0.005-0.01,0.008-0.021,0.01-0.032
								c0.032,0.034,0.061,0.074,0.087,0.111c0.003,0,0.003,0.003,0.003,0.003C106.397,134.133,106.574,140.682,106.426,144.523z"/>
						</g>
					</g>
				</g>
				<g>
					<g>
						<g>
							<g>
								<path style="fill:#0062D7;" d="M97.526,145.855c0.172,1.414,0.333,2.334,0.338,2.366l-0.883,0.314
									c-0.024-0.135-0.193-1.102-0.365-2.545c-0.063-0.518-0.127-1.1-0.182-1.726c-0.272-2.947-0.412-6.886,0.254-10.065
									c0.243,0.222,0.513,0.418,0.803,0.581c-0.566,3.008-0.396,6.785-0.127,9.568C97.415,144.893,97.473,145.4,97.526,145.855z"
									/>
								<path style="fill:#0062D7;" d="M110.423,145.768l-0.891,0.246c-0.003-0.019-0.029-0.214-0.079-0.547v-0.003
									c-0.053-0.331-0.129-0.796-0.23-1.359c-0.634-3.471-2.279-10.689-5.355-13.282c0,0,0-0.003-0.003-0.003
									c-0.032-0.026-0.063-0.053-0.098-0.079c0.005-0.01,0.008-0.021,0.01-0.032c0.04-0.145,0.058-0.227,0.058-0.227
									s0.574,0.069,1.152-0.098c3.027,3.243,4.568,10.256,5.152,13.583c0.13,0.735,0.212,1.287,0.254,1.583
									C110.409,145.66,110.417,145.734,110.423,145.768z"/>
							</g>
						</g>
					</g>
					<g>
						<g>
							<polygon style="fill:#0062D7;" points="96.447,146.017 94.752,147.425 92.403,146.484 92.759,184.597 104.163,183.848 
															"/>
						</g>
					</g>
					<g>
						<g>
							<g>
								<g>
									<polygon style="fill:#0080FF;" points="122.975,142.049 132.224,179.977 104.163,183.848 96.447,146.017 									"/>
								</g>
							</g>
						</g>
					</g>
					<g>
						<g>
							<path style="fill:#0080FF;" d="M103.862,148.755l-0.825,0.473c-0.04-0.108-0.285-0.775-0.613-1.805
								c-0.087-0.275-0.182-0.574-0.278-0.893c-0.124-0.405-0.251-0.843-0.381-1.309c-0.045-0.156-0.087-0.317-0.132-0.478
								c-0.751-2.794-1.509-6.428-1.438-9.545c0.338-0.069,0.65-0.196,0.936-0.365c-0.145,2.662,0.457,5.921,1.131,8.617
								c0.122,0.481,0.246,0.946,0.367,1.385c0.024,0.082,0.045,0.164,0.069,0.246c0.174,0.618,0.344,1.184,0.497,1.676
								C103.574,147.962,103.852,148.726,103.862,148.755z"/>
							<path style="fill:#0080FF;" d="M116.021,144.044l-0.851,0.404c-0.008-0.027-0.151-0.462-0.407-1.171
								c-1.168-3.241-4.739-12.156-9.011-13.324c0.238-0.243,0.402-0.597,0.402-1.107c4.792,1.604,8.493,11.228,9.563,14.289
								C115.889,143.632,115.994,143.957,116.021,144.044z"/>
						</g>
					</g>
				</g>
				<path style="fill:#FFA285;" d="M103.836,130.482c0,0-0.609,4.437-1.809,5.359c-1.2,0.922-1.831-0.644-1.831-0.644
					s-0.199,0.876-1.177,0.564c-0.978-0.313-1.079-1.335-1.079-1.335s-0.411,0.591-1.264,0.407
					c-0.853-0.184-0.876-1.735-0.876-1.735s-1.591,0.254-1.084-1.775c1.061-4.243,3.651-6.86,3.651-6.86
					c2.509-0.674,4.732,0.264,6.804,2.064c0,0,0.541,0.22,0.874,1.543C106.739,130.83,103.836,130.482,103.836,130.482"/>
			</g>
		</g>
	</g>
	<g>
		
			<ellipse transform="matrix(0.2356 -0.9718 0.9718 0.2356 148.8371 437.7232)" style="fill:#EEEEEE;" cx="352.686" cy="124.243" rx="58.413" ry="58.413"/>
		<path style="fill:#EEEEEE;" d="M415.681,231.616c0,2.032-29.295,3.68-65.432,3.68s-65.432-1.648-65.432-3.68
			c0-2.033,29.295-3.68,65.432-3.68S415.681,229.584,415.681,231.616z"/>
		<g>
			<g>
				<g>
					<path style="fill:#FFA285;" d="M377.819,216.446l-1.039,5.78c-1.284,0.533-3.414,0.66-4.956,0.383l0.19-6.502
						C372.014,216.107,375.728,215.216,377.819,216.446z"/>
					<g>
						<path style="fill:#F22D54;" d="M371.825,230.293c0.063,0.445,0.12,0.886,0.168,1.323h20.664c0-0.452-0.061-0.897-0.175-1.323
							c-0.343-1.267-1.17-2.372-2.332-3.055c-3.158-1.854-7.82-2.717-7.82-2.717c-1.341-1.26-5.335-3.372-5.335-3.372
							c-3.312,1.341-5.175,0.732-5.175,0.732C370.956,224.812,371.456,227.615,371.825,230.293z"/>
						<g>
							<g>
								<path style="fill:#CA013E;" d="M385.594,225.361c0,0-1.02-0.403-2.053-0.262c-0.61,0.083-1.115,0.326-1.461,0.531
									c-0.362,0.215-0.768,0.264-1.153,0.128l0,0c0,0,1.149-1.547,3.359-1.545c1.592,0.001,2.706,1.582,2.706,1.582
									L385.594,225.361z"/>
								<path style="fill:#CA013E;" d="M384.305,224.868c-0.444-0.51-1.374-1.382-2.592-1.383c-2.382-0.002-3.62,1.545-3.62,1.545
									c0.414,0.135,0.852,0.086,1.242-0.129c0.373-0.205,1.087-0.518,1.749-0.544c1.391-0.054,1.522,0.249,1.522,0.249
									l1.007,0.262H384.305z"/>
								<path style="fill:#CA013E;" d="M380.817,223.709c0,0-0.887-0.411-2.329-0.211c-0.656,0.09-1.202,0.326-1.575,0.531
									c-0.39,0.215-0.828,0.264-1.242,0.129l0,0c0,0,1.238-1.547,3.62-1.545c1.716,0.001,2.882,1.745,2.882,1.745L380.817,223.709
									z"/>
							</g>
						</g>
						<path style="fill:#CA013E;" d="M371.825,230.293c0.063,0.445,0.12,0.886,0.168,1.323h20.664c0-0.452-0.061-0.897-0.175-1.323
							H371.825z"/>
					</g>
				</g>
				<g>
					<g>
						<g>
							<path style="fill:#22395F;" d="M371.117,219.321l6.867,0.664l4.016-48.486l-4.727-46.59l-17.853-1.672l10.707,53.109
								C367.101,188.618,369.56,201.352,371.117,219.321z"/>
						</g>
					</g>
				</g>
				<g>
					<path style="fill:#476796;" d="M373.167,217.208c-0.198,0-0.363-0.155-0.374-0.354c-0.007-0.122-0.675-12.263-1.342-20.872
						c-0.645-8.307,1.168-19.437,1.334-20.433l-7.985-38.233c-0.042-0.203,0.088-0.401,0.29-0.444
						c0.21-0.042,0.402,0.088,0.444,0.29l8,38.303c0.01,0.046,0.011,0.094,0.002,0.141c-0.019,0.116-2.001,11.753-1.337,20.318
						c0.667,8.617,1.336,20.767,1.342,20.888c0.012,0.206-0.146,0.384-0.353,0.395C373.181,217.208,373.174,217.208,373.167,217.208
						z"/>
				</g>
			</g>
			<g>
				<g>
					<path style="fill:#FFA285;" d="M342.273,216.469l-1.444,5.757c-1.284,0.533-3.414,0.66-4.956,0.383l0.734-6.47
						C336.608,216.139,340.183,215.239,342.273,216.469z"/>
					<g>
						<path style="fill:#F22D54;" d="M335.874,230.293c0.063,0.445,0.12,0.886,0.168,1.323h20.664c0-0.452-0.061-0.897-0.175-1.323
							c-0.343-1.267-1.17-2.372-2.332-3.055c-3.158-1.854-7.82-2.717-7.82-2.717c-1.341-1.26-5.335-3.372-5.335-3.372
							c-3.311,1.341-5.175,0.732-5.175,0.732C335.005,224.812,335.505,227.615,335.874,230.293z"/>
						<g>
							<g>
								<path style="fill:#CA013E;" d="M349.601,225.361c0,0-1.02-0.403-2.053-0.262c-0.61,0.083-1.115,0.326-1.461,0.531
									c-0.362,0.215-0.768,0.264-1.153,0.128l0,0c0,0,1.149-1.547,3.359-1.545c1.592,0.001,2.706,1.582,2.706,1.582
									L349.601,225.361z"/>
								<path style="fill:#CA013E;" d="M348.312,224.868c-0.444-0.51-1.374-1.382-2.592-1.383c-2.382-0.002-3.62,1.545-3.62,1.545
									c0.414,0.135,0.852,0.086,1.242-0.129c0.373-0.205,1.087-0.518,1.749-0.544c1.391-0.054,1.522,0.249,1.522,0.249
									l1.007,0.262H348.312z"/>
								<path style="fill:#CA013E;" d="M344.825,223.709c0,0-0.887-0.411-2.329-0.211c-0.656,0.09-1.202,0.326-1.575,0.531
									c-0.39,0.215-0.828,0.264-1.242,0.129l0,0c0,0,1.238-1.547,3.62-1.545c1.716,0.001,2.882,1.745,2.882,1.745L344.825,223.709
									z"/>
							</g>
						</g>
						<path style="fill:#CA013E;" d="M335.874,230.293c0.063,0.445,0.12,0.886,0.168,1.323h20.664c0-0.452-0.061-0.897-0.175-1.323
							H335.874z"/>
					</g>
				</g>
				<g>
					<g>
						<g>
							<g>
								<path style="fill:#22395F;" d="M335.391,218.425c1.278-13.768,6.895-37.991,10.722-43.966l0.037-51.947l17.447,4.136
									l-5.214,47.922l-15.723,44.239C339.286,219.321,337.778,218.948,335.391,218.425z"/>
							</g>
						</g>
					</g>
				</g>
				<g>
					<path style="fill:#476796;" d="M338.338,215.208c-0.022,0-0.044-0.002-0.065-0.006c-0.204-0.036-0.34-0.231-0.304-0.435
						c4.511-25.273,10.634-38.92,11.174-40.093l-0.685-38.415c-0.004-0.207,0.161-0.378,0.368-0.382c0.002,0,0.005,0,0.007,0
						c0.204,0,0.371,0.163,0.375,0.368l0.686,38.502c0.001,0.058-0.012,0.116-0.036,0.168c-0.065,0.134-6.472,13.767-11.151,39.984
						C338.675,215.081,338.517,215.208,338.338,215.208z"/>
				</g>
			</g>
			<g>
				<g>
					<g>
						<g>
							<g>
								<g>
									<path style="fill:#0080FF;" d="M378.21,130.43c-7.48,3.99-16.91,5.83-25.79,3.54c-0.31-0.08-0.62-0.16-0.93-0.26
										c-1.96-0.57-3.9-1.35-5.77-2.36l0.4-21.64L341.34,72l8.64-2.98l0.46-0.16l1.94-0.67l1.54-0.53l9.15,1.21l1.49,0.19
										l0.53,0.07l6.54,0.87l3.39,31.11l0.11,1.03l1.16,10.67v0.01l0.1,0.94l0.02,0.15L378.21,130.43z"/>
								</g>
							</g>
						</g>
					</g>
				</g>
				<g>
					<g>
						<path style="fill:#0062D7;" d="M357.267,91.63c-0.128,0.187-0.377,0.259-0.589,0.16l-3.392-1.587
							c-0.236-0.11-0.338-0.391-0.227-0.628c0.111-0.237,0.391-0.338,0.627-0.228l3.392,1.587c0.236,0.111,0.338,0.391,0.228,0.628
							C357.294,91.586,357.281,91.609,357.267,91.63z"/>
					</g>
					<g>
						<path style="fill:#0062D7;" d="M368.264,96.16c-0.081,0.009-0.166-0.003-0.246-0.039c-0.238-0.107-0.344-0.386-0.236-0.624
							l1.539-3.414c0.107-0.237,0.386-0.344,0.624-0.236c0.238,0.107,0.344,0.386,0.236,0.624l-1.539,3.414
							C368.571,96.043,368.424,96.142,368.264,96.16z"/>
					</g>
					<g>
						<path style="fill:#0062D7;" d="M349.279,83.442c-0.087,0.01-0.178-0.005-0.263-0.047l-3.351-1.672
							c-0.233-0.117-0.328-0.4-0.211-0.633c0.117-0.233,0.4-0.328,0.633-0.212l3.351,1.673c0.233,0.117,0.328,0.4,0.212,0.633
							C349.576,83.332,349.433,83.425,349.279,83.442z"/>
					</g>
					<g>
						<path style="fill:#0062D7;" d="M366.492,112.158c-0.071,0.008-0.145,0-0.217-0.027c-0.244-0.091-0.368-0.363-0.277-0.607
							l1.31-3.508c0.091-0.244,0.363-0.368,0.607-0.277c0.244,0.091,0.368,0.363,0.277,0.607l-1.31,3.508
							C366.818,112.027,366.663,112.139,366.492,112.158z"/>
					</g>
					<g>
						<path style="fill:#0062D7;" d="M375.13,102.14l-1.05,0.61c-0.06,0.03-0.12,0.06-0.19,0.06c-0.18,0.02-0.36-0.06-0.46-0.23
							c-0.13-0.23-0.06-0.51,0.17-0.65l1.42-0.82L375.13,102.14z"/>
					</g>
					<g>
						<path style="fill:#0062D7;" d="M356.667,82.872c-0.156,0.017-0.318-0.043-0.423-0.176c-0.162-0.204-0.128-0.501,0.077-0.663
							l2.934-2.327c0.204-0.161,0.501-0.128,0.663,0.076c0.162,0.204,0.128,0.501-0.077,0.663l-2.934,2.327
							C356.835,82.83,356.752,82.862,356.667,82.872z"/>
					</g>
					<g>
						<path style="fill:#0062D7;" d="M345.674,72.662c-0.048-0.15-0.02-0.32,0.089-0.449c0.168-0.199,0.466-0.224,0.665-0.055
							l2.858,2.42c0.198,0.169,0.224,0.466,0.055,0.665c-0.168,0.199-0.466,0.224-0.665,0.055l-2.858-2.42
							C345.748,72.819,345.7,72.744,345.674,72.662z"/>
					</g>
					<g>
						<path style="fill:#0062D7;" d="M348.137,93.351c-0.182,0.02-0.366-0.067-0.463-0.236l-1.627-2.859
							c-0.129-0.227-0.05-0.515,0.177-0.643c0.225-0.13,0.514-0.05,0.643,0.177l1.627,2.859c0.129,0.227,0.05,0.514-0.177,0.643
							C348.261,93.324,348.199,93.344,348.137,93.351z"/>
					</g>
					<g>
						<path style="fill:#0062D7;" d="M367.305,74.506c-0.089,0.01-0.181-0.005-0.266-0.049c-0.232-0.118-0.324-0.402-0.206-0.635
							l1.494-2.931c0.118-0.232,0.403-0.325,0.635-0.206c0.232,0.118,0.324,0.402,0.206,0.635l-1.494,2.931
							C367.598,74.398,367.457,74.489,367.305,74.506z"/>
					</g>
					<g>
						<path style="fill:#0062D7;" d="M374.179,121.484c-0.123,0.014-0.252-0.021-0.354-0.106l-2.877-2.397
							c-0.2-0.167-0.227-0.464-0.06-0.664c0.167-0.201,0.464-0.228,0.664-0.06l2.877,2.397c0.2,0.167,0.227,0.464,0.06,0.664
							C374.408,121.415,374.296,121.471,374.179,121.484z"/>
					</g>
					<g>
						<path style="fill:#0062D7;" d="M367.321,122.249c-0.123,0.014-0.252-0.021-0.354-0.106l-2.877-2.397
							c-0.2-0.167-0.227-0.464-0.06-0.664c0.167-0.2,0.464-0.227,0.664-0.06l2.877,2.397c0.2,0.167,0.227,0.464,0.06,0.664
							C367.55,122.18,367.438,122.236,367.321,122.249z"/>
					</g>
					<g>
						<path style="fill:#0062D7;" d="M366.367,131.948c0.046-0.115,0.047-0.248-0.008-0.37l-1.538-3.415
							c-0.107-0.238-0.386-0.343-0.624-0.236c-0.238,0.107-0.344,0.386-0.237,0.624l1.538,3.415
							c0.107,0.238,0.386,0.344,0.624,0.237C366.239,132.15,366.323,132.057,366.367,131.948z"/>
					</g>
					<g>
						<path style="fill:#0062D7;" d="M357.491,126.777c-0.039-0.118-0.033-0.25,0.029-0.369l1.735-3.319
							c0.121-0.231,0.406-0.32,0.637-0.2c0.231,0.121,0.32,0.406,0.199,0.637l-1.735,3.319c-0.121,0.231-0.406,0.32-0.637,0.2
							C357.607,126.986,357.528,126.889,357.491,126.777z"/>
					</g>
					<g>
						<path style="fill:#0062D7;" d="M353.45,132l-1.03,1.97c-0.31-0.08-0.62-0.16-0.93-0.26l1.13-2.15c0.12-0.23,0.4-0.32,0.64-0.2
							C353.49,131.48,353.58,131.77,353.45,132z"/>
					</g>
					<g>
						<path style="fill:#0062D7;" d="M354.438,120.463c-0.08,0.009-0.163-0.002-0.241-0.037c-0.239-0.105-0.347-0.383-0.242-0.622
							l1.505-3.429c0.105-0.239,0.383-0.347,0.622-0.242c0.239,0.105,0.347,0.383,0.242,0.622l-1.505,3.429
							C354.748,120.344,354.6,120.445,354.438,120.463z"/>
					</g>
					<g>
						<path style="fill:#0062D7;" d="M359.494,111.061c-0.17,0.019-0.344-0.055-0.445-0.207l-2.075-3.117
							c-0.145-0.217-0.086-0.51,0.131-0.654c0.216-0.145,0.509-0.086,0.654,0.131l2.075,3.117c0.145,0.217,0.086,0.51-0.131,0.654
							C359.638,111.028,359.566,111.053,359.494,111.061z"/>
					</g>
					<g>
						<path style="fill:#0062D7;" d="M365.008,103.657c-0.093-0.144-0.104-0.333-0.013-0.491l1.864-3.248
							c0.13-0.226,0.418-0.304,0.644-0.174c0.226,0.129,0.304,0.418,0.174,0.644l-1.864,3.248c-0.13,0.226-0.418,0.304-0.644,0.174
							C365.102,103.771,365.048,103.718,365.008,103.657z"/>
					</g>
					<g>
						<path style="fill:#0062D7;" d="M347.921,103.657c-0.093-0.144-0.104-0.333-0.013-0.491l1.864-3.248
							c0.13-0.226,0.418-0.304,0.644-0.174c0.226,0.129,0.304,0.418,0.174,0.644l-1.864,3.248c-0.13,0.226-0.418,0.304-0.644,0.174
							C348.015,103.771,347.96,103.718,347.921,103.657z"/>
					</g>
					<g>
						<path style="fill:#0062D7;" d="M376.413,113.907l-2.602-1.276c-0.239-0.108-0.334-0.397-0.225-0.626
							c0.118-0.24,0.397-0.334,0.636-0.226l2.072,1.042L376.413,113.907z"/>
					</g>
					<g>
						<path style="fill:#0062D7;" d="M369.478,84.906c-0.03,0.003-0.06,0.004-0.09,0.002c-0.26-0.021-0.454-0.248-0.433-0.508
							l0.298-3.733c0.021-0.26,0.249-0.453,0.508-0.433c0.26,0.021,0.454,0.248,0.433,0.508l-0.298,3.733
							C369.877,84.704,369.698,84.881,369.478,84.906z"/>
					</g>
					<g>
						<path style="fill:#0062D7;" d="M364.836,91.639c-0.03,0.003-0.06,0.004-0.09,0.002c-0.26-0.021-0.454-0.248-0.433-0.508
							l0.298-3.733c0.021-0.26,0.249-0.453,0.508-0.433c0.26,0.021,0.454,0.248,0.433,0.508l-0.298,3.733
							C365.236,91.437,365.057,91.615,364.836,91.639z"/>
					</g>
					<g>
						<path style="fill:#0062D7;" d="M361.796,76.438c-0.155,0.017-0.316-0.043-0.421-0.173l-2.345-2.919
							c-0.163-0.203-0.131-0.5,0.072-0.664c0.204-0.163,0.5-0.131,0.664,0.072l2.345,2.92c0.163,0.203,0.131,0.5-0.072,0.663
							C361.967,76.395,361.882,76.428,361.796,76.438z"/>
					</g>
					<g>
						<path style="fill:#0062D7;" d="M350.173,125.536c-0.188,0.021-0.377-0.072-0.47-0.25l-1.743-3.314
							c-0.121-0.231-0.033-0.516,0.198-0.637c0.231-0.122,0.516-0.033,0.637,0.198l1.743,3.314c0.121,0.231,0.033,0.516-0.198,0.637
							C350.287,125.513,350.23,125.53,350.173,125.536z"/>
					</g>
					<g>
						<path style="fill:#0062D7;" d="M375.12,125.932c-0.17-0.082-0.38-0.057-0.526,0.079l-2.744,2.548
							c-0.191,0.177-0.202,0.476-0.025,0.667c0.178,0.192,0.476,0.202,0.667,0.025l2.744-2.548c0.191-0.177,0.202-0.476,0.025-0.667
							C375.219,125.991,375.171,125.956,375.12,125.932z"/>
					</g>
					<g>
						<path style="fill:#0062D7;" d="M349.733,113.772c-0.144-0.123-0.205-0.325-0.139-0.514l1.228-3.538
							c0.086-0.246,0.354-0.377,0.601-0.291c0.247,0.086,0.377,0.354,0.291,0.601l-1.228,3.538c-0.085,0.246-0.354,0.377-0.6,0.291
							C349.827,113.839,349.776,113.809,349.733,113.772z"/>
					</g>
					<g>
						<path style="fill:#0062D7;" d="M358.41,102.937c-0.188,0.021-0.377-0.072-0.47-0.25l-1.743-3.314
							c-0.121-0.231-0.033-0.516,0.198-0.637c0.231-0.122,0.516-0.033,0.637,0.198l1.743,3.314c0.121,0.231,0.033,0.516-0.198,0.637
							C358.523,102.913,358.467,102.93,358.41,102.937z"/>
					</g>
				</g>
			</g>
			<g>
				<g>
					<g>
						<path style="fill:#22395F;" d="M368.016,42.412c0,0,2.406,1.336,1.898,5.503c-0.508,4.167-2.061,4.725-2.061,4.725
							S364.756,43.736,368.016,42.412z"/>
					</g>
				</g>
				<g>
					<g>
						<path style="fill:#FFA285;" d="M360.571,62.6l-0.053,5.212l-0.025,2.389c-2.893,2.352-7.902-0.475-7.902-0.475l-0.796-8.125
							c1.343-0.997,4.873,0.059,7.046,0.557C359.865,62.392,360.571,62.6,360.571,62.6z"/>
					</g>
				</g>
				<g>
					<g>
						<g>
							<path style="fill:#FF8470;" d="M360.571,62.6l-0.067,6.505c-4.353-0.454-6.709-6.683-6.709-6.683l5.045-0.264
								C359.865,62.392,360.571,62.6,360.571,62.6z"/>
						</g>
					</g>
				</g>
				<g>
					<g>
						<path style="fill:#FFA285;" d="M369.501,48.895c0.011,0.179,0.022,0.358,0.029,0.542c0.074,1.612,0.047,3.398-0.032,5.192
							c-0.017,0.376-0.038,0.752-0.06,1.126c-0.019,0.322-0.038,0.645-0.06,0.965c-0.047,0.665-0.096,1.323-0.15,1.959
							c-0.037,0.443-0.074,0.876-0.115,1.298c-0.029,0.296-0.077,0.585-0.143,0.864c-0.21,0.879-0.607,1.678-1.138,2.358
							c-1.289,1.65-3.388,2.607-5.627,2.33c-1.832-0.228-3.858-0.523-5.757-0.899c-0.094-0.017-0.185-0.035-0.279-0.054
							c-1.521-0.307-2.952-0.667-4.124-1.086c-0.164-0.199-0.323-0.403-0.475-0.611c-1.332-1.807-2.202-3.881-2.791-6.054
							c-0.234-0.867-0.425-1.75-0.58-2.638c-0.013-0.072-0.033-0.139-0.052-0.205c-0.338-4.5-0.416-8.932-0.416-8.932
							c4.459-6.492,18.366-5.152,20.796-0.836C369.084,45.202,369.378,46.889,369.501,48.895z"/>
					</g>
				</g>
				<g>
					<g>
						<path style="fill:#22395F;" d="M351.57,62.88c-1.332-1.807-2.201-3.882-2.79-6.055c0.656-0.042,1.526,0.092,2.678,0.522
							C351.459,57.348,351.957,60.577,351.57,62.88z"/>
					</g>
				</g>
				<g>
					<g>
						<g>
							<path style="fill:#FFA285;" d="M352.145,52.924c0,0-2.402-2.497-4.125-0.813c-1.898,1.855,0.095,7.504,4.206,7.059
								L352.145,52.924z"/>
						</g>
					</g>
				</g>
				<g>
					<g>
						<path style="fill:#22395F;" d="M369.353,43.946c-0.089,0.035-0.177,0.066-0.265,0.092c-0.114,0.146-0.259,0.289-0.432,0.428
							c-3.901,3.103-11.21,0.009-11.21,0.009c-0.268,1.918-3.018,2.088-3.596,3.741c-0.576,1.655-0.269,4.599-0.269,4.599
							l-1.435,0.11c-2.041-2.408-4.126-0.813-4.126-0.813c-1.425-4.944-1.933-9.628,3.291-12.724
							c2.238-1.328,5.424-1.582,8.505-1.198c0-0.002,0-0.002,0-0.002s4.199,0.355,7.703-1.48
							C371.272,34.741,373.949,42.141,369.353,43.946z"/>
					</g>
				</g>
				<g>
					<g>
						<path style="fill:#22395F;" d="M367.755,56.615c-1.892,0.529-3.718,0.729-5.584,0.114c-0.738-0.24-1.557-0.392-2.385-0.319
							c-1.597,0.141-3,0.91-3.885,1.517c-1.622-2.228-2.319-5.112-2.319-5.112l-1.436,0.109c0,0,0.55,5.024,2.178,8.615
							c0.523,1.156,1.245,2.205,2.125,3.092c1.094,1.111,2.431,1.969,3.934,2.477c0.998,0.337,1.941,0.482,2.703,0.365
							c2.223-0.342,7.111-3.351,6.086-9.069c-0.013,0.016-0.354-0.285-0.365-0.269c-0.061,3.436-1.6,5.279-3.487,5.6
							c-2.559,0.438-4.838-0.881-6.772-2.738c-1.092-1.047-0.292-2.811,1.323-2.839c0.012,0.001,0.024,0,0.036,0
							c1.242-0.005,2.609,0.502,3.668,0.778c1.226,0.32,1.768-0.154,2.744-0.494c1.836-0.643,2.539-0.118,2.909,0.235
							c0.158-0.236,0.366-0.561,0.42-1.023c0.037-0.319,0.039-0.626-0.093-1.087C369.294,56.178,368.631,56.37,367.755,56.615z"/>
					</g>
				</g>
			</g>
			<g>
				<g>
					<g>
						<path style="fill:#FFA285;" d="M412.251,84.589c-8.49,3.953-16.466,6.691-22.326,7.709c0,0,0-0.01-0.01-0.01
							c-0.079,0.01-1.453,0.188-1.986,0.198c-1.591,0.02-3.765-0.237-5.989-1.147c-0.267-0.109-0.553-0.247-0.86-0.425
							c-2.066-1.127-4.942-3.568-7.728-6.147v-0.01l-1.72-14.765c0,0,0.01,0.01,0.02,0.03c0.306,0.465,4.477,6.76,10.832,11.306
							c1.364,0.988,2.836,1.888,4.388,2.629c0.484,0.237,0.988,0.455,1.492,0.652c1.996-0.425,7.412-0.939,9.755-1.215
							c6.355-0.771,11.517-2.57,11.517-2.57C409.872,82.682,411.381,83.571,412.251,84.589z"/>
					</g>
				</g>
				<path style="fill:#FFA285;" d="M409.165,81.179c0,0,1.439-3.336,2.429-4.688c0.99-1.352,2.576-2.038,3.893-2.95
					c1.317-0.912,1.668,0.376,0.69,1.517c-0.978,1.141-2.163,2.201-1.609,2.373c0.553,0.171,6.329-3.028,8.071-2.721
					c1.742,0.308-3.438,2.907-3.438,2.907s5.179-2.033,5.986-1.356c0.807,0.677-4.657,2.767-4.657,2.767s4-1.474,4.263-0.576
					c0.188,0.644-3.002,1.934-4.583,2.528c0,0,3.977-1.353,3.825-0.588c-0.195,0.974-7.931,4.278-12.814,4.609L409.165,81.179z"/>
				<path style="fill:#0062D7;" d="M382.522,80.35c0,0-0.01,0.366-0.04,0.978c-0.109,1.987-0.435,6.572-1.403,9.587
					c-0.188,0.593-0.405,1.127-0.652,1.571c0,0-6.109-4.654-7.325-7.797l-0.231-3.328l-1.24-11.368c0,0,1.559,1.368,3.637,3.417
					C378.512,76.375,380.118,78.104,382.522,80.35z"/>
			</g>
			<g>
				<g>
					<g>
						<g>
							<path style="fill:#FFA285;" d="M328.301,119.375c0,0,3.748,0.795,3.653,2.804c-0.095,2.009-1.972,4.543-1.972,4.543
								s1.581,3.233,0.2,4.188c-1.405,0.972-1.268-0.066-2.394,0.939c-1.126,1.005-2.033,0.917-3.432,0.248
								c-1.399-0.669-2.072,0.106-2.366-0.845c-1.243-4.018,0.444-10.919,0.444-10.919S326.898,118.931,328.301,119.375z"/>
						</g>
					</g>
				</g>
				<path style="fill:#FFA285;" d="M341.264,72.189c0,0-12.848,13.781-16.621,22.036c0,0-5.844,12.966-2.209,26.109
					c0,0,2.328,0.513,5.513-1.027c0,0,0.651-14.209,3.98-21.227c0,0,7.769-11.397,13.105-14.995L341.264,72.189z"/>
				<path style="fill:#0062D7;" d="M341.264,72.189c0,0-9.555,6.546-13.256,14.341c0,0,4.729,6.8,8.392,8.74l9.187-12.297
					C345.587,82.973,346.203,77.53,341.264,72.189z"/>
				<g>
					<g>
						<g>
							<g>
								<path style="fill:#ED6600;" d="M325.191,132.818c-0.042-0.107-0.101-0.281-0.156-0.431
									c-0.438-0.178-0.768-0.351-1.103-0.459c0.176,0.583,0.252,0.833,0.384,1.156c0.104,0.263,0.179,0.422,0.195,0.456
									c0.106,0.227,0.373,0.323,0.601,0.219c0.002-0.001,0.004-0.002,0.004-0.002c0.229-0.107,0.327-0.378,0.22-0.606
									C325.332,133.145,325.277,133.025,325.191,132.818z"/>
							</g>
						</g>
						<g>
							<g>
								<path style="fill:#ED6600;" d="M337.829,129.699c0.102,0.228-0.001,0.494-0.229,0.598c0,0-0.002,0.001-0.004,0.002
									c-0.228,0.102-0.499-0.001-0.6-0.233c-0.006-0.013-0.082-0.179-0.221-0.456c-0.042-0.08-0.089-0.173-0.14-0.274
									c-0.799-1.52-3.783-5.395-6.572-6.632c0.074-0.283,0.163-0.626,0.22-0.948c1.253,0.512,3.385,1.901,4.569,3.277
									c1.303,1.515,2.224,3.155,2.669,4.033c0.039,0.074,0.073,0.145,0.104,0.207
									C337.751,129.521,337.819,129.676,337.829,129.699z"/>
							</g>
						</g>
					</g>
					<g>
						<g>
							<polygon style="fill:#FF9106;" points="329.738,168.647 351.675,163.625 356.863,158.187 340.19,128.255 339.021,128.718 
								336.129,129.866 319.02,136.656 							"/>
						</g>
					</g>
					<g>
						<g>
							<path style="fill:#ED6600;" d="M337.766,130.934l13.91,32.691l5.187-5.438l-16.672-29.932l-1.169,0.464
								C338.411,129.366,337.919,130.117,337.766,130.934z"/>
						</g>
					</g>
					<g>
						<g>
							<polygon style="fill:#ED6600;" points="340.19,128.254 339.974,131.876 337.766,130.934 319.02,136.655 319.795,135.472 
								320.675,134.191 							"/>
						</g>
					</g>
					<g>
						<g>
							<g>
								<g>
									<g>
										<path style="fill:#FF9106;" d="M322.413,135.62c-0.031-0.085-0.065-0.176-0.097-0.274
											c-0.146-0.427-0.307-0.946-0.447-1.518c-0.395-1.614-0.714-3.473-0.277-4.772c-0.032-0.624-0.063-1.242-0.057-1.77
											c-0.109,0.11-0.281,0.409-0.399,0.652c-0.953,1.956-0.597,4.351-0.147,6.158c0.15,0.603,0.32,1.144,0.475,1.589
											c0.024,0.07,0.048,0.138,0.072,0.201c0.229,0.631,0.414,1.032,0.44,1.089c0.106,0.227,0.374,0.325,0.6,0.223l0.006-0.003
											c0.227-0.106,0.326-0.378,0.218-0.605C322.794,136.578,322.626,136.215,322.413,135.62z"/>
									</g>
								</g>
							</g>
							<g>
								<g>
									<g>
										<path style="fill:#FF9106;" d="M336.509,132.801c0.101,0.228-0.001,0.494-0.227,0.597l-0.006,0.003
											c-0.228,0.102-0.497-0.002-0.599-0.233c-0.011-0.023-0.259-0.574-0.711-1.38c-0.199-0.352-0.434-0.751-0.705-1.179
											c-0.096-0.15-0.186-0.309-0.3-0.458c-1.21-1.58-2.975-3.085-3.69-3.845c0.207-0.322,0.304-0.48,0.496-0.803
											c0.587,0.478,1.504,1.432,2.273,2.189c0.684,0.673,1.385,1.483,1.84,2.181c0.088,0.133,0.171,0.263,0.252,0.391
											c0.286,0.46,0.53,0.885,0.73,1.252C336.264,132.254,336.488,132.755,336.509,132.801z"/>
									</g>
								</g>
							</g>
						</g>
					</g>
				</g>
				<g>
					<g>
						<g>
							<g>
								<path style="fill:#CA013E;" d="M322.56,131.769c0.017,0.649,0.069,1.182,0.106,1.512c0.029,0.223,0.051,0.353,0.052,0.36
									c0.043,0.249-0.123,0.484-0.371,0.527c0,0-0.002,0-0.004,0.001c-0.247,0.04-0.48-0.123-0.522-0.37
									c-0.006-0.037-0.037-0.21-0.068-0.491c-0.081-0.665-0.183-1.926-0.05-3.334c0.071,0.448,0.165,0.878,0.289,1.278
									C322.11,131.639,322.293,131.74,322.56,131.769z"/>
							</g>
						</g>
						<g>
							<g>
								<g>
									<g>
										<path style="fill:#CA013E;" d="M335.681,133.589c0.038,0.247-0.131,0.476-0.378,0.517c0,0-0.002,0-0.005,0.001
											c-0.247,0.038-0.481-0.132-0.517-0.382c-0.002-0.014-0.032-0.194-0.093-0.498c-0.019-0.088-0.041-0.19-0.064-0.301
											c-0.372-1.677-2.234-6.199-4.601-8.125c0.146-0.254,0.322-0.562,0.461-0.856c1.075,0.823,2.768,2.723,3.549,4.361
											c0.86,1.803,1.318,3.628,1.517,4.592c0.018,0.081,0.033,0.159,0.046,0.227
											C335.652,133.397,335.677,133.564,335.681,133.589z"/>
									</g>
								</g>
							</g>
						</g>
					</g>
					<g>
						<g>
							<g>
								<g>
									<polygon style="fill:#F22D54;" points="317.65,169.047 337.649,171.463 346.569,166.074 338.338,132.814 337.088,132.955 
										333.996,133.303 315.705,135.364 									"/>
								</g>
							</g>
						</g>
					</g>
					<g>
						<g>
							<g>
								<g>
									<path style="fill:#CA013E;" d="M335.295,134.764l2.353,36.699l8.921-5.39l-8.231-33.259l-1.25,0.141
										C336.329,133.42,335.658,134.015,335.295,134.764z"/>
								</g>
							</g>
						</g>
					</g>
					<g>
						<g>
							<polygon style="fill:#CA013E;" points="338.338,132.814 337.179,136.252 335.295,134.764 315.705,135.364 316.763,134.425 
								317.949,133.42 							"/>
						</g>
					</g>
					<g>
						<g>
							<g>
								<path style="fill:#F22D54;" d="M321.586,125.993c-0.022,0.379-0.039,0.764-0.047,1.15c-0.304,0.247-0.581,0.534-0.826,0.86
									c-1.148,1.527-1.473,3.66-1.517,5.381c-0.014,0.589,0.004,1.132,0.033,1.582c0.005,0.102,0.014,0.199,0.021,0.29
									c0.049,0.63,0.116,1.025,0.118,1.038c0.045,0.248-0.122,0.484-0.369,0.527l-0.007,0.001c-0.244,0.04-0.478-0.126-0.52-0.372
									c-0.01-0.062-0.084-0.498-0.139-1.166c-0.006-0.067-0.011-0.139-0.016-0.213c-0.032-0.471-0.055-1.037-0.041-1.658
									c0.041-1.862,0.399-4.216,1.705-5.956C320.434,126.854,320.969,126.368,321.586,125.993z"/>
							</g>
						</g>
						<g>
							<g>
								<path style="fill:#F22D54;" d="M333.592,136.235c0.038,0.247-0.131,0.476-0.375,0.516l-0.007,0.001
									c-0.247,0.038-0.479-0.133-0.517-0.382c-0.004-0.025-0.099-0.622-0.323-1.518c-0.099-0.392-0.221-0.839-0.371-1.323
									c-0.053-0.169-0.11-0.343-0.17-0.521c-0.299-0.882-0.684-1.846-1.174-2.768c0.173-0.547,0.081-1.254-0.083-1.888
									c0.441,0.615,0.846,1.316,1.22,2.099c0.413,0.866,0.741,1.736,0.997,2.529c0.05,0.151,0.096,0.299,0.141,0.444
									c0.155,0.519,0.279,0.993,0.376,1.4C333.5,135.643,333.584,136.185,333.592,136.235z"/>
							</g>
						</g>
					</g>
				</g>
			</g>
			<g>
				<g>
					<g>
						<g>
							<path style="fill:#0062D7;" d="M324.056,199.635l-1.064-0.19c0.008-0.104,0.778-10.462-2.861-14.439
								c-0.886-0.968-1.939-1.456-3.22-1.49c-0.047-0.001-0.095-0.002-0.142-0.002c-7.239,0-7.6,15.017-7.603,15.17l-1.067-0.128
								c0.012-0.667,0.396-16.321,8.731-16.101c1.588,0.042,2.953,0.676,4.056,1.882
								C324.871,188.693,324.091,199.191,324.056,199.635z"/>
						</g>
					</g>
				</g>
				<g>
					<g>
						<polygon style="fill:#0062D7;" points="322.687,196.763 324.354,197.851 326.364,196.763 330,231.01 319.685,231.521 						
							"/>
					</g>
				</g>
				<g>
					<g>
						<g>
							<g>
								<polygon style="fill:#0080FF;" points="298.463,195.954 294.096,230.958 319.685,231.521 322.687,196.763 								"/>
							</g>
						</g>
					</g>
				</g>
				<g>
					<g>
						<path style="fill:#0080FF;" d="M318.735,199.361l-1.064-0.19c0.008-0.104,0.778-10.463-2.861-14.439
							c-0.886-0.968-1.939-1.455-3.22-1.49c-7.369-0.191-7.742,15.015-7.745,15.168l-1.066-0.128
							c0.012-0.662,0.392-16.104,8.555-16.104c0.058,0,0.116,0.001,0.175,0.003c1.588,0.042,2.953,0.676,4.056,1.882
							C319.55,188.419,318.77,198.916,318.735,199.361z"/>
					</g>
				</g>
			</g>
			<g>
				<g>
					<g>
						<g>
							<path style="fill:#ED6600;" d="M400.243,82.766c0.131,0.084,0.26,0.172,0.389,0.263c-0.361,0.062-0.726,0.119-1.099,0.174
								c-0.186,0.136-0.368,0.287-0.54,0.454c-0.212-0.112-0.43-0.208-0.654-0.291c-0.201-0.076-0.408-0.141-0.618-0.193
								c-0.595-0.148-1.225-0.203-1.896-0.153c-0.057,0.005-0.117,0.009-0.174,0.017c-0.967,0.098-1.815,0.399-2.556,0.912
								c-0.473,0.325-0.905,0.738-1.299,1.24c-1.404,1.789-2.109,4.438-2.427,7.167c-0.621,5.316,0.227,10.927,0.241,11.013
								l-1.302,0.334c-0.055-0.351-0.884-5.82-0.267-11.22c0.344-3.005,1.134-5.988,2.754-8.054c0.06-0.076,0.122-0.153,0.186-0.227
								c1.228-1.459,2.799-2.298,4.669-2.489c1.194-0.122,2.276,0.029,3.253,0.392C399.374,82.279,399.818,82.501,400.243,82.766z"
								/>
							<path style="fill:#ED6600;" d="M407.998,100.86l-1.311,0.258c-0.012-0.117-0.743-7.406-3.475-12.704
								c0.43-0.16,0.865-0.327,1.299-0.502C407.243,93.328,407.95,100.368,407.998,100.86z"/>
						</g>
					</g>
				</g>
				<g>
					<g>
						<g>
							<g>
								<polygon style="fill:#ED6600;" points="389.735,100.011 387.77,101.519 385.174,100.358 383.895,143.181 396.737,142.841 
																	"/>
							</g>
						</g>
					</g>
				</g>
				<g>
					<g>
						<g>
							<g>
								<polygon style="fill:#FF9106;" points="419.706,96.722 428.424,139.729 396.737,142.841 389.735,100.011 								"/>
							</g>
						</g>
					</g>
				</g>
				<g>
					<g>
						<path style="fill:#FF9106;" d="M406.524,81.751c-0.678,0.179-1.45,0.373-2.295,0.566c-0.626-0.15-1.294-0.196-2.006-0.124
							c-0.724,0.076-1.383,0.263-1.98,0.573c-0.248,0.122-0.482,0.27-0.709,0.437c-0.186,0.136-0.368,0.287-0.54,0.454
							c-0.217,0.205-0.425,0.435-0.623,0.688c-1.287,1.643-1.99,4.012-2.341,6.499c-0.781,5.505,0.138,11.593,0.153,11.681
							l-1.299,0.337c-0.057-0.363-0.927-6.105-0.217-11.634c0.368-2.864,1.158-5.67,2.704-7.64c0.031-0.041,0.065-0.081,0.098-0.119
							c0.081-0.103,0.165-0.201,0.253-0.296c0.363-0.408,0.759-0.764,1.182-1.068c0.967-0.693,2.078-1.106,3.32-1.235
							c0.074-0.007,0.146-0.014,0.217-0.019C403.983,80.734,405.337,81.078,406.524,81.751z"/>
						<path style="fill:#FF9106;" d="M414.573,100.017l-1.311,0.26c-0.012-0.129-0.896-8.902-4.34-14.189
							c0.428-0.186,0.857-0.375,1.29-0.571C413.67,91.023,414.521,99.478,414.573,100.017z"/>
					</g>
				</g>
			</g>
		</g>
	</g>
	<g>
		<circle style="fill:#EEEEEE;" cx="149.143" cy="339.947" r="58.413"/>
		<path style="fill:#EEEEEE;" d="M205.034,447.32c0,2.032-23.109,3.68-51.615,3.68c-28.507,0-51.616-1.648-51.616-3.68
			c0-2.032,23.109-3.68,51.616-3.68C181.925,443.64,205.034,445.287,205.034,447.32z"/>
		<g>
			<path style="fill:#22395F;" d="M159.018,275.601c0.51-7.569,0.695-10.73-2.123-16.515c-2.215-4.547-9.466-8.413-16.452-6.472
				c0,0-7.456,1.841-8.898,7.848c-1.442,6.007,1.892,9.942-1.111,13.711c0,0-6.126,2.087-5.828,7.191
				c0.299,5.104,2.281,9.051-0.874,10.882c-3.155,1.832-6.512,2.876-5.542,7.949c0.97,5.073,3.832,9.475-2.635,12.459
				c-6.467,2.984-9.014,8.429-6.169,12.271c5.483,7.402,10.185-3.35,17.603,9.421c7.722,13.295,10-5.489,20.718-7.719
				c7.991-1.662,7.144,2.84,14.295-2.531c7.15-5.372,1.239-13.505,3.938-19.424C172.504,290.271,157.97,291.178,159.018,275.601z"/>
			<g>
				<g>
					<path style="fill:#FFA285;" d="M126.228,429.438l-2.795,4.366c-1.312-0.148-3.401-1.698-3.918-2.887l2.729-4.39
						C122.245,426.528,125.057,427.454,126.228,429.438z"/>
					<g>
						<g>
							<g>
								<path style="fill:#0080FF;" d="M132.836,447.32h-8.875l-8.782-8.232c0.119-0.288,0.238-0.579,0.352-0.876
									c0.04-0.101,0.079-0.201,0.119-0.302c0.926-2.395,1.799-4.953,3.866-6.993c0,0,1.268,1.363,4.636,1.773
									c0,0,2.199,5.649,2.066,7.663c0,0,4.25,1.625,6.02,4.617c0.363,0.614,0.593,0.926,0.672,1.291
									C132.971,446.537,132.947,446.838,132.836,447.32z"/>
							</g>
						</g>
					</g>
					<g>
						<g>
							<g>
								<path style="fill:#0062D7;" d="M126.345,439.818c-0.257-0.488-0.478-0.73-0.949-1.013c-1.826-1.095-3.4-0.393-3.4-0.393
									c0.252,0.3,0.612,0.461,1.016,0.466c0.386,0.005,0.918,0.064,1.466,0.292c0.939,0.391,1.395,0.785,1.774,1.25
									C126.413,440.214,126.431,439.984,126.345,439.818z"/>
							</g>
							<g>
								<path style="fill:#0062D7;" d="M126.199,439.562c0.238-0.744-0.061-1.669-0.932-2.192c-1.826-1.095-3.527-0.409-3.527-0.409
									c0.252,0.3,0.612,0.461,1.015,0.466c0.386,0.005,0.919,0.065,1.466,0.292c1.203,0.501,1.684,1.241,1.684,1.241
									C126.035,439.141,126.129,439.344,126.199,439.562L126.199,439.562z"/>
							</g>
							<g>
								<path style="fill:#0062D7;" d="M125.56,437.249c0,0-0.534-0.731-1.792-1.069c-0.573-0.154-1.108-0.142-1.492-0.096
									c-0.401,0.048-0.779-0.064-1.068-0.328l0,0c0,0,1.596-0.905,3.551-0.061c1.408,0.608,1.247,2.535,1.247,2.535
									L125.56,437.249z"/>
							</g>
						</g>
					</g>
					<path style="fill:#0062D7;" d="M132.836,447.32h-8.875l-8.782-8.232c0.119-0.288,0.238-0.579,0.352-0.876l8.988,8.049h8.39
						C132.971,446.537,132.947,446.838,132.836,447.32z"/>
				</g>
				<path style="fill:#121646;" d="M159.02,348.82c-1.67,13.12-5.86,34.23-12.67,51.08l-19.8,31.19l-3.91-2.84l-0.62-0.45
					l-1.61-1.17c0,0,7.77-17.94,9.71-22.35s6.9-9,6.9-9l2.47-23.99l2.85-21.93l3.54-0.11l0.76-0.03L159.02,348.82z"/>
				<g>
					<g>
						<path style="fill:#22395F;" d="M146.64,349.22c-2.82,16.87-5.46,34.23-5.84,47.05c0,0.1-0.04,0.19-0.1,0.26
							c-0.05,0.04-4.55,4.59-7.43,9.82c-2.35,4.27-8.39,17.12-10.63,21.9l-0.62-0.45c2.29-4.89,8.25-17.56,10.59-21.81
							c2.69-4.87,6.75-9.16,7.45-9.88c0.39-12.83,3.02-30.07,5.82-46.86L146.64,349.22z"/>
					</g>
				</g>
			</g>
			<g>
				<g>
					<path style="fill:#FFA285;" d="M178.976,429.919l2.191,4.714c-0.892,0.973-2.068,1.638-3.507,2.017l-3.23-4.038
						C174.43,432.611,176.682,429.697,178.976,429.919z"/>
					<g>
						<path style="fill:#0080FF;" d="M180.139,442.775c0.232,0.358,0.458,0.715,0.674,1.072l17.798-8.274
							c-0.181-0.389-0.411-0.748-0.681-1.069c-0.803-0.954-1.957-1.575-3.232-1.698c-3.463-0.332-7.824,0.791-7.824,0.791
							c-1.66-0.548-5.946-0.768-5.946-0.768c-2.315,2.481-4.164,2.703-4.164,2.703C177.196,438.402,178.748,440.615,180.139,442.775
							z"/>
						<g>
							<g>
								<path style="fill:#0062D7;" d="M190.228,433.049c0,0-0.863,0.116-1.706,0.711c-0.453,0.32-0.804,0.652-1.021,0.92
									c-0.227,0.28-0.542,0.474-0.896,0.543l0,0c0,0,0.452-1.436,2.247-2.32c1.293-0.637,2.78-0.028,2.78-0.028L190.228,433.049z"
									/>
								<path style="fill:#0062D7;" d="M188.213,433.502c0,0-0.71-0.079-1.734,0.583c-0.466,0.301-0.804,0.652-1.021,0.92
									c-0.227,0.281-0.542,0.474-0.896,0.543l0,0c0,0,0.452-1.436,2.247-2.32c1.293-0.637,2.715,0.029,2.715,0.029
									L188.213,433.502z"/>
								<path style="fill:#0062D7;" d="M186.16,433.616c0,0-0.796,0.071-1.821,0.733c-0.466,0.301-0.804,0.652-1.021,0.92
									c-0.227,0.28-0.542,0.474-0.896,0.543l0,0c0,0,0.452-1.436,2.247-2.32c1.293-0.637,2.714,0.029,2.714,0.029L186.16,433.616z
									"/>
							</g>
						</g>
						<path style="fill:#0062D7;" d="M180.139,442.775c0.232,0.358,0.458,0.715,0.674,1.072l17.798-8.274
							c-0.181-0.389-0.411-0.748-0.681-1.069L180.139,442.775z"/>
					</g>
				</g>
				<path style="fill:#22395F;" d="M179.62,430.63l-3.08,2.07l-0.62,0.43l-1.21,0.81c0,0-10.26-15.53-13.19-20.14
					c-4.99-7.84-10.15-19.58-10.15-19.58s-12.27-15.55-16.65-24.58c-5.49-11.33-4.34-20.87-4.34-20.87l15.44,1.07l14.7,37.14
					L179.62,430.63z"/>
				<g>
					<path style="fill:#476796;" d="M176.54,432.7l-0.62,0.43c-10.91-14.08-23.59-41.55-24.24-42.96
						c-14.53-15.77-20.32-39.51-20.38-39.75c-0.05-0.2,0.08-0.4,0.28-0.45s0.4,0.07,0.45,0.28c0.06,0.23,5.82,23.83,20.25,39.45
						c0.02,0.03,0.04,0.06,0.06,0.1C152.47,390.09,165.44,418.39,176.54,432.7z"/>
				</g>
			</g>
			<g>
				<g>
					<path style="fill:#FFA285;" d="M162.001,292.245c0,0,10.786,20.165,13.114,25.545c0,0-0.529,6.17-4.628,5.628
						c-3.131-3.797-9.061-13.061-11.044-19.366C159.442,304.052,159.216,296.517,162.001,292.245z"/>
					<path style="fill:#FFA285;" d="M169.281,319.965c0,0,1.732-7.062,4.265-11.589c2.534-4.527,4.519-8.975,4.519-8.975
						l5.684,0.517c0,0-6.296,20.739-8.913,22.952C172.219,325.081,169.841,324.677,169.281,319.965z"/>
					<path style="fill:#FFA285;" d="M178.065,299.401c0,0-0.884-1.709-0.22-4.13c0.482-1.757,2.944-3.352,3.587-3.16
						c0.643,0.192-0.31,1.539-0.31,1.539s5.862-4.127,8.195-4.032c2.333,0.095-0.312,4.353-3.771,6.525l-1.797,3.773
						C183.75,299.917,179.593,301.773,178.065,299.401z"/>
				</g>
				<g>
					<g>
						<g>
							<path style="fill:#CA013E;" d="M177.412,299.695c0.077-2.872,0.694-5.55,2.49-6.465c0.052-0.025,0.104-0.05,0.155-0.073
								c0.006-0.002,0.014-0.007,0.02-0.009c0.313-0.134,0.651-0.191,1.01-0.177c0.467-0.311,0.939-0.613,1.415-0.91
								c-0.768-0.284-1.502-0.362-2.192-0.226c-0.002-0.001-0.002-0.001-0.005,0c-0.238,0.046-0.47,0.119-0.697,0.215
								c-0.702,0.301-1.271,0.77-1.724,1.362c-1.112,1.443-1.554,3.613-1.655,5.825c-0.016,0.327-0.021,0.654-0.023,0.98
								c-0.015,3.617,0.743,7.071,0.805,7.348l1.165-0.264c-0.366-1.632-0.821-4.601-0.769-7.421
								C177.408,299.818,177.408,299.757,177.412,299.695z"/>
							<path style="fill:#CA013E;" d="M191.201,305.798l-1.158,0.303c-0.688-2.632-2.484-6.492-4.652-9.628l0.158-0.33
								c0.244-0.153,0.485-0.318,0.721-0.49C188.576,298.937,190.463,302.973,191.201,305.798z"/>
						</g>
					</g>
					<g>
						<path style="fill:#F22D54;" d="M182.05,293.209c0.075-0.109,0.167-0.21,0.273-0.298c0.579-0.482,1.16-0.94,1.775-1.348
							c-0.692-0.106-1.352-0.032-1.969,0.232c-0.702,0.301-1.271,0.77-1.724,1.362c-1.277,1.655-1.669,4.269-1.678,6.805
							c-0.015,3.617,0.743,7.071,0.806,7.346l1.164-0.262c-0.366-1.632-0.821-4.601-0.769-7.421
							C179.979,296.896,180.509,294.314,182.05,293.209z"/>
						<path style="fill:#F22D54;" d="M194.239,305.197l-1.158,0.303c-0.783-2.993-3-7.578-5.565-10.881
							c0.299-0.279,0.58-0.566,0.841-0.855C191.084,297.219,193.401,301.989,194.239,305.197z"/>
					</g>
					<g>
						<g>
							<g>
								<polygon style="fill:#CA013E;" points="176.643,306.602 175.179,307.952 173.016,307.212 175.112,341.588 185.368,340.38 
																	"/>
							</g>
						</g>
					</g>
					<g>
						<g>
							<polygon style="fill:#F22D54;" points="200.397,301.786 210.509,335.58 185.368,340.38 176.643,306.602 							"/>
						</g>
					</g>
				</g>
				<g>
					<g>
						<g>
							<path style="fill:#0062D7;" d="M185.817,307l-0.931,0.748c-0.177-0.222-2.372-2.995-3.943-6.253
								c-0.141-0.294-0.279-0.59-0.408-0.891c-0.879-2.033-1.433-4.177-1.065-5.961c0.148-0.731,0.454-1.402,0.953-1.98
								c0.162-0.186,0.339-0.354,0.533-0.499c0.002-0.002,0.002-0.002,0.005-0.002c0.69-0.523,1.581-0.788,2.656-0.788h0.012
								c0.315,0,0.643,0.024,0.982,0.072c-0.762,0.437-1.483,0.884-2.068,1.259c-0.502,0.141-0.91,0.387-1.216,0.74
								c-0.005,0.005-0.01,0.012-0.014,0.017c-0.036,0.043-0.072,0.088-0.107,0.134c-1.213,1.61-0.595,4.287,0.595,6.902
								c0.024,0.057,0.05,0.112,0.076,0.17C183.064,303.224,184.774,305.693,185.817,307z"/>
							<path style="fill:#0062D7;" d="M199.166,301.191l-0.908,0.779c-2.135-2.486-6.496-5.871-10.432-7.65
								c0.303-0.301,0.588-0.609,0.843-0.917C192.696,295.294,196.971,298.633,199.166,301.191z"/>
						</g>
					</g>
					<g>
						<path style="fill:#0080FF;" d="M184.029,299.331c1.189,2.558,2.899,5.028,3.943,6.334l-0.931,0.745
							c-0.177-0.22-2.372-2.993-3.943-6.25c-1.103-2.283-1.896-4.805-1.474-6.852c0.148-0.731,0.454-1.402,0.953-1.98
							c0.74-0.855,1.815-1.29,3.193-1.29h0.012c0.432,0,0.891,0.045,1.366,0.131c-0.757,0.315-1.572,0.736-2.353,1.173
							c-0.547,0.134-0.989,0.389-1.316,0.767c-0.005,0.005-0.01,0.012-0.014,0.017C182.082,293.749,182.756,296.589,184.029,299.331
							z"/>
						<path style="fill:#0080FF;" d="M201.633,299.319l-0.908,0.779c-2.264-2.637-7.034-6.286-11.144-7.96
							c0.232-0.384,0.406-0.747,0.509-1.072C194.401,292.834,199.247,296.539,201.633,299.319z"/>
					</g>
					<g>
						<g>
							<g>
								<polygon style="fill:#0062D7;" points="183.699,307.818 182.855,309.621 180.572,309.754 195.507,340.787 204.545,335.792 
																	"/>
							</g>
						</g>
						<g>
							<g>
								<g>
									<g>
										<polygon style="fill:#0080FF;" points="203.87,294.38 226.007,321.845 204.545,335.792 183.699,307.818 										"/>
									</g>
								</g>
							</g>
						</g>
					</g>
				</g>
			</g>
			<g>
				<g>
					<path style="fill:#FFA285;" d="M127.991,293.323c0,0-12.824,17.64-15.152,23.02c0,0,0.529,6.17,4.628,5.628
						c3.131-3.797,10.503-10.703,12.486-17.009C129.953,304.962,130.776,297.595,127.991,293.323z"/>
					<path style="fill:#FFA285;" d="M118.673,318.518c0,0-1.732-7.062-4.265-11.589c-2.534-4.527-4.519-8.975-4.519-8.975
						l-5.684,0.517c0,0,6.296,20.739,8.913,22.952C115.734,323.634,118.112,323.229,118.673,318.518z"/>
					<path style="fill:#FFA285;" d="M109.888,297.953c0,0,0.884-1.708,0.22-4.13c-0.482-1.757-2.944-3.352-3.587-3.16
						c-0.644,0.192,0.31,1.539,0.31,1.539s-5.862-4.127-8.195-4.032c-2.332,0.095,0.312,4.353,3.771,6.525l1.797,3.773
						C104.204,298.47,108.361,300.325,109.888,297.953z"/>
				</g>
				<g>
					<g>
						<g>
							<path style="fill:#CA013E;" d="M110.542,298.248c-0.077-2.872-0.694-5.55-2.49-6.465c-0.052-0.025-0.104-0.05-0.155-0.073
								c-0.006-0.002-0.014-0.007-0.02-0.009c-0.313-0.134-0.651-0.191-1.01-0.177c-0.467-0.311-0.939-0.613-1.415-0.91
								c0.768-0.284,1.502-0.362,2.192-0.227c0.002-0.001,0.002-0.001,0.005,0c0.238,0.046,0.47,0.119,0.698,0.215
								c0.702,0.301,1.271,0.77,1.724,1.362c1.112,1.443,1.554,3.613,1.655,5.825c0.016,0.327,0.021,0.654,0.023,0.98
								c0.015,3.617-0.743,7.071-0.805,7.348l-1.165-0.264c0.366-1.632,0.821-4.601,0.769-7.421
								C110.546,298.371,110.545,298.31,110.542,298.248z"/>
							<path style="fill:#CA013E;" d="M96.753,304.351l1.158,0.303c0.688-2.632,2.484-6.491,4.652-9.628l-0.158-0.329
								c-0.244-0.153-0.485-0.318-0.721-0.49C99.378,297.489,97.491,301.526,96.753,304.351z"/>
						</g>
					</g>
					<g>
						<path style="fill:#F22D54;" d="M105.903,291.762c-0.075-0.109-0.167-0.21-0.273-0.298c-0.579-0.482-1.16-0.94-1.775-1.348
							c0.692-0.106,1.352-0.032,1.969,0.232c0.702,0.301,1.271,0.77,1.724,1.362c1.277,1.655,1.669,4.269,1.678,6.805
							c0.015,3.617-0.743,7.071-0.806,7.346l-1.164-0.262c0.366-1.632,0.821-4.601,0.769-7.421
							C107.974,295.448,107.445,292.866,105.903,291.762z"/>
						<path style="fill:#F22D54;" d="M93.715,303.749l1.158,0.303c0.783-2.993,3-7.578,5.565-10.881
							c-0.299-0.279-0.58-0.566-0.841-0.855C96.87,295.772,94.553,300.542,93.715,303.749z"/>
					</g>
					<g>
						<g>
							<g>
								<polygon style="fill:#CA013E;" points="111.311,305.155 112.774,306.504 114.938,305.765 112.842,340.141 102.586,338.933 
																	"/>
							</g>
						</g>
					</g>
					<g>
						<g>
							<polygon style="fill:#F22D54;" points="87.557,300.338 77.445,334.133 102.586,338.933 111.311,305.155 							"/>
						</g>
					</g>
				</g>
				<g>
					<g>
						<g>
							<path style="fill:#0062D7;" d="M102.136,305.552l0.931,0.747c0.177-0.222,2.372-2.995,3.943-6.253
								c0.141-0.294,0.279-0.59,0.408-0.891c0.879-2.033,1.433-4.177,1.065-5.961c-0.148-0.731-0.454-1.402-0.953-1.98
								c-0.162-0.186-0.339-0.353-0.533-0.499c-0.002-0.002-0.002-0.002-0.005-0.002c-0.69-0.523-1.581-0.788-2.656-0.788h-0.012
								c-0.315,0-0.643,0.024-0.982,0.072c0.762,0.437,1.483,0.884,2.068,1.259c0.501,0.141,0.91,0.387,1.216,0.74
								c0.005,0.005,0.009,0.012,0.014,0.017c0.036,0.043,0.072,0.088,0.107,0.134c1.213,1.61,0.595,4.287-0.595,6.902
								c-0.024,0.057-0.05,0.112-0.076,0.17C104.89,301.776,103.18,304.246,102.136,305.552z"/>
							<path style="fill:#0062D7;" d="M88.788,299.744l0.908,0.779c2.135-2.486,6.496-5.871,10.432-7.65
								c-0.303-0.301-0.587-0.609-0.843-0.917C95.258,293.847,90.982,297.186,88.788,299.744z"/>
						</g>
					</g>
					<g>
						<path style="fill:#0080FF;" d="M103.925,297.883c-1.189,2.558-2.899,5.027-3.943,6.334l0.931,0.745
							c0.177-0.22,2.372-2.993,3.943-6.25c1.103-2.283,1.896-4.805,1.474-6.852c-0.148-0.731-0.454-1.402-0.953-1.98
							c-0.74-0.855-1.815-1.29-3.193-1.29h-0.012c-0.432,0-0.891,0.045-1.366,0.131c0.757,0.315,1.572,0.736,2.353,1.173
							c0.547,0.134,0.989,0.389,1.316,0.767c0.005,0.005,0.009,0.012,0.014,0.017C105.872,292.302,105.198,295.142,103.925,297.883z
							"/>
						<path style="fill:#0080FF;" d="M86.32,297.871l0.908,0.779c2.264-2.637,7.034-6.286,11.144-7.96
							c-0.232-0.384-0.406-0.748-0.509-1.072C93.552,291.387,88.706,295.091,86.32,297.871z"/>
					</g>
					<g>
						<g>
							<g>
								<polygon style="fill:#0062D7;" points="104.254,306.371 105.099,308.174 107.381,308.307 92.447,339.34 83.408,334.345 
																	"/>
							</g>
						</g>
						<g>
							<g>
								<g>
									<g>
										<polygon style="fill:#0080FF;" points="84.083,292.933 61.947,320.398 83.408,334.345 104.254,306.371 										"/>
									</g>
								</g>
							</g>
						</g>
					</g>
				</g>
			</g>
			<g>
				<path style="fill:#FF9106;" d="M159.82,347.8l0.7,3.75c-7.25,2.68-31.67,0.12-31.67,0.12c0.25-3.1,0.73-6.77,1.27-10.56
					c0.15-1.08,0.31-2.17,0.47-3.25c0.62-4.18,1.24-8.34,1.66-11.86c0.15-1.35,0.27-2.6,0.35-3.72c0.01-0.08,0.02-0.16,0.02-0.23
					c-1.55-5.75-2.59-10.79-3.27-14.97c-0.22-1.34-0.41-2.59-0.56-3.75c-0.86-6.41-0.8-10.01-0.8-10.01c1.93-1.52,7.09-5,10.06-5.65
					c1.3-0.28,2.18-0.44,2.18-0.44c6.5,1.37,8.99,0.52,8.99,0.52l0.58,0.21l12.2,4.29l-2.42,11.15l-0.79,3.68l-1.44,6.63l-0.69,3.18
					l-1.39,6.41l1.32,7.11l0.7,3.76l1.83,9.86L159.82,347.8z"/>
				<g>
					<circle style="fill:#ED6600;" cx="132.2" cy="295.655" r="1.92"/>
					<path style="fill:#ED6600;" d="M141.176,307.308c0,1.061-0.86,1.92-1.92,1.92c-1.061,0-1.921-0.86-1.921-1.92
						s0.86-1.92,1.921-1.92C140.316,305.388,141.176,306.248,141.176,307.308z"/>
					<path style="fill:#ED6600;" d="M159.58,303.4l-0.79,3.68c-1.06-0.01-1.91-0.86-1.91-1.93c0-1.06,0.86-1.92,1.92-1.92
						C159.08,303.23,159.34,303.29,159.58,303.4z"/>
					<path style="fill:#ED6600;" d="M131.29,305.15c0,1.07-0.86,1.93-1.92,1.93c-0.01,0-0.01,0-0.02,0
						c-0.22-1.34-0.41-2.59-0.56-3.75c0.18-0.07,0.38-0.1,0.58-0.1C130.43,303.23,131.29,304.09,131.29,305.15z"/>
					<path style="fill:#ED6600;" d="M152.984,298.224c0,1.061-0.86,1.92-1.92,1.92c-1.061,0-1.921-0.86-1.921-1.92
						c0-1.061,0.86-1.92,1.921-1.92C152.124,296.303,152.984,297.163,152.984,298.224z"/>
					<path style="fill:#ED6600;" d="M133.91,324.1c0,0.97-0.72,1.78-1.66,1.9c0.15-1.35,0.27-2.6,0.35-3.72
						C133.36,322.52,133.91,323.25,133.91,324.1z"/>
					<path style="fill:#ED6600;" d="M142.503,325.372c0,1.061-0.86,1.921-1.92,1.921c-1.061,0-1.921-0.86-1.921-1.921
						c0-1.061,0.86-1.92,1.921-1.92C141.643,323.452,142.503,324.312,142.503,325.372z"/>
					<path style="fill:#ED6600;" d="M152.984,325.018c0,1.061-0.86,1.92-1.92,1.92c-1.061,0-1.921-0.86-1.921-1.92
						s0.86-1.92,1.921-1.92C152.124,323.097,152.984,323.957,152.984,325.018z"/>
					<path style="fill:#ED6600;" d="M157.29,334.17c-0.06,0.01-0.13,0.01-0.19,0.01c-1.06,0-1.92-0.86-1.92-1.92
						c0-0.88,0.6-1.63,1.41-1.85L157.29,334.17z"/>
					<path style="fill:#ED6600;" d="M148.56,334.183c0,1.061-0.86,1.921-1.92,1.921c-1.061,0-1.92-0.86-1.92-1.921
						c0-1.061,0.86-1.92,1.92-1.92C147.701,332.263,148.56,333.123,148.56,334.183z"/>
					<path style="fill:#ED6600;" d="M136.919,333.167c0,1.061-0.86,1.92-1.92,1.92c-1.061,0-1.92-0.86-1.92-1.92
						c0-1.061,0.86-1.921,1.92-1.921C136.059,331.246,136.919,332.106,136.919,333.167z"/>
					<path style="fill:#ED6600;" d="M142.503,340.787c0,1.061-0.86,1.92-1.92,1.92c-1.061,0-1.921-0.86-1.921-1.92
						c0-1.061,0.86-1.92,1.921-1.92C141.643,338.867,142.503,339.726,142.503,340.787z"/>
					<path style="fill:#ED6600;" d="M131.29,339.34c0,0.8-0.48,1.48-1.17,1.77c0.15-1.08,0.31-2.17,0.47-3.25
						C131.02,338.21,131.29,338.74,131.29,339.34z"/>
					<path style="fill:#ED6600;" d="M154.904,339.34c0,1.061-0.86,1.92-1.921,1.92s-1.92-0.86-1.92-1.92s0.86-1.92,1.92-1.92
						S154.904,338.279,154.904,339.34z"/>
					<path style="fill:#ED6600;" d="M159.82,347.8c-0.12,0.03-0.25,0.04-0.38,0.04c-1.06,0-1.92-0.86-1.92-1.92
						c0-0.95,0.69-1.74,1.6-1.89L159.82,347.8z"/>
					<path style="fill:#ED6600;" d="M150.069,346.849c0,1.061-0.86,1.921-1.92,1.921c-1.061,0-1.921-0.86-1.921-1.921
						c0-1.061,0.86-1.92,1.921-1.92C149.209,344.929,150.069,345.789,150.069,346.849z"/>
					<path style="fill:#ED6600;" d="M135.828,345.923c0,1.061-0.86,1.921-1.921,1.921c-1.061,0-1.92-0.86-1.92-1.921
						c0-1.061,0.86-1.92,1.92-1.92C134.968,344.003,135.828,344.862,135.828,345.923z"/>
					<path style="fill:#ED6600;" d="M146.228,316.417c0,1.061-0.86,1.92-1.92,1.92c-1.061,0-1.92-0.86-1.92-1.92
						c0-1.061,0.86-1.921,1.92-1.921C145.369,314.496,146.228,315.356,146.228,316.417z"/>
					<path style="fill:#ED6600;" d="M135.948,314.654c0,1.061-0.86,1.92-1.92,1.92c-1.061,0-1.921-0.86-1.921-1.92
						s0.86-1.92,1.921-1.92C135.088,312.734,135.948,313.594,135.948,314.654z"/>
					<path style="fill:#ED6600;" d="M157.35,313.71l-0.69,3.18c-0.2,0.08-0.42,0.12-0.65,0.12c-1.06,0-1.92-0.86-1.92-1.92
						s0.86-1.92,1.92-1.92C156.53,313.17,157,313.37,157.35,313.71z"/>
					<path style="fill:#ED6600;" d="M159.698,293.323c0,1.061-0.86,1.92-1.92,1.92c-1.061,0-1.921-0.86-1.921-1.92
						s0.86-1.92,1.921-1.92C158.838,291.402,159.698,292.262,159.698,293.323z"/>
					<path style="fill:#ED6600;" d="M143.097,298.65c0,1.061-0.86,1.92-1.921,1.92c-1.061,0-1.92-0.86-1.92-1.92
						s0.86-1.92,1.92-1.92C142.237,296.73,143.097,297.589,143.097,298.65z"/>
					<path style="fill:#ED6600;" d="M151.487,307.849c0,1.061-0.86,1.921-1.92,1.921c-1.061,0-1.92-0.86-1.92-1.921
						c0-1.061,0.86-1.92,1.92-1.92C150.627,305.928,151.487,306.788,151.487,307.849z"/>
				</g>
				<path style="fill:#FFA285;" d="M149.799,287.956c-0.404,1.714-1.613,5.048-4.938,5.349c-3.774,0.341-6.145-4.181-6.807-5.633
					c1.298-0.283,2.172-0.442,2.172-0.442c2.865,0,7.855-0.129,8.994,0.523L149.799,287.956z"/>
			</g>
			<g>
				<g>
					<path style="fill:#FFA285;" d="M139.609,288.163c3.089,1.536,6.18,1.537,9.273,0.008c-0.321-2.828,0.054-5.006,0.684-6.947
						c-0.707-0.818-2.159-2.344-3.924-3.344c-0.774-0.318-1.595-0.631-2.412-0.902c-1.381-0.23-2.826,0.068-4.18,1.332
						c0.313,1.225,0.561,2.391,0.697,3.685C139.926,283.693,139.915,285.608,139.609,288.163z"/>
					<path style="fill:#FF8470;" d="M139.05,278.311c0.313,1.225,0.561,2.391,0.697,3.685c1.456,2.389,4.238,5.462,9.136,6.175
						c-0.321-2.828,0.054-5.006,0.684-6.947c-0.707-0.818-2.159-2.344-3.924-3.344c-0.774-0.318-1.595-0.631-2.412-0.902
						C141.849,276.749,140.403,277.047,139.05,278.311z"/>
				</g>
				<g>
					<path style="fill:#FFA285;" d="M136.556,264.438l-0.003,0.027c0,0,0.004-0.01,0.013-0.029
						C136.559,264.437,136.556,264.438,136.556,264.438z"/>
					<path style="fill:#FFA285;" d="M157.765,266.502c0,0.283-0.009,1.474-0.161,3.119c-0.081,0.856-0.197,1.835-0.37,2.871
						c-0.767,4.632-2.653,10.421-7.273,11.621c-5.846,1.519-10.012-2.441-12.068-8.195c-0.099-0.286-0.197-0.576-0.29-0.868
						c-0.024-0.081-0.048-0.158-0.072-0.239c-0.09-0.293-0.173-0.591-0.251-0.892c-0.582-2.259-0.871-4.709-0.844-7.159
						c0.009-0.767,0.045-1.534,0.119-2.292c0,0,0.128-1.397,0.134-1.418c0.663-2.504,3.289-5.978,11.221-5.506
						c4.217,0.251,6.694,2.286,8.102,4.211c0.036,0.045,0.069,0.09,0.099,0.134c0.46,0.645,0.8,1.274,1.048,1.811
						c0.364,0.8,0.57,1.665,0.615,2.546C157.779,266.391,157.779,266.499,157.765,266.502z"/>
					<path style="fill:#22395F;" d="M157.765,266.502c0,0.283-0.009,1.474-0.161,3.119c-0.293-0.803-0.708-1.732-1.122-3.316
						c-0.479-1.833-0.573-3.808-0.469-4.551c0.589,0.555,1.051,1.346,1.298,1.883c0.364,0.8,0.418,1.728,0.463,2.608
						C157.779,266.391,157.779,266.499,157.765,266.502z"/>
					<path style="fill:#22395F;" d="M156.014,261.754c-2.802,3.532-9.858,8.152-9.858,8.152c-2.394,1.315-4.341,1.78-5.476,1.738
						c-0.841-0.032-2.068-1.052-2.469-2.69c-0.4-1.638-1.742-2.111-1.742-2.111s-0.013-0.029-0.035-0.084
						c0.009-0.766,0.047-1.533,0.119-2.293c0,0,0.128-1.395,0.135-1.416c0.662-2.505,3.289-5.979,11.221-5.507
						C152.129,257.793,154.604,259.829,156.014,261.754z"/>
					<path style="fill:#FFA285;" d="M138.384,267.573c0,0-2.919-1.75-4.038,0.108c-1.119,1.858,0.787,8.235,4.616,7.346
						C138.962,275.027,139.838,271.112,138.384,267.573z"/>
					<path style="fill:#FF8470;" d="M137.603,275.048c0.092,0.293,0.189,0.583,0.29,0.869c0.543,0.015,1.288-0.185,1.827-1.181
						C139.721,274.736,138.454,275.349,137.603,275.048z"/>
				</g>
			</g>
		</g>
	</g>
</g>
<g id="DESIGNED_BY_FREEPIK">
	<g>
		<g id="XMLID_1_">
			<g id="XMLID_20_">
				<path id="XMLID_28_" style="fill:#112129;" d="M260.104,465.465c-0.432,0.443-0.803,0.931-1.108,1.453l-0.465-0.241
					c-0.067-0.298-0.349-0.503-0.659-0.466c-0.331,0.039-0.568,0.339-0.529,0.67c0.039,0.331,0.339,0.568,0.67,0.529
					c0.065-0.008,0.127-0.026,0.183-0.052l0.452,0.234c-0.251,0.554-0.433,1.139-0.539,1.744l0.747,0.132
					c0.23-1.306,0.85-2.507,1.792-3.473L260.104,465.465z"/>
				<path id="XMLID_27_" style="fill:#112129;" d="M265.592,463.163c-0.171,0-0.341,0.006-0.51,0.017l-0.074-0.626
					c0.188-0.149,0.296-0.389,0.266-0.645c-0.046-0.393-0.402-0.674-0.795-0.628c-0.393,0.046-0.674,0.402-0.628,0.795
					c0.03,0.254,0.189,0.461,0.405,0.564l0.073,0.624c-0.714,0.116-1.403,0.332-2.06,0.646l0.327,0.684
					c0.934-0.447,1.942-0.673,2.995-0.673c0.496,0,0.993,0.053,1.475,0.158l0.161-0.741
					C266.692,463.222,266.142,463.163,265.592,463.163z"/>
				<path id="XMLID_26_" style="fill:#112129;" d="M272.194,465.711c0.331-0.04,0.566-0.341,0.526-0.672
					c-0.04-0.331-0.341-0.566-0.672-0.526c-0.309,0.038-0.535,0.304-0.53,0.609l-0.416,0.363c-0.418-0.43-0.89-0.813-1.408-1.139
					l-0.404,0.641c1.134,0.715,2.021,1.726,2.563,2.925l0.691-0.313c-0.251-0.554-0.568-1.072-0.942-1.545l0.402-0.351
					C272.065,465.716,272.129,465.719,272.194,465.711z"/>
				<path id="XMLID_25_" style="fill:#112129;" d="M265.044,473.372c-0.386,0.023-0.775,0.035-1.157,0.035
					c-0.88,0-1.733-0.061-2.478-0.179c-0.39-0.062-0.846-0.155-1.27-0.292c1.046,1.861,3.069,3.125,5.388,3.125
					c2.855,0,5.262-1.916,5.95-4.504c-0.682,0.449-1.505,0.825-2.459,1.123C267.839,473.047,266.464,473.286,265.044,473.372z"/>
				<path id="XMLID_21_" style="fill:#112129;" d="M265.592,464.68c-3.352,0-6.08,2.666-6.08,5.943c0,0.426,0.046,0.849,0.137,1.261
					c0.673,0.483,2.706,0.89,5.348,0.731c2.879-0.173,5.297-0.957,6.672-2.159c-0.005-0.195-0.021-0.39-0.045-0.582
					C271.244,466.913,268.65,464.68,265.592,464.68z M263.432,471.194c-1.02,0-1.85-0.83-1.85-1.85c0-1.02,0.83-1.85,1.85-1.85
					c1.02,0,1.85,0.83,1.85,1.85C265.282,470.365,264.452,471.194,263.432,471.194z M268.17,470.286c-0.75,0-1.36-0.61-1.36-1.36
					s0.61-1.361,1.36-1.361c0.75,0,1.361,0.61,1.361,1.361S268.92,470.286,268.17,470.286z"/>
			</g>
			<path id="XMLID_18_" style="fill:#112129;" d="M281.595,466.547c-0.295-0.116-0.805-0.309-1.382-0.237
				c-0.551,0.069-0.844,0.341-0.844,1.007v0.866h2.228v1.717h-2.228v5.455h-1.932v-5.455h-1.34v-1.717h1.34v-0.888
				c0-1.68,0.896-2.783,2.568-2.783c0.643,0,1.157,0.122,1.59,0.308L281.595,466.547z"/>
			<path id="XMLID_16_" style="fill:#112129;" d="M286.298,469.879c-0.177-0.03-0.358-0.046-0.526-0.046
				c-0.896,0-1.51,0.548-1.51,1.614v3.908h-1.932v-7.172h1.873v0.785c0.451-0.673,1.14-0.977,2.021-0.977
				c0.414,0,0.848,0.128,1.094,0.337L286.298,469.879z"/>
			<path id="XMLID_13_" style="fill:#112129;" d="M293.965,471.757c0,0.222-0.015,0.489-0.037,0.651h-5.085
				c0.207,1.036,0.933,1.488,1.843,1.488c0.622,0,1.295-0.252,1.813-0.688l1.132,1.243c-0.814,0.748-1.85,1.088-3.057,1.088
				c-2.198,0-3.723-1.495-3.723-3.753c0-2.258,1.48-3.797,3.627-3.797C292.544,467.99,293.958,469.522,293.965,471.757z
				 M288.851,471.091h3.175c-0.177-0.918-0.733-1.436-1.562-1.436C289.554,469.655,289.021,470.203,288.851,471.091z"/>
			<path id="XMLID_10_" style="fill:#112129;" d="M301.618,471.757c0,0.222-0.015,0.489-0.037,0.651h-5.085
				c0.207,1.036,0.933,1.488,1.843,1.488c0.622,0,1.295-0.252,1.813-0.688l1.132,1.243c-0.814,0.748-1.85,1.088-3.057,1.088
				c-2.198,0-3.723-1.495-3.723-3.753c0-2.258,1.48-3.797,3.627-3.797C300.197,467.99,301.611,469.522,301.618,471.757z
				 M296.504,471.091h3.175c-0.178-0.918-0.733-1.436-1.562-1.436C297.207,469.655,296.674,470.203,296.504,471.091z"/>
			<path id="XMLID_7_" style="fill:#112129;" d="M309.964,471.764c0,2.154-1.495,3.775-3.471,3.775
				c-0.962,0-1.643-0.378-2.109-0.933v3.708h-1.924v-10.133h1.887v0.792c0.466-0.585,1.155-0.984,2.139-0.984
				C308.469,467.99,309.964,469.61,309.964,471.764z M304.287,471.764c0,1.132,0.747,1.976,1.843,1.976
				c1.14,0,1.85-0.881,1.85-1.976c0-1.095-0.71-1.976-1.85-1.976C305.035,469.788,304.287,470.632,304.287,471.764z"/>
			<path id="XMLID_4_" style="fill:#112129;" d="M313.068,465.836c0,0.696-0.54,1.229-1.236,1.229c-0.696,0-1.229-0.533-1.229-1.229
				c0-0.696,0.533-1.243,1.229-1.243C312.527,464.592,313.068,465.14,313.068,465.836z M312.809,475.354h-1.932v-7.172h1.932
				V475.354z"/>
			<path id="XMLID_2_" style="fill:#112129;" d="M316.032,470.736l2.701-2.554h2.368l-3.479,3.375l3.501,3.797h-2.376l-2.716-2.901
				v2.901H314.1v-10.658h1.932V470.736z"/>
		</g>
		<g>
			<path style="fill:#112129;" d="M184.412,475.289v-1.055c-0.527,0.718-1.391,1.23-2.387,1.23c-1.846,0-3.149-1.406-3.149-3.706
				c0-2.256,1.289-3.721,3.149-3.721c0.952,0,1.816,0.469,2.387,1.245v-3.765h1.099v9.77H184.412z M184.412,473.37v-3.208
				c-0.395-0.615-1.245-1.143-2.124-1.143c-1.421,0-2.27,1.172-2.27,2.739c0,1.567,0.85,2.724,2.27,2.724
				C183.168,474.483,184.017,473.986,184.412,473.37z"/>
			<path style="fill:#112129;" d="M186.932,471.744c0-2.051,1.465-3.706,3.486-3.706c2.139,0,3.398,1.67,3.398,3.794v0.279h-5.727
				c0.088,1.333,1.025,2.446,2.549,2.446c0.805,0,1.626-0.322,2.182-0.894l0.527,0.718c-0.703,0.703-1.655,1.084-2.812,1.084
				C188.44,475.465,186.932,473.956,186.932,471.744z M190.403,468.947c-1.509,0-2.256,1.274-2.314,2.358h4.643
				C192.718,470.25,192.015,468.947,190.403,468.947z"/>
			<path style="fill:#112129;" d="M194.607,474.351l0.571-0.791c0.469,0.542,1.362,1.011,2.329,1.011c1.084,0,1.67-0.513,1.67-1.216
				c0-1.714-4.38-0.659-4.38-3.281c0-1.098,0.952-2.036,2.636-2.036c1.201,0,2.051,0.454,2.622,1.026l-0.513,0.762
				c-0.424-0.513-1.201-0.894-2.109-0.894c-0.967,0-1.567,0.483-1.567,1.113c0,1.552,4.38,0.527,4.38,3.281
				c0,1.187-0.952,2.138-2.783,2.138C196.306,475.465,195.325,475.113,194.607,474.351z"/>
			<path style="fill:#112129;" d="M201.477,466.471c0-0.41,0.337-0.747,0.732-0.747c0.41,0,0.747,0.337,0.747,0.747
				c0,0.41-0.337,0.732-0.747,0.732C201.814,467.203,201.477,466.881,201.477,466.471z M201.667,475.289v-7.075h1.099v7.075H201.667
				z"/>
			<path style="fill:#112129;" d="M204.582,477.105l0.556-0.82c0.586,0.703,1.289,0.967,2.3,0.967c1.172,0,2.27-0.571,2.27-2.124
				v-1.011c-0.513,0.718-1.377,1.26-2.373,1.26c-1.845,0-3.149-1.377-3.149-3.662c0-2.27,1.289-3.677,3.149-3.677
				c0.952,0,1.802,0.469,2.373,1.245v-1.069h1.098v6.87c0,2.344-1.641,3.076-3.369,3.076
				C206.237,478.16,205.417,477.926,204.582,477.105z M209.709,473.253v-3.091c-0.381-0.615-1.23-1.143-2.109-1.143
				c-1.421,0-2.27,1.128-2.27,2.695c0,1.553,0.849,2.695,2.27,2.695C208.478,474.41,209.328,473.868,209.709,473.253z"/>
			<path style="fill:#112129;" d="M217.413,475.289v-4.629c0-1.245-0.63-1.641-1.582-1.641c-0.865,0-1.685,0.527-2.095,1.099v5.17
				h-1.099v-7.075h1.099v1.025c0.498-0.586,1.465-1.201,2.519-1.201c1.48,0,2.256,0.747,2.256,2.285v4.966H217.413z"/>
			<path style="fill:#112129;" d="M219.932,471.744c0-2.051,1.465-3.706,3.486-3.706c2.139,0,3.398,1.67,3.398,3.794v0.279h-5.727
				c0.088,1.333,1.025,2.446,2.549,2.446c0.806,0,1.626-0.322,2.183-0.894l0.527,0.718c-0.703,0.703-1.655,1.084-2.812,1.084
				C221.441,475.465,219.932,473.956,219.932,471.744z M223.404,468.947c-1.509,0-2.256,1.274-2.314,2.358h4.643
				C225.718,470.25,225.015,468.947,223.404,468.947z"/>
			<path style="fill:#112129;" d="M233.35,475.289v-1.055c-0.527,0.718-1.392,1.23-2.388,1.23c-1.846,0-3.149-1.406-3.149-3.706
				c0-2.256,1.289-3.721,3.149-3.721c0.952,0,1.817,0.469,2.388,1.245v-3.765h1.098v9.77H233.35z M233.35,473.37v-3.208
				c-0.396-0.615-1.245-1.143-2.124-1.143c-1.421,0-2.27,1.172-2.27,2.739c0,1.567,0.849,2.724,2.27,2.724
				C232.105,474.483,232.954,473.986,233.35,473.37z"/>
			<path style="fill:#112129;" d="M239.692,475.289v-9.77h1.098v3.765c0.572-0.776,1.421-1.245,2.388-1.245
				c1.845,0,3.149,1.465,3.149,3.721c0,2.299-1.304,3.706-3.149,3.706c-0.996,0-1.86-0.513-2.388-1.23v1.055H239.692z
				 M242.9,474.483c1.436,0,2.285-1.157,2.285-2.724c0-1.568-0.85-2.739-2.285-2.739c-0.864,0-1.728,0.527-2.109,1.143v3.208
				C241.171,473.986,242.036,474.483,242.9,474.483z"/>
			<path style="fill:#112129;" d="M247.528,477.061c0.161,0.073,0.425,0.117,0.601,0.117c0.483,0,0.805-0.161,1.055-0.747
				l0.469-1.069l-2.959-7.148h1.187l2.358,5.8l2.344-5.8h1.201l-3.545,8.51c-0.425,1.025-1.143,1.421-2.08,1.435
				c-0.234,0-0.601-0.044-0.806-0.103L247.528,477.061z"/>
		</g>
	</g>
</g>
</svg>
